G04*
G04 #@! TF.GenerationSoftware,Altium Limited,Altium Designer,23.0.1 (38)*
G04*
G04 Layer_Color=128*
%FSLAX25Y25*%
%MOIN*%
G70*
G04*
G04 #@! TF.SameCoordinates,CBCD5F51-024F-4456-99E9-F8A3691CA7AB*
G04*
G04*
G04 #@! TF.FilePolarity,Positive*
G04*
G01*
G75*
%ADD15C,0.00500*%
D15*
X203228Y21000D02*
X206772D01*
X205000Y19228D02*
Y22772D01*
X213228Y21000D02*
X216772D01*
X215000Y19228D02*
Y22772D01*
X223228Y21000D02*
X226772D01*
X225000Y19228D02*
Y22772D01*
X233228Y21000D02*
X236772D01*
X235000Y19228D02*
Y22772D01*
X243228Y21000D02*
X246772D01*
X245000Y19228D02*
Y22772D01*
X464728Y21000D02*
X468272D01*
X466500Y19228D02*
Y22772D01*
X474728Y21000D02*
X478272D01*
X476500Y19228D02*
Y22772D01*
X484728Y21000D02*
X488272D01*
X486500Y19228D02*
Y22772D01*
X494728Y21000D02*
X498272D01*
X496500Y19228D02*
Y22772D01*
X504728Y21000D02*
X508272D01*
X506500Y19228D02*
Y22772D01*
X346420Y266500D02*
X349570D01*
X347995Y264925D02*
Y268075D01*
X330672Y266500D02*
X333822D01*
X332247Y264925D02*
Y268075D01*
X381794Y355500D02*
X384944D01*
X383369Y353925D02*
Y357075D01*
X366046Y355500D02*
X369196D01*
X367621Y353925D02*
Y357075D01*
X331172Y355000D02*
X336290D01*
X333731Y352441D02*
Y357559D01*
X344952Y355000D02*
X350070D01*
X347511Y352441D02*
Y357559D01*
X625800Y313000D02*
X629200D01*
X627500Y311300D02*
Y314700D01*
X625800Y303000D02*
X629200D01*
X627500Y301300D02*
Y304700D01*
X379228Y17874D02*
X382772D01*
X381000Y16102D02*
Y19646D01*
X389228Y17874D02*
X392772D01*
X391000Y16102D02*
Y19646D01*
X399228Y17874D02*
X402772D01*
X401000Y16102D02*
Y19646D01*
X319228Y17874D02*
X322772D01*
X321000Y16102D02*
Y19646D01*
X329228Y17874D02*
X332772D01*
X331000Y16102D02*
Y19646D01*
X339228Y17874D02*
X342772D01*
X341000Y16102D02*
Y19646D01*
X349228Y17874D02*
X352772D01*
X351000Y16102D02*
Y19646D01*
X359228Y17874D02*
X362772D01*
X361000Y16102D02*
Y19646D01*
X369228Y17874D02*
X372772D01*
X371000Y16102D02*
Y19646D01*
X409228Y17874D02*
X412772D01*
X411000Y16102D02*
Y19646D01*
X409228Y85000D02*
X412772D01*
X411000Y83228D02*
Y86772D01*
X399228Y85000D02*
X402772D01*
X401000Y83228D02*
Y86772D01*
X379228Y85000D02*
X382772D01*
X381000Y83228D02*
Y86772D01*
X369228Y85000D02*
X372772D01*
X371000Y83228D02*
Y86772D01*
X359228Y85000D02*
X362772D01*
X361000Y83228D02*
Y86772D01*
X349228Y85000D02*
X352772D01*
X351000Y83228D02*
Y86772D01*
X339228Y85000D02*
X342772D01*
X341000Y83228D02*
Y86772D01*
X329228Y85000D02*
X332772D01*
X331000Y83228D02*
Y86772D01*
X389228Y85000D02*
X392772D01*
X391000Y83228D02*
Y86772D01*
X319228Y85000D02*
X322772D01*
X321000Y83228D02*
Y86772D01*
X349349Y245000D02*
X352893D01*
X351121Y243228D02*
Y246772D01*
X339349Y245000D02*
X342893D01*
X341121Y243228D02*
Y246772D01*
X359349Y245000D02*
X362893D01*
X361121Y243228D02*
Y246772D01*
X369349Y245000D02*
X372893D01*
X371121Y243228D02*
Y246772D01*
X304047Y305000D02*
X307591D01*
X305819Y303228D02*
Y306772D01*
X304047Y245000D02*
X307591D01*
X305819Y243228D02*
Y246772D01*
X304047Y295000D02*
X307591D01*
X305819Y293228D02*
Y296772D01*
X304047Y285000D02*
X307591D01*
X305819Y283228D02*
Y286772D01*
X304047Y275000D02*
X307591D01*
X305819Y273228D02*
Y276772D01*
X304047Y265000D02*
X307591D01*
X305819Y263228D02*
Y266772D01*
X304047Y255000D02*
X307591D01*
X305819Y253228D02*
Y256772D01*
X304047Y235000D02*
X307591D01*
X305819Y233228D02*
Y236772D01*
X304047Y225000D02*
X307591D01*
X305819Y223228D02*
Y226772D01*
X304047Y215000D02*
X307591D01*
X305819Y213228D02*
Y216772D01*
X304047Y205000D02*
X307591D01*
X305819Y203228D02*
Y206772D01*
X304047Y195000D02*
X307591D01*
X305819Y193228D02*
Y196772D01*
X304047Y185000D02*
X307591D01*
X305819Y183228D02*
Y186772D01*
X304047Y175000D02*
X307591D01*
X305819Y173228D02*
Y176772D01*
X304047Y165000D02*
X307591D01*
X305819Y163228D02*
Y166772D01*
X304047Y155000D02*
X307591D01*
X305819Y153228D02*
Y156772D01*
X304047Y145000D02*
X307591D01*
X305819Y143228D02*
Y146772D01*
X304047Y135000D02*
X307591D01*
X305819Y133228D02*
Y136772D01*
X304047Y125000D02*
X307591D01*
X305819Y123228D02*
Y126772D01*
X304047Y115000D02*
X307591D01*
X305819Y113228D02*
Y116772D01*
X529004Y372000D02*
X541996D01*
X535500Y365504D02*
Y378496D01*
X169504Y372000D02*
X182496D01*
X176000Y365504D02*
Y378496D01*
X668004Y336500D02*
X680996D01*
X674500Y330004D02*
Y342996D01*
X297634Y71501D02*
X301177D01*
X299405Y69729D02*
Y73273D01*
X297634Y61501D02*
X301177D01*
X299405Y59729D02*
Y63273D01*
X297634Y51501D02*
X301177D01*
X299405Y49729D02*
Y53272D01*
X297634Y41501D02*
X301177D01*
X299405Y39729D02*
Y43272D01*
X297634Y31501D02*
X301177D01*
X299405Y29729D02*
Y33272D01*
X404043Y115000D02*
X407587D01*
X405815Y113228D02*
Y116772D01*
X404043Y135000D02*
X407587D01*
X405815Y133228D02*
Y136772D01*
X404043Y145000D02*
X407587D01*
X405815Y143228D02*
Y146772D01*
X404043Y155000D02*
X407587D01*
X405815Y153228D02*
Y156772D01*
X404043Y165000D02*
X407587D01*
X405815Y163228D02*
Y166772D01*
X404043Y185000D02*
X407587D01*
X405815Y183228D02*
Y186772D01*
X404043Y195000D02*
X407587D01*
X405815Y193228D02*
Y196772D01*
X404043Y205000D02*
X407587D01*
X405815Y203228D02*
Y206772D01*
X404043Y215000D02*
X407587D01*
X405815Y213228D02*
Y216772D01*
X404043Y225000D02*
X407587D01*
X405815Y223228D02*
Y226772D01*
X404043Y235000D02*
X407587D01*
X405815Y233228D02*
Y236772D01*
X404043Y245000D02*
X407587D01*
X405815Y243228D02*
Y246772D01*
X404043Y255000D02*
X407587D01*
X405815Y253228D02*
Y256772D01*
X404043Y265000D02*
X407587D01*
X405815Y263228D02*
Y266772D01*
X404043Y275000D02*
X407587D01*
X405815Y273228D02*
Y276772D01*
X404043Y285000D02*
X407587D01*
X405815Y283228D02*
Y286772D01*
X404043Y295000D02*
X407587D01*
X405815Y293228D02*
Y296772D01*
X404043Y125000D02*
X407587D01*
X405815Y123228D02*
Y126772D01*
X404043Y305000D02*
X407587D01*
X405815Y303228D02*
Y306772D01*
X404043Y175000D02*
X407587D01*
X405815Y173228D02*
Y176772D01*
X389625Y337500D02*
X402617D01*
X396121Y331004D02*
Y343996D01*
X308999Y337500D02*
X321991D01*
X315495Y331004D02*
Y343996D01*
X512126Y136000D02*
X527874D01*
X520000Y128126D02*
Y143874D01*
X445343Y136000D02*
X461091D01*
X453217Y128126D02*
Y143874D01*
X251126Y136000D02*
X266874D01*
X259000Y128126D02*
Y143874D01*
X184126Y136000D02*
X199874D01*
X192000Y128126D02*
Y143874D01*
X668004Y52000D02*
X680996D01*
X674500Y45504D02*
Y58496D01*
X30504Y52000D02*
X43496D01*
X37000Y45504D02*
Y58496D01*
X30504Y336500D02*
X43496D01*
X37000Y330004D02*
Y342996D01*
X511100Y279000D02*
X513900D01*
X512500Y277600D02*
Y280400D01*
X498100Y267000D02*
X500900D01*
X499500Y265600D02*
Y268400D01*
X72100Y205500D02*
X74900D01*
X73500Y204100D02*
Y206900D01*
X111600Y166500D02*
X114400D01*
X113000Y165100D02*
Y167900D01*
X91350Y166500D02*
X94150D01*
X92750Y165100D02*
Y167900D01*
X71100Y166500D02*
X73900D01*
X72500Y165100D02*
Y167900D01*
X98100Y181000D02*
X100900D01*
X99500Y179600D02*
Y182400D01*
X80350Y181000D02*
X83150D01*
X81750Y179600D02*
Y182400D01*
X62600Y181000D02*
X65400D01*
X64000Y179600D02*
Y182400D01*
X438600Y294000D02*
X441400D01*
X440000Y292600D02*
Y295400D01*
X603409Y116000D02*
X604591D01*
X604000Y115409D02*
Y116591D01*
X603409Y118500D02*
X604591D01*
X604000Y117909D02*
Y119091D01*
X603409Y121000D02*
X604591D01*
X604000Y120409D02*
Y121591D01*
X498843Y5236D02*
X501643D01*
X500243Y3836D02*
Y6636D01*
X430409Y207500D02*
X431591D01*
X431000Y206909D02*
Y208090D01*
X448600Y301500D02*
X451400D01*
X450000Y300100D02*
Y302900D01*
X469600Y321000D02*
X472400D01*
X471000Y319600D02*
Y322400D01*
X457100Y320500D02*
X459900D01*
X458500Y319100D02*
Y321900D01*
X498843Y115472D02*
X501643D01*
X500243Y114073D02*
Y116873D01*
X493600Y330500D02*
X496400D01*
X495000Y329100D02*
Y331900D01*
X487600Y340500D02*
X490400D01*
X489000Y339100D02*
Y341900D01*
X472350Y340500D02*
X475150D01*
X473750Y339100D02*
Y341900D01*
X457100Y340500D02*
X459900D01*
X458500Y339100D02*
Y341900D01*
X691757Y335945D02*
X694557D01*
X693157Y334545D02*
Y337345D01*
X691757Y280827D02*
X694557D01*
X693157Y279427D02*
Y282227D01*
X691757Y225709D02*
X694557D01*
X693157Y224309D02*
Y227109D01*
X691757Y170591D02*
X694557D01*
X693157Y169191D02*
Y171991D01*
X691757Y115472D02*
X694557D01*
X693157Y114073D02*
Y116873D01*
X691757Y60354D02*
X694557D01*
X693157Y58954D02*
Y61754D01*
X677977Y308386D02*
X680777D01*
X679377Y306986D02*
Y309786D01*
X677977Y253268D02*
X680777D01*
X679377Y251868D02*
Y254668D01*
X677977Y143032D02*
X680777D01*
X679377Y141631D02*
Y144431D01*
X664197Y115472D02*
X666997D01*
X665597Y114073D02*
Y116873D01*
X677977Y87913D02*
X680777D01*
X679377Y86513D02*
Y89313D01*
X636638Y280827D02*
X639438D01*
X638038Y279427D02*
Y282227D01*
X650418Y253268D02*
X653218D01*
X651818Y251868D02*
Y254668D01*
X636638Y225709D02*
X639438D01*
X638038Y224309D02*
Y227109D01*
X636638Y170591D02*
X639438D01*
X638038Y169191D02*
Y171991D01*
X650418Y87913D02*
X653218D01*
X651818Y86513D02*
Y89313D01*
X636638Y60354D02*
X639438D01*
X638038Y58954D02*
Y61754D01*
X609079Y280827D02*
X611879D01*
X610479Y279427D02*
Y282227D01*
X609079Y225709D02*
X611879D01*
X610479Y224309D02*
Y227109D01*
X609079Y170591D02*
X611879D01*
X610479Y169191D02*
Y171991D01*
X622859Y87913D02*
X625659D01*
X624259Y86513D02*
Y89313D01*
X609079Y60354D02*
X611879D01*
X610479Y58954D02*
Y61754D01*
X581520Y335945D02*
X584320D01*
X582920Y334545D02*
Y337345D01*
X581520Y225709D02*
X584320D01*
X582920Y224309D02*
Y227109D01*
X595300Y198150D02*
X598100D01*
X596700Y196750D02*
Y199550D01*
X581520Y170591D02*
X584320D01*
X582920Y169191D02*
Y171991D01*
X595300Y143032D02*
X598100D01*
X596700Y141631D02*
Y144431D01*
X581520Y115472D02*
X584320D01*
X582920Y114073D02*
Y116873D01*
X567741Y308386D02*
X570541D01*
X569141Y306986D02*
Y309786D01*
X553961Y280827D02*
X556761D01*
X555361Y279427D02*
Y282227D01*
X567741Y253268D02*
X570541D01*
X569141Y251868D02*
Y254668D01*
X553961Y225709D02*
X556761D01*
X555361Y224309D02*
Y227109D01*
X553961Y170591D02*
X556761D01*
X555361Y169191D02*
Y171991D01*
X553961Y115472D02*
X556761D01*
X555361Y114073D02*
Y116873D01*
X567741Y87913D02*
X570541D01*
X569141Y86513D02*
Y89313D01*
X567741Y32795D02*
X570541D01*
X569141Y31395D02*
Y34195D01*
X526402Y170591D02*
X529202D01*
X527802Y169191D02*
Y171991D01*
X540182Y143032D02*
X542982D01*
X541582Y141631D02*
Y144431D01*
X526402Y115472D02*
X529202D01*
X527802Y114073D02*
Y116873D01*
X540182Y87913D02*
X542982D01*
X541582Y86513D02*
Y89313D01*
X540182Y32795D02*
X542982D01*
X541582Y31395D02*
Y34195D01*
X526402Y5236D02*
X529202D01*
X527802Y3836D02*
Y6636D01*
X512623Y363504D02*
X515423D01*
X514023Y362104D02*
Y364904D01*
X512623Y198150D02*
X515423D01*
X514023Y196750D02*
Y199550D01*
X498843Y170591D02*
X501643D01*
X500243Y169191D02*
Y171991D01*
X512623Y32795D02*
X515423D01*
X514023Y31395D02*
Y34195D01*
X485064Y363504D02*
X487864D01*
X486464Y362104D02*
Y364904D01*
X485064Y253268D02*
X487864D01*
X486464Y251868D02*
Y254668D01*
X471284Y170591D02*
X474084D01*
X472684Y169191D02*
Y171991D01*
X471284Y115472D02*
X474084D01*
X472684Y114073D02*
Y116873D01*
X457505Y363504D02*
X460305D01*
X458905Y362104D02*
Y364904D01*
X457505Y308386D02*
X460305D01*
X458905Y306986D02*
Y309786D01*
X443725Y115472D02*
X446525D01*
X445125Y114073D02*
Y116873D01*
X457505Y87913D02*
X460305D01*
X458905Y86513D02*
Y89313D01*
X457505Y32795D02*
X460305D01*
X458905Y31395D02*
Y34195D01*
X429946Y363504D02*
X432746D01*
X431346Y362104D02*
Y364904D01*
X416166Y170591D02*
X418966D01*
X417566Y169191D02*
Y171991D01*
X429946Y87913D02*
X432746D01*
X431346Y86513D02*
Y89313D01*
X429946Y32795D02*
X432746D01*
X431346Y31395D02*
Y34195D01*
X402387Y363504D02*
X405187D01*
X403787Y362104D02*
Y364904D01*
X388607Y225709D02*
X391407D01*
X390007Y224309D02*
Y227109D01*
X388607Y170591D02*
X391407D01*
X390007Y169191D02*
Y171991D01*
X388607Y115472D02*
X391407D01*
X390007Y114073D02*
Y116873D01*
X402387Y32795D02*
X405187D01*
X403787Y31395D02*
Y34195D01*
X374827Y363504D02*
X377627D01*
X376227Y362104D02*
Y364904D01*
X374827Y143032D02*
X377627D01*
X376227Y141631D02*
Y144431D01*
X361048Y115472D02*
X363848D01*
X362448Y114073D02*
Y116873D01*
X333489Y225709D02*
X336289D01*
X334889Y224309D02*
Y227109D01*
X333489Y170591D02*
X336289D01*
X334889Y169191D02*
Y171991D01*
X347268Y32795D02*
X350068D01*
X348668Y31395D02*
Y34195D01*
X319709Y363504D02*
X322509D01*
X321109Y362104D02*
Y364904D01*
X319709Y198150D02*
X322509D01*
X321109Y196750D02*
Y199550D01*
X319709Y143032D02*
X322509D01*
X321109Y141631D02*
Y144431D01*
X319709Y32795D02*
X322509D01*
X321109Y31395D02*
Y34195D01*
X292150Y363504D02*
X294950D01*
X293550Y362104D02*
Y364904D01*
X278371Y280827D02*
X281171D01*
X279771Y279427D02*
Y282227D01*
X292150Y253268D02*
X294950D01*
X293550Y251868D02*
Y254668D01*
X292150Y198150D02*
X294950D01*
X293550Y196750D02*
Y199550D01*
X278371Y60354D02*
X281171D01*
X279771Y58954D02*
Y61754D01*
X264591Y363504D02*
X267391D01*
X265991Y362104D02*
Y364904D01*
X250812Y280827D02*
X253612D01*
X252212Y279427D02*
Y282227D01*
X264591Y253268D02*
X267391D01*
X265991Y251868D02*
Y254668D01*
X264591Y87913D02*
X267391D01*
X265991Y86513D02*
Y89313D01*
X250812Y60354D02*
X253612D01*
X252212Y58954D02*
Y61754D01*
X264591Y32795D02*
X267391D01*
X265991Y31395D02*
Y34195D01*
X237032Y363504D02*
X239832D01*
X238432Y362104D02*
Y364904D01*
X223253Y335945D02*
X226053D01*
X224653Y334545D02*
Y337345D01*
X237032Y198150D02*
X239832D01*
X238432Y196750D02*
Y199550D01*
X223253Y170591D02*
X226053D01*
X224653Y169191D02*
Y171991D01*
X209473Y363504D02*
X212273D01*
X210873Y362104D02*
Y364904D01*
X195694Y225709D02*
X198494D01*
X197093Y224309D02*
Y227109D01*
X209473Y198150D02*
X212273D01*
X210873Y196750D02*
Y199550D01*
X195694Y170591D02*
X198494D01*
X197093Y169191D02*
Y171991D01*
X209473Y143032D02*
X212273D01*
X210873Y141631D02*
Y144431D01*
X195694Y60354D02*
X198494D01*
X197093Y58954D02*
Y61754D01*
X168134Y335945D02*
X170934D01*
X169534Y334545D02*
Y337345D01*
X181914Y253268D02*
X184714D01*
X183314Y251868D02*
Y254668D01*
X168134Y225709D02*
X170934D01*
X169534Y224309D02*
Y227109D01*
X181914Y198150D02*
X184714D01*
X183314Y196750D02*
Y199550D01*
X181914Y87913D02*
X184714D01*
X183314Y86513D02*
Y89313D01*
X181914Y32795D02*
X184714D01*
X183314Y31395D02*
Y34195D01*
X168134Y5236D02*
X170934D01*
X169534Y3836D02*
Y6636D01*
X154355Y363504D02*
X157155D01*
X155755Y362104D02*
Y364904D01*
X140575Y335945D02*
X143375D01*
X141975Y334545D02*
Y337345D01*
X140575Y280827D02*
X143375D01*
X141975Y279427D02*
Y282227D01*
X140575Y225709D02*
X143375D01*
X141975Y224309D02*
Y227109D01*
X140575Y170591D02*
X143375D01*
X141975Y169191D02*
Y171991D01*
X154355Y143032D02*
X157155D01*
X155755Y141631D02*
Y144431D01*
X154355Y87913D02*
X157155D01*
X155755Y86513D02*
Y89313D01*
X154355Y32795D02*
X157155D01*
X155755Y31395D02*
Y34195D01*
X113016Y280827D02*
X115816D01*
X114416Y279427D02*
Y282227D01*
X126796Y253268D02*
X129596D01*
X128196Y251868D02*
Y254668D01*
X126796Y198150D02*
X129596D01*
X128196Y196750D02*
Y199550D01*
X126796Y87913D02*
X129596D01*
X128196Y86513D02*
Y89313D01*
X113016Y60354D02*
X115816D01*
X114416Y58954D02*
Y61754D01*
X85457Y280827D02*
X88257D01*
X86857Y279427D02*
Y282227D01*
X85457Y225709D02*
X88257D01*
X86857Y224309D02*
Y227109D01*
X85457Y115472D02*
X88257D01*
X86857Y114073D02*
Y116873D01*
X99237Y87913D02*
X102037D01*
X100637Y86513D02*
Y89313D01*
X85457Y60354D02*
X88257D01*
X86857Y58954D02*
Y61754D01*
X57898Y335945D02*
X60698D01*
X59298Y334545D02*
Y337345D01*
X57898Y280827D02*
X60698D01*
X59298Y279427D02*
Y282227D01*
X71678Y253268D02*
X74478D01*
X73078Y251868D02*
Y254668D01*
X57898Y225709D02*
X60698D01*
X59298Y224309D02*
Y227109D01*
X57898Y115472D02*
X60698D01*
X59298Y114073D02*
Y116873D01*
X71678Y87913D02*
X74478D01*
X73078Y86513D02*
Y89313D01*
X57898Y60354D02*
X60698D01*
X59298Y58954D02*
Y61754D01*
X44119Y308386D02*
X46919D01*
X45519Y306986D02*
Y309786D01*
X30339Y280827D02*
X33139D01*
X31739Y279427D02*
Y282227D01*
X30339Y225709D02*
X33139D01*
X31739Y224309D02*
Y227109D01*
X30339Y170591D02*
X33139D01*
X31739Y169191D02*
Y171991D01*
X44119Y143032D02*
X46919D01*
X45519Y141631D02*
Y144431D01*
X30339Y115472D02*
X33139D01*
X31739Y114073D02*
Y116873D01*
X44119Y87913D02*
X46919D01*
X45519Y86513D02*
Y89313D01*
X16560Y308386D02*
X19360D01*
X17960Y306986D02*
Y309786D01*
X2780Y280827D02*
X5580D01*
X4180Y279427D02*
Y282227D01*
X16560Y253268D02*
X19360D01*
X17960Y251868D02*
Y254668D01*
X2780Y225709D02*
X5580D01*
X4180Y224309D02*
Y227109D01*
X16560Y198150D02*
X19360D01*
X17960Y196750D02*
Y199550D01*
X2780Y170591D02*
X5580D01*
X4180Y169191D02*
Y171991D01*
X16560Y143032D02*
X19360D01*
X17960Y141631D02*
Y144431D01*
X2780Y115472D02*
X5580D01*
X4180Y114073D02*
Y116873D01*
X16560Y87913D02*
X19360D01*
X17960Y86513D02*
Y89313D01*
X2780Y60354D02*
X5580D01*
X4180Y58954D02*
Y61754D01*
X436410Y207500D02*
X437591D01*
X437000Y206909D02*
Y208090D01*
X433410Y207500D02*
X434590D01*
X434000Y206909D02*
Y208090D01*
X134515Y116500D02*
X136090D01*
X135302Y115713D02*
Y117287D01*
X181713Y107000D02*
X183287D01*
X182500Y106213D02*
Y107787D01*
X181713Y116000D02*
X183287D01*
X182500Y115213D02*
Y116787D01*
X134515Y132559D02*
X136090D01*
X135302Y131771D02*
Y133346D01*
X581713Y68500D02*
X583287D01*
X582500Y67713D02*
Y69287D01*
X570213Y57000D02*
X571787D01*
X571000Y56213D02*
Y57787D01*
X566213Y160000D02*
X567787D01*
X567000Y159213D02*
Y160787D01*
X576213Y146000D02*
X577787D01*
X577000Y145213D02*
Y146787D01*
M02*
