M48
;Layer_Color=9474304
;FILE_FORMAT=2:5
INCH,TZ
;TYPE=PLATED
T1F00S00C0.01181
T2F00S00C0.01575
T3F00S00C0.02800
T4F00S00C0.03150
T5F00S00C0.03400
T6F00S00C0.03543
T7F00S00C0.05118
T8F00S00C0.12992
T9F00S00C0.15748
%
T01
X604000Y116000
Y118500
Y121000
X437000Y207500
X434000
X431000
T02
X571000Y57000
X582500Y68500
X577000Y146000
X567000Y160000
X182500Y116000
Y107000
X135302Y116500
Y132559
T03
X169534Y5236
X183314Y32795
X155755
X265991
X321109
X348668
X403787
X431346
X458905
X514023
X541582
X569141
X527802Y5236
X500243
X610479Y60354
X638038
X651818Y87913
X679377
X693157Y115472
X665597
X679377Y143032
X693157Y170591
X638038
X610479
X624259Y87913
X693157Y60354
X569141Y87913
X541582
X555361Y115472
X582920
X596700Y143032
X582920Y170591
X555361
X527802
X500243
X472684
Y115472
X500243
X527802
X541582Y143032
X514023Y198150
X596700
X458905Y87913
X431346
X445125Y115472
X390007
X362448
X376227Y143032
X390007Y170591
X417566
X334889
X321109Y198150
X293550
X321109Y143032
X265991Y87913
X279771Y60354
X252212
X197093
X183314Y87913
X155755
Y143032
X141975Y170591
X197093
X224653
X238432Y198150
X210873
X183314
X210873Y143032
X113000Y166500
X92750
X72500
X64000Y181000
X81750
X99500
X128196Y198150
X73500Y205500
X17960Y198150
X31739Y170591
X4180
X17960Y143032
X45519
X59298Y115472
X86857
X100637Y87913
X128196
X114416Y60354
X86857
X59298
X73078Y87913
X45519
X17960
X31739Y115472
X4180
Y60354
Y225709
X31739
X59298
X86857
X73078Y253268
X86857Y280827
X114416
X128196Y253268
X59298Y280827
X31739
X4180
X17960Y308386
X45519
X59298Y335945
X17960Y253268
X141975Y280827
Y335945
X169534
X155755Y363504
X210873
X238432
X265991
X224653Y335945
X252212Y280827
X279771
X265991Y253268
X183314
X197093Y225709
X169534
X141975
X293550Y253268
X334889Y225709
X390007
X440000Y294000
X431346Y363504
X403787
X376227
X321109
X293550
X458905
X458500Y340500
X473750
X489000
X495000Y330500
X471000Y321000
X458500Y320500
X458905Y308386
X450000Y301500
X499500Y267000
X512500Y279000
X555361Y280827
X569141Y308386
X582920Y335945
X569141Y253268
X582920Y225709
X555361
X486464Y253268
Y363504
X514023
X610479Y280827
X638038
X651818Y253268
X679377
X693157Y280827
X679377Y308386
X693157Y335945
Y225709
X638038
X610479
T04
X332247Y266500
X347995
X367621Y355500
X383369
T05
X627500Y303000
Y313000
T06
X205000Y21000
X215000
X225000
X235000
X245000
X299405Y31501
Y41501
X321000Y17874
X331000
X341000
X351000
X361000
X371000
X381000
X391000
X401000
X411000
X466500Y21000
X476500
X486500
X496500
X506500
X411000Y85000
X401000
X391000
X381000
X371000
X361000
X351000
X341000
X331000
X321000
X299405Y71501
Y61501
Y51501
X305819Y115000
Y125000
Y135000
Y145000
Y155000
Y165000
Y175000
Y185000
Y195000
Y205000
X405815
Y195000
Y185000
Y175000
Y165000
Y155000
Y145000
Y135000
Y125000
Y115000
Y215000
Y225000
Y235000
Y245000
Y255000
Y265000
Y275000
Y285000
Y295000
Y305000
X371121Y245000
X361121
X351121
X341121
X305819
Y255000
Y265000
Y275000
Y285000
Y295000
Y305000
Y235000
Y225000
Y215000
T07
X333731Y355000
X347511
T08
X674500Y52000
X37000
Y336500
X315495Y337500
X396121
X674500Y336500
X535500Y372000
X176000
T09
X453217Y136000
X520000
X259000
X192000
M30
