G04*
G04 #@! TF.GenerationSoftware,Altium Limited,Altium Designer,23.0.1 (38)*
G04*
G04 Layer_Color=65535*
%FSLAX25Y25*%
%MOIN*%
G70*
G04*
G04 #@! TF.SameCoordinates,CBCD5F51-024F-4456-99E9-F8A3691CA7AB*
G04*
G04*
G04 #@! TF.FilePolarity,Positive*
G04*
G01*
G75*
%ADD10C,0.00600*%
%ADD11C,0.01000*%
%ADD12C,0.00700*%
%ADD13C,0.00787*%
%ADD14C,0.00400*%
%ADD15C,0.00500*%
%ADD16R,0.05000X0.10000*%
G36*
X356164Y124327D02*
X355960D01*
Y124123D01*
X355552D01*
Y124327D01*
X355756D01*
Y124531D01*
X356164D01*
Y124327D01*
D02*
G37*
G36*
X357796Y124531D02*
X358000D01*
Y124327D01*
X358408D01*
Y123919D01*
X358612D01*
Y123715D01*
X358816D01*
Y123103D01*
X359020D01*
Y121879D01*
X358816D01*
Y122287D01*
Y122491D01*
Y123103D01*
X358612D01*
Y123307D01*
Y123511D01*
X358408D01*
Y123919D01*
X358204D01*
Y124123D01*
X358000D01*
Y124327D01*
X357592D01*
Y124531D01*
X356164D01*
Y124735D01*
X357796D01*
Y124531D01*
D02*
G37*
G36*
X357184Y139018D02*
X357388D01*
Y138814D01*
X357592D01*
Y138610D01*
X357796D01*
Y138202D01*
X358000D01*
Y137998D01*
X358204D01*
Y137590D01*
X358408D01*
Y137182D01*
X358612D01*
Y136978D01*
X358816D01*
Y136569D01*
X359020D01*
Y136365D01*
X359224D01*
Y135957D01*
X359428D01*
Y135549D01*
X359632D01*
Y135141D01*
X359836D01*
Y134937D01*
X360040D01*
Y134529D01*
X360244D01*
Y134121D01*
X360448D01*
Y133713D01*
X360652D01*
Y133101D01*
X360857D01*
Y132693D01*
X361061D01*
Y132285D01*
X361265D01*
Y131673D01*
X361469D01*
Y131265D01*
X361673D01*
Y130652D01*
X361877D01*
Y130040D01*
X362081D01*
Y129224D01*
X362285D01*
Y128204D01*
X362489D01*
Y124123D01*
X362285D01*
Y123511D01*
X362081D01*
Y122899D01*
X361877D01*
Y122491D01*
X361673D01*
Y122083D01*
X361469D01*
Y121675D01*
X361265D01*
Y121471D01*
X361061D01*
Y123511D01*
X360857D01*
Y124123D01*
X360652D01*
Y124735D01*
X360448D01*
Y125144D01*
X360244D01*
Y125347D01*
X360040D01*
Y125552D01*
X359836D01*
Y125960D01*
X359428D01*
Y126164D01*
X359224D01*
Y126368D01*
X359020D01*
Y126572D01*
X358612D01*
Y126776D01*
X358204D01*
Y126980D01*
X357184D01*
Y127184D01*
X356572D01*
Y126980D01*
X355552D01*
Y126776D01*
X355143D01*
Y126572D01*
X354735D01*
Y126368D01*
X354531D01*
Y126164D01*
X354327D01*
Y125960D01*
X354123D01*
Y125756D01*
X353919D01*
Y125552D01*
X353715D01*
Y125144D01*
X353511D01*
Y124940D01*
X353307D01*
Y124531D01*
X353103D01*
Y123919D01*
X352899D01*
Y123307D01*
Y123103D01*
Y121267D01*
X353103D01*
Y121063D01*
X352899D01*
Y121267D01*
X352695D01*
Y121675D01*
X352491D01*
Y121879D01*
X352287D01*
Y122287D01*
X352083D01*
Y122695D01*
X351879D01*
Y123103D01*
X351675D01*
Y123715D01*
X351471D01*
Y124940D01*
X351267D01*
Y127388D01*
X351471D01*
Y128612D01*
X351675D01*
Y129632D01*
X351879D01*
Y130244D01*
X352083D01*
Y130857D01*
X352287D01*
Y131469D01*
X352491D01*
Y132081D01*
X352695D01*
Y132489D01*
X352899D01*
Y132897D01*
X353103D01*
Y133509D01*
X353307D01*
Y133917D01*
X353511D01*
Y134325D01*
X353715D01*
Y134529D01*
X353919D01*
Y134937D01*
X354123D01*
Y135345D01*
X354327D01*
Y135753D01*
X354531D01*
Y136161D01*
X354735D01*
Y136365D01*
X354940D01*
Y136774D01*
X355143D01*
Y137182D01*
X355347D01*
Y137386D01*
X355552D01*
Y137794D01*
X355756D01*
Y137998D01*
X355960D01*
Y138406D01*
X356164D01*
Y138610D01*
X356368D01*
Y139018D01*
X356572D01*
Y139222D01*
X356776D01*
Y139426D01*
X357184D01*
Y139018D01*
D02*
G37*
G36*
X357388Y123511D02*
X357592D01*
Y123307D01*
X357796D01*
Y122899D01*
X358000D01*
Y122083D01*
X357796D01*
Y121675D01*
X357592D01*
Y121471D01*
X356368D01*
Y121675D01*
X356164D01*
Y121879D01*
X355960D01*
Y123103D01*
X356164D01*
Y123511D01*
X356572D01*
Y123715D01*
X357388D01*
Y123511D01*
D02*
G37*
G36*
X361061Y121267D02*
Y121063D01*
X360857D01*
Y121471D01*
X361061D01*
Y121267D01*
D02*
G37*
G36*
X358816D02*
X358612D01*
Y121063D01*
X358408D01*
Y121471D01*
X358612D01*
Y121879D01*
X358816D01*
Y121267D01*
D02*
G37*
G36*
X358408Y120859D02*
X358204D01*
Y121063D01*
X358408D01*
Y120859D01*
D02*
G37*
G36*
X355552Y123715D02*
X355347D01*
Y123307D01*
X355143D01*
Y121675D01*
X355347D01*
Y121267D01*
X355552D01*
Y120859D01*
X355347D01*
Y121063D01*
X355143D01*
Y121267D01*
Y121675D01*
X354940D01*
Y123307D01*
Y123511D01*
X355143D01*
Y123919D01*
X355347D01*
Y124123D01*
X355552D01*
Y123715D01*
D02*
G37*
G36*
X357388Y125960D02*
X357592D01*
Y125756D01*
X358000D01*
Y125960D01*
X358204D01*
Y126164D01*
X358408D01*
Y125960D01*
X358816D01*
Y125756D01*
X359020D01*
Y124735D01*
X359428D01*
Y124940D01*
X359632D01*
Y124735D01*
X359836D01*
Y124531D01*
X360040D01*
Y123715D01*
X359836D01*
Y123103D01*
X360448D01*
Y122083D01*
X360244D01*
Y121879D01*
X359836D01*
Y121267D01*
X360040D01*
Y120655D01*
X359836D01*
Y121063D01*
X359632D01*
Y121267D01*
X359428D01*
Y121471D01*
X359632D01*
Y122083D01*
X360040D01*
Y122287D01*
X360244D01*
Y122899D01*
X359632D01*
Y123511D01*
X359428D01*
Y123715D01*
X359632D01*
Y123919D01*
X359836D01*
Y124327D01*
X359632D01*
Y124531D01*
X358816D01*
Y124940D01*
X358612D01*
Y125144D01*
X358816D01*
Y125552D01*
X358612D01*
Y125756D01*
X358204D01*
Y125552D01*
X358000D01*
Y125347D01*
X357796D01*
Y125552D01*
X357388D01*
Y125756D01*
X357184D01*
Y126164D01*
X356572D01*
Y125552D01*
X356164D01*
Y125347D01*
X355960D01*
Y125552D01*
X355756D01*
Y125756D01*
X355347D01*
Y125552D01*
X355143D01*
Y124735D01*
X354940D01*
Y124531D01*
X354123D01*
Y124123D01*
X353919D01*
Y123919D01*
X354123D01*
Y123715D01*
X354327D01*
Y123103D01*
X354123D01*
Y122899D01*
X353715D01*
Y122083D01*
X354123D01*
Y121879D01*
X354327D01*
Y121267D01*
X354123D01*
Y121063D01*
X353919D01*
Y120859D01*
X354123D01*
Y120451D01*
X354940D01*
Y120247D01*
X354327D01*
Y120043D01*
X354123D01*
Y120247D01*
Y120451D01*
X353919D01*
Y120859D01*
X353715D01*
Y121267D01*
X353919D01*
Y121471D01*
X354123D01*
Y121675D01*
X353919D01*
Y121879D01*
X353511D01*
Y123103D01*
X353919D01*
Y123307D01*
X354123D01*
Y123715D01*
X353919D01*
Y123919D01*
X353715D01*
Y124327D01*
X353919D01*
Y124735D01*
X354123D01*
Y124940D01*
X354327D01*
Y124735D01*
X354735D01*
Y124940D01*
X354940D01*
Y125347D01*
X354735D01*
Y125552D01*
X354940D01*
Y125756D01*
X355143D01*
Y125960D01*
X355552D01*
Y126164D01*
X355756D01*
Y125756D01*
X356368D01*
Y126368D01*
X357388D01*
Y125960D01*
D02*
G37*
G36*
X359836Y120247D02*
X359020D01*
Y120043D01*
X358816D01*
Y120247D01*
Y120451D01*
X359020D01*
Y120655D01*
X359224D01*
Y120451D01*
X359632D01*
Y120655D01*
X359836D01*
Y120247D01*
D02*
G37*
G36*
X376771Y103720D02*
X372487D01*
Y108821D01*
X367998D01*
Y103720D01*
X363509D01*
Y118818D01*
X367998D01*
Y113717D01*
X372487D01*
Y118818D01*
X376771D01*
Y103720D01*
D02*
G37*
G36*
X342901Y129836D02*
X343105D01*
Y129632D01*
X343309D01*
Y129428D01*
X343513D01*
Y129224D01*
X343718D01*
Y129020D01*
X343921D01*
Y128816D01*
X344126D01*
Y128612D01*
X344330D01*
Y128408D01*
X344534D01*
Y128204D01*
X344738D01*
Y128000D01*
X344942D01*
Y127796D01*
X345146D01*
Y127592D01*
X345350D01*
Y127388D01*
X345554D01*
Y127184D01*
X345758D01*
Y126980D01*
X345962D01*
Y126776D01*
X346166D01*
Y126572D01*
X346574D01*
Y126368D01*
X346778D01*
Y126164D01*
X346982D01*
Y125960D01*
X347186D01*
Y125756D01*
X347390D01*
Y125552D01*
X347594D01*
Y125347D01*
X347798D01*
Y125144D01*
X348002D01*
Y124940D01*
X348206D01*
Y124735D01*
X348614D01*
Y124531D01*
X348818D01*
Y124327D01*
X349022D01*
Y124123D01*
X349226D01*
Y123919D01*
X349430D01*
Y123715D01*
X349635D01*
Y123511D01*
X349839D01*
Y123307D01*
X350043D01*
Y123103D01*
X350247D01*
Y122899D01*
X350451D01*
Y122695D01*
X350655D01*
Y122491D01*
X350859D01*
Y122287D01*
X351063D01*
Y122083D01*
X351267D01*
Y121879D01*
X351471D01*
Y121675D01*
X351675D01*
Y121267D01*
X351879D01*
Y121063D01*
X352083D01*
Y120859D01*
X352287D01*
Y120655D01*
X352491D01*
Y120247D01*
X352695D01*
Y120043D01*
X352899D01*
Y119634D01*
X353103D01*
Y119430D01*
X353307D01*
Y119022D01*
X353511D01*
Y118818D01*
X350247D01*
Y107800D01*
X350043D01*
Y108004D01*
X349839D01*
Y108209D01*
X349635D01*
Y108413D01*
X349430D01*
Y108617D01*
X349226D01*
Y108821D01*
X348818D01*
Y109025D01*
X348614D01*
Y109229D01*
X348410D01*
Y109433D01*
X348206D01*
Y109637D01*
X348002D01*
Y109841D01*
X347798D01*
Y110045D01*
X347594D01*
Y110249D01*
X347390D01*
Y110453D01*
X347186D01*
Y110657D01*
X346982D01*
Y110861D01*
X346778D01*
Y111269D01*
X346574D01*
Y111473D01*
X346370D01*
Y111677D01*
X346166D01*
Y111881D01*
X345962D01*
Y112289D01*
X345758D01*
Y112493D01*
X345554D01*
Y112901D01*
X345350D01*
Y113105D01*
X345146D01*
Y113514D01*
X344942D01*
Y113717D01*
X344738D01*
Y114126D01*
X344534D01*
Y114534D01*
X344330D01*
Y114942D01*
X344126D01*
Y115350D01*
X343921D01*
Y115758D01*
X343718D01*
Y116370D01*
X343513D01*
Y116982D01*
X343309D01*
Y117390D01*
X343105D01*
Y118206D01*
X342901D01*
Y118818D01*
X342697D01*
Y119839D01*
X342493D01*
Y121063D01*
X342289D01*
Y123103D01*
X342085D01*
Y125756D01*
X342289D01*
Y128204D01*
X342493D01*
Y129632D01*
X342697D01*
Y130040D01*
X342901D01*
Y129836D01*
D02*
G37*
G36*
X359020Y108004D02*
X358816D01*
Y107596D01*
X358612D01*
Y107188D01*
X358408D01*
Y106984D01*
X358000D01*
Y106780D01*
X357796D01*
Y106576D01*
X356164D01*
Y106780D01*
X355756D01*
Y106984D01*
X355552D01*
Y107188D01*
X355347D01*
Y107392D01*
X355143D01*
Y107800D01*
X354940D01*
Y108209D01*
X354735D01*
Y113514D01*
Y113717D01*
Y118818D01*
X359020D01*
Y108004D01*
D02*
G37*
G36*
X338617Y115554D02*
X339433D01*
Y115350D01*
X340045D01*
Y115146D01*
X340453D01*
Y114942D01*
X340861D01*
Y114738D01*
X341269D01*
Y114534D01*
X341473D01*
Y114330D01*
X341881D01*
Y114126D01*
X342085D01*
Y113921D01*
X342289D01*
Y113717D01*
X342697D01*
Y113514D01*
X342901D01*
Y113309D01*
X343105D01*
Y113105D01*
X343309D01*
Y112901D01*
X343513D01*
Y112697D01*
X343718D01*
Y112493D01*
X343921D01*
Y112289D01*
X344126D01*
Y112085D01*
X344330D01*
Y111881D01*
X344534D01*
Y111677D01*
X344738D01*
Y111473D01*
X344942D01*
Y111269D01*
X345146D01*
Y111065D01*
X345350D01*
Y110861D01*
X345554D01*
Y110657D01*
X345758D01*
Y110249D01*
X345962D01*
Y110045D01*
X346166D01*
Y109841D01*
X346370D01*
Y109637D01*
X346574D01*
Y109433D01*
X346778D01*
Y109229D01*
X346982D01*
Y108821D01*
X347186D01*
Y108617D01*
X347390D01*
Y108413D01*
X347594D01*
Y108209D01*
X347798D01*
Y108004D01*
X348002D01*
Y107596D01*
X348206D01*
Y107392D01*
X348410D01*
Y107188D01*
X348614D01*
Y106984D01*
X348818D01*
Y106780D01*
X349022D01*
Y106576D01*
X349226D01*
Y106372D01*
X349430D01*
Y106168D01*
X349635D01*
Y105964D01*
X349839D01*
Y105760D01*
X350043D01*
Y105556D01*
X350247D01*
Y105352D01*
X350451D01*
Y105148D01*
X350655D01*
Y104944D01*
X351063D01*
Y104740D01*
X351267D01*
Y104536D01*
X351675D01*
Y104332D01*
X352083D01*
Y104128D01*
X352491D01*
Y103924D01*
X353103D01*
Y103720D01*
X354327D01*
Y103516D01*
X357592D01*
Y103720D01*
X358612D01*
Y103924D01*
X359836D01*
Y104128D01*
X362285D01*
Y103924D01*
X363101D01*
Y103516D01*
X362285D01*
Y103312D01*
X361673D01*
Y103108D01*
X361061D01*
Y102904D01*
X360652D01*
Y102700D01*
X360244D01*
Y102496D01*
X359836D01*
Y102292D01*
X359428D01*
Y102087D01*
X359224D01*
Y101883D01*
X358816D01*
Y101679D01*
X358408D01*
Y101475D01*
X358204D01*
Y101271D01*
X357796D01*
Y101067D01*
X357592D01*
Y100863D01*
X357184D01*
Y100659D01*
X356776D01*
Y100455D01*
X356368D01*
Y100251D01*
X355960D01*
Y100047D01*
X355347D01*
Y99843D01*
X354735D01*
Y99639D01*
X353919D01*
Y99435D01*
X352287D01*
Y99231D01*
X350247D01*
Y99435D01*
X348818D01*
Y99639D01*
X348002D01*
Y99843D01*
X347390D01*
Y100047D01*
X346982D01*
Y100251D01*
X346574D01*
Y100455D01*
X346166D01*
Y100659D01*
X345758D01*
Y100863D01*
X345554D01*
Y101067D01*
X345146D01*
Y101271D01*
X344942D01*
Y101475D01*
X344534D01*
Y101679D01*
X344330D01*
Y101883D01*
X344126D01*
Y102087D01*
X343921D01*
Y102292D01*
X343718D01*
Y102496D01*
X343513D01*
Y102700D01*
X343309D01*
Y102904D01*
X343105D01*
Y103108D01*
X342901D01*
Y103312D01*
X342697D01*
Y103516D01*
X342493D01*
Y103720D01*
X342289D01*
Y103924D01*
X342085D01*
Y104128D01*
X341881D01*
Y104536D01*
X341677D01*
Y104740D01*
X341473D01*
Y104944D01*
X341269D01*
Y105352D01*
X341065D01*
Y105556D01*
X340861D01*
Y105760D01*
X340657D01*
Y106168D01*
X340453D01*
Y106372D01*
X340249D01*
Y106780D01*
X340045D01*
Y106984D01*
X339841D01*
Y107392D01*
X339637D01*
Y107596D01*
X339433D01*
Y108004D01*
X339229D01*
Y108209D01*
X339025D01*
Y108617D01*
X338821D01*
Y108821D01*
X338617D01*
Y109229D01*
X338413D01*
Y109433D01*
X338209D01*
Y109841D01*
X338004D01*
Y110045D01*
X337801D01*
Y110453D01*
X337596D01*
Y110657D01*
X337392D01*
Y111065D01*
X337188D01*
Y111269D01*
X336984D01*
Y111473D01*
X336780D01*
Y111881D01*
X336576D01*
Y112085D01*
X336372D01*
Y112289D01*
X336168D01*
Y112697D01*
X335964D01*
Y112901D01*
X335760D01*
Y113105D01*
X335556D01*
Y113309D01*
X335352D01*
Y113514D01*
X335148D01*
Y113717D01*
X334944D01*
Y113921D01*
X334740D01*
Y114126D01*
X334536D01*
Y114330D01*
X334332D01*
Y114534D01*
X334128D01*
Y114738D01*
X333924D01*
Y115146D01*
X334536D01*
Y115350D01*
X335148D01*
Y115554D01*
X335964D01*
Y115758D01*
X338617D01*
Y115554D01*
D02*
G37*
G36*
X357960Y68864D02*
X358016D01*
Y68808D01*
X358072D01*
Y68752D01*
X358128D01*
Y68696D01*
X358185D01*
Y68640D01*
X358241D01*
Y68584D01*
X358297D01*
Y68528D01*
X358353D01*
Y68472D01*
X358409D01*
Y68415D01*
X358465D01*
Y68359D01*
X358521D01*
Y68303D01*
X358577D01*
Y68247D01*
X358633D01*
Y68191D01*
X358689D01*
Y68135D01*
X358746D01*
Y68079D01*
X358802D01*
Y68023D01*
X358858D01*
Y67967D01*
X358914D01*
Y67911D01*
X358970D01*
Y67854D01*
X359026D01*
Y67798D01*
X359082D01*
Y67742D01*
X359138D01*
Y67686D01*
X359194D01*
Y67630D01*
X359251D01*
Y67574D01*
X359307D01*
Y67518D01*
X359363D01*
Y67462D01*
X359419D01*
Y67406D01*
X359475D01*
Y67349D01*
X359531D01*
Y67293D01*
X359587D01*
Y67237D01*
X359643D01*
Y67181D01*
X359699D01*
Y67125D01*
X359756D01*
Y67069D01*
X359812D01*
Y67013D01*
X359868D01*
Y66957D01*
X359924D01*
Y66900D01*
X359980D01*
Y66844D01*
X360036D01*
Y66788D01*
X360092D01*
Y66732D01*
X360148D01*
Y66676D01*
X360204D01*
Y66620D01*
X360261D01*
Y66564D01*
X360317D01*
Y66508D01*
X360373D01*
Y66452D01*
X360429D01*
Y66396D01*
X360485D01*
Y66339D01*
X360541D01*
Y66283D01*
X360597D01*
Y66227D01*
X360653D01*
Y66171D01*
X360710D01*
Y66115D01*
X360766D01*
Y66059D01*
X360822D01*
Y66003D01*
X360878D01*
Y65947D01*
X360934D01*
Y65891D01*
X360990D01*
Y65834D01*
X361046D01*
Y65778D01*
X361102D01*
Y65722D01*
X361158D01*
Y65666D01*
X361214D01*
Y65610D01*
X361271D01*
Y65554D01*
X361327D01*
Y65498D01*
X361383D01*
Y65442D01*
X361439D01*
Y65386D01*
X361495D01*
Y65329D01*
X361551D01*
Y65273D01*
X361607D01*
Y65217D01*
X361663D01*
Y65161D01*
X361719D01*
Y65105D01*
X361776D01*
Y65049D01*
X361832D01*
Y64993D01*
X361888D01*
Y64937D01*
X361944D01*
Y64881D01*
X362000D01*
Y64824D01*
X362056D01*
Y64768D01*
X362112D01*
Y64712D01*
X362168D01*
Y64656D01*
X362224D01*
Y64600D01*
X362281D01*
Y64544D01*
X362337D01*
Y64488D01*
X362393D01*
Y64432D01*
X362449D01*
Y64376D01*
X362505D01*
Y64319D01*
X362561D01*
Y64263D01*
X362617D01*
Y64207D01*
X362673D01*
Y64151D01*
X362729D01*
Y64095D01*
X362786D01*
Y64039D01*
X362842D01*
Y63983D01*
X362898D01*
Y63927D01*
X362954D01*
Y63871D01*
X363010D01*
Y63814D01*
X363066D01*
Y63758D01*
X363122D01*
Y63702D01*
X363178D01*
Y63646D01*
X363234D01*
Y63590D01*
X363291D01*
Y63534D01*
X363347D01*
Y63478D01*
X363403D01*
Y63422D01*
X363459D01*
Y63366D01*
X363515D01*
Y63309D01*
X363571D01*
Y63253D01*
X363627D01*
Y63197D01*
X363683D01*
Y63141D01*
X363739D01*
Y63085D01*
X363796D01*
Y63029D01*
X363852D01*
Y62973D01*
X363908D01*
Y62917D01*
X363964D01*
Y62861D01*
X364020D01*
Y62804D01*
X364076D01*
Y62748D01*
X364132D01*
Y62692D01*
X364188D01*
Y62636D01*
X364245D01*
Y62580D01*
X364301D01*
Y62524D01*
X364357D01*
Y62468D01*
X364413D01*
Y62412D01*
X364469D01*
Y62356D01*
X364525D01*
Y62299D01*
X364581D01*
Y62243D01*
X364637D01*
Y62187D01*
X364693D01*
Y62131D01*
X364749D01*
Y62075D01*
X364806D01*
Y62019D01*
X364862D01*
Y61963D01*
X364918D01*
Y61907D01*
X364974D01*
Y61851D01*
X365030D01*
Y61794D01*
X365086D01*
Y61738D01*
X365142D01*
Y61682D01*
X365198D01*
Y61626D01*
X365254D01*
Y61570D01*
X365311D01*
Y61514D01*
X365367D01*
Y61458D01*
X365423D01*
Y61402D01*
X365479D01*
Y61346D01*
X365535D01*
Y61289D01*
X365591D01*
Y61233D01*
X365647D01*
Y61177D01*
X365703D01*
Y61121D01*
X365759D01*
Y61065D01*
X365816D01*
Y61009D01*
X365872D01*
Y60953D01*
X365928D01*
Y60897D01*
X365984D01*
Y60840D01*
X366040D01*
Y60784D01*
X366096D01*
Y60728D01*
X366152D01*
Y60672D01*
X366208D01*
Y60616D01*
X366264D01*
Y60560D01*
X366321D01*
Y60504D01*
X366377D01*
Y60448D01*
X366433D01*
Y60392D01*
X366489D01*
Y60336D01*
X366545D01*
Y60279D01*
X366601D01*
Y60223D01*
X366657D01*
Y60167D01*
X366713D01*
Y60111D01*
X366770D01*
Y60055D01*
X366826D01*
Y59999D01*
X366882D01*
Y59943D01*
X366938D01*
Y59887D01*
X366994D01*
Y59831D01*
X367050D01*
Y59774D01*
X367106D01*
Y59718D01*
X367162D01*
Y59662D01*
X367218D01*
Y59606D01*
X367274D01*
Y59550D01*
X367331D01*
Y59494D01*
X367387D01*
Y59438D01*
X367443D01*
Y59382D01*
X367499D01*
Y59325D01*
X367555D01*
Y59269D01*
X367611D01*
Y59213D01*
X367667D01*
Y59157D01*
X367723D01*
Y59101D01*
X367779D01*
Y59045D01*
X367836D01*
Y58989D01*
X367892D01*
Y58933D01*
X367948D01*
Y58877D01*
X368004D01*
Y58821D01*
X368060D01*
Y58764D01*
X368116D01*
Y58708D01*
X368172D01*
Y58652D01*
X368228D01*
Y58596D01*
X368285D01*
Y58540D01*
X368341D01*
Y58484D01*
X368397D01*
Y58428D01*
X368453D01*
Y58372D01*
X368509D01*
Y58315D01*
X368565D01*
Y58259D01*
X368621D01*
Y58203D01*
X368677D01*
Y58147D01*
X368733D01*
Y58091D01*
X368789D01*
Y58035D01*
X368846D01*
Y57979D01*
X368902D01*
Y57923D01*
X368958D01*
Y57867D01*
X369014D01*
Y57811D01*
X369070D01*
Y57754D01*
X369126D01*
Y57698D01*
X369182D01*
Y57642D01*
X369238D01*
Y57586D01*
X369295D01*
Y57530D01*
X369351D01*
Y57474D01*
X369407D01*
Y57418D01*
X369463D01*
Y57362D01*
X369519D01*
Y57306D01*
X369575D01*
Y57249D01*
X369631D01*
Y57193D01*
X369687D01*
Y57137D01*
X369743D01*
Y57081D01*
X369799D01*
Y57025D01*
X369856D01*
Y56969D01*
X369912D01*
Y56913D01*
X369968D01*
Y56857D01*
X370024D01*
Y56801D01*
X370080D01*
Y56744D01*
X370136D01*
Y56688D01*
X370192D01*
Y56632D01*
X370248D01*
Y56576D01*
X370304D01*
Y56520D01*
X370361D01*
Y56464D01*
X370417D01*
Y56408D01*
X370473D01*
Y56352D01*
X370529D01*
Y56296D01*
X370585D01*
Y56239D01*
X370641D01*
Y56183D01*
X370697D01*
Y56127D01*
X370753D01*
Y56071D01*
X370810D01*
Y56015D01*
X370866D01*
Y55959D01*
X370922D01*
Y55903D01*
X370978D01*
Y55847D01*
X371034D01*
Y55791D01*
X371090D01*
Y55734D01*
X371146D01*
Y55678D01*
X371202D01*
Y55622D01*
X371258D01*
Y55566D01*
X371314D01*
Y55510D01*
X371371D01*
Y55454D01*
X371427D01*
Y55398D01*
X371483D01*
Y55342D01*
X371539D01*
Y55286D01*
X371595D01*
Y55229D01*
X371651D01*
Y55173D01*
X371707D01*
Y55117D01*
X371763D01*
Y55061D01*
X371819D01*
Y55005D01*
X371876D01*
Y54949D01*
X371932D01*
Y54893D01*
X371988D01*
Y54837D01*
X372044D01*
Y54781D01*
X372100D01*
Y54724D01*
X372156D01*
Y54668D01*
X372212D01*
Y54612D01*
X372268D01*
Y54444D01*
X372212D01*
Y54388D01*
X372156D01*
Y54332D01*
X372100D01*
Y54276D01*
X372044D01*
Y54219D01*
X371988D01*
Y54163D01*
X371932D01*
Y54107D01*
X371876D01*
Y54051D01*
X371819D01*
Y53995D01*
X371763D01*
Y53939D01*
X371707D01*
Y53883D01*
X371651D01*
Y53827D01*
X371595D01*
Y53771D01*
X371539D01*
Y53714D01*
X371483D01*
Y53658D01*
X371427D01*
Y53602D01*
X371371D01*
Y53546D01*
X371314D01*
Y53490D01*
X371258D01*
Y53434D01*
X371202D01*
Y53378D01*
X371146D01*
Y53322D01*
X371090D01*
Y53266D01*
X371034D01*
Y53209D01*
X370978D01*
Y53153D01*
X370922D01*
Y53097D01*
X370866D01*
Y53041D01*
X370810D01*
Y52985D01*
X370753D01*
Y52929D01*
X370697D01*
Y52873D01*
X370641D01*
Y52817D01*
X370585D01*
Y52761D01*
X370529D01*
Y52704D01*
X370473D01*
Y52648D01*
X370417D01*
Y52592D01*
X370361D01*
Y52536D01*
X370304D01*
Y52480D01*
X370248D01*
Y52424D01*
X370192D01*
Y52368D01*
X370136D01*
Y52312D01*
X370080D01*
Y52256D01*
X370024D01*
Y52199D01*
X369968D01*
Y52143D01*
X369912D01*
Y52087D01*
X369856D01*
Y52031D01*
X369799D01*
Y51975D01*
X369743D01*
Y51919D01*
X369687D01*
Y51863D01*
X369631D01*
Y51807D01*
X369575D01*
Y51750D01*
X369519D01*
Y51694D01*
X369463D01*
Y51638D01*
X369407D01*
Y51582D01*
X369351D01*
Y51526D01*
X369295D01*
Y51470D01*
X369238D01*
Y51414D01*
X369182D01*
Y51358D01*
X369126D01*
Y51302D01*
X369070D01*
Y51246D01*
X369014D01*
Y51189D01*
X368958D01*
Y51133D01*
X368902D01*
Y51077D01*
X368846D01*
Y51021D01*
X368789D01*
Y50965D01*
X368733D01*
Y50909D01*
X368677D01*
Y50853D01*
X368621D01*
Y50797D01*
X368565D01*
Y50741D01*
X368509D01*
Y50684D01*
X368453D01*
Y50628D01*
X368397D01*
Y50572D01*
X368341D01*
Y50516D01*
X368285D01*
Y50460D01*
X368228D01*
Y50404D01*
X368172D01*
Y50348D01*
X368116D01*
Y50292D01*
X368060D01*
Y50236D01*
X368004D01*
Y50179D01*
X367948D01*
Y50123D01*
X367892D01*
Y50067D01*
X367836D01*
Y50011D01*
X367779D01*
Y49955D01*
X367723D01*
Y49899D01*
X367667D01*
Y49843D01*
X367611D01*
Y49787D01*
X367555D01*
Y49731D01*
X367499D01*
Y49674D01*
X367443D01*
Y49618D01*
X367387D01*
Y49562D01*
X367331D01*
Y49506D01*
X367274D01*
Y49450D01*
X367218D01*
Y49394D01*
X367162D01*
Y49338D01*
X367106D01*
Y49282D01*
X367050D01*
Y49226D01*
X366994D01*
Y49169D01*
X366938D01*
Y49113D01*
X366882D01*
Y49057D01*
X366826D01*
Y49001D01*
X366770D01*
Y48945D01*
X366713D01*
Y48889D01*
X366657D01*
Y48833D01*
X366601D01*
Y48777D01*
X366545D01*
Y48720D01*
X366489D01*
Y48664D01*
X366433D01*
Y48608D01*
X366377D01*
Y48552D01*
X366321D01*
Y48496D01*
X366264D01*
Y48440D01*
X366208D01*
Y48384D01*
X366152D01*
Y48328D01*
X366096D01*
Y48272D01*
X366040D01*
Y48216D01*
X365984D01*
Y48159D01*
X365928D01*
Y48103D01*
X365872D01*
Y48047D01*
X365816D01*
Y47991D01*
X365759D01*
Y47935D01*
X365703D01*
Y47879D01*
X365647D01*
Y47823D01*
X365591D01*
Y47767D01*
X365535D01*
Y47711D01*
X365479D01*
Y47654D01*
X365423D01*
Y47598D01*
X365367D01*
Y47542D01*
X365311D01*
Y47486D01*
X365254D01*
Y47430D01*
X365198D01*
Y47374D01*
X365142D01*
Y47318D01*
X365086D01*
Y47262D01*
X365030D01*
Y47205D01*
X364974D01*
Y47149D01*
X364918D01*
Y47093D01*
X364862D01*
Y47037D01*
X364806D01*
Y46981D01*
X364749D01*
Y46925D01*
X364693D01*
Y46869D01*
X364637D01*
Y46813D01*
X364581D01*
Y46757D01*
X364525D01*
Y46701D01*
X364469D01*
Y46644D01*
X364413D01*
Y46588D01*
X364357D01*
Y46532D01*
X364301D01*
Y46476D01*
X364245D01*
Y46420D01*
X364188D01*
Y46364D01*
X364132D01*
Y46308D01*
X364076D01*
Y46252D01*
X364020D01*
Y46196D01*
X363964D01*
Y46139D01*
X363908D01*
Y46083D01*
X363852D01*
Y46027D01*
X363796D01*
Y45971D01*
X363739D01*
Y45915D01*
X363683D01*
Y45859D01*
X363627D01*
Y45803D01*
X363571D01*
Y45747D01*
X363515D01*
Y45691D01*
X363459D01*
Y45634D01*
X363403D01*
Y45578D01*
X363347D01*
Y45522D01*
X363291D01*
Y45466D01*
X363234D01*
Y45410D01*
X363178D01*
Y45354D01*
X363122D01*
Y45298D01*
X363066D01*
Y45242D01*
X363010D01*
Y45186D01*
X362954D01*
Y45129D01*
X362898D01*
Y45073D01*
X362842D01*
Y45017D01*
X362786D01*
Y44961D01*
X362729D01*
Y44905D01*
X362673D01*
Y44849D01*
X362617D01*
Y44793D01*
X362561D01*
Y44737D01*
X362505D01*
Y44681D01*
X362449D01*
Y44624D01*
X362393D01*
Y44568D01*
X362337D01*
Y44512D01*
X362281D01*
Y44456D01*
X362224D01*
Y44400D01*
X362168D01*
Y44344D01*
X362112D01*
Y44288D01*
X362056D01*
Y44232D01*
X362000D01*
Y44175D01*
X361944D01*
Y44119D01*
X361888D01*
Y44063D01*
X361832D01*
Y44007D01*
X361776D01*
Y43951D01*
X361719D01*
Y43895D01*
X361663D01*
Y43839D01*
X361607D01*
Y43783D01*
X361551D01*
Y43727D01*
X361495D01*
Y43670D01*
X361439D01*
Y43614D01*
X361383D01*
Y43558D01*
X361327D01*
Y43502D01*
X361271D01*
Y43446D01*
X361214D01*
Y43390D01*
X361158D01*
Y43334D01*
X361102D01*
Y43278D01*
X361046D01*
Y43222D01*
X360990D01*
Y43166D01*
X360934D01*
Y43109D01*
X360878D01*
Y43053D01*
X360822D01*
Y42997D01*
X360766D01*
Y42941D01*
X360710D01*
Y42885D01*
X360653D01*
Y42829D01*
X360597D01*
Y42773D01*
X360541D01*
Y42717D01*
X360485D01*
Y42661D01*
X360429D01*
Y42604D01*
X360373D01*
Y42548D01*
X360317D01*
Y42492D01*
X360261D01*
Y42436D01*
X360204D01*
Y42380D01*
X360148D01*
Y42324D01*
X360092D01*
Y42268D01*
X360036D01*
Y42212D01*
X359980D01*
Y42156D01*
X359924D01*
Y42099D01*
X359868D01*
Y42043D01*
X359812D01*
Y41987D01*
X359756D01*
Y41931D01*
X359699D01*
Y41875D01*
X359643D01*
Y41819D01*
X359587D01*
Y41763D01*
X359531D01*
Y41707D01*
X359475D01*
Y41651D01*
X359419D01*
Y41594D01*
X359363D01*
Y41538D01*
X359307D01*
Y41482D01*
X359251D01*
Y41426D01*
X359194D01*
Y41370D01*
X359138D01*
Y41314D01*
X359082D01*
Y41258D01*
X359026D01*
Y41202D01*
X358970D01*
Y41146D01*
X358914D01*
Y41089D01*
X358858D01*
Y41033D01*
X358802D01*
Y40977D01*
X358746D01*
Y40921D01*
X358689D01*
Y40865D01*
X358633D01*
Y40809D01*
X358577D01*
Y40753D01*
X358521D01*
Y40697D01*
X358465D01*
Y40641D01*
X358409D01*
Y40584D01*
X358353D01*
Y40528D01*
X358297D01*
Y40472D01*
X358241D01*
Y40416D01*
X358185D01*
Y40360D01*
X358128D01*
Y40304D01*
X358072D01*
Y40248D01*
X358016D01*
Y40192D01*
X357960D01*
Y40136D01*
X357848D01*
Y40192D01*
X357792D01*
Y40248D01*
X357736D01*
Y40304D01*
X357679D01*
Y40360D01*
X357623D01*
Y40416D01*
X357567D01*
Y40472D01*
X357511D01*
Y40528D01*
X357455D01*
Y40584D01*
X357399D01*
Y40641D01*
X357343D01*
Y40697D01*
X357287D01*
Y40753D01*
X357231D01*
Y40809D01*
X357174D01*
Y40865D01*
X357118D01*
Y40921D01*
X357062D01*
Y40977D01*
X357006D01*
Y41033D01*
X356950D01*
Y41089D01*
X356894D01*
Y41146D01*
X356838D01*
Y41202D01*
X356782D01*
Y41258D01*
X356726D01*
Y41314D01*
X356669D01*
Y41370D01*
X356613D01*
Y41426D01*
X356557D01*
Y41482D01*
X356501D01*
Y41538D01*
X356445D01*
Y41594D01*
X356389D01*
Y41651D01*
X356333D01*
Y41707D01*
X356277D01*
Y41763D01*
X356221D01*
Y41819D01*
X356164D01*
Y41875D01*
X356108D01*
Y41931D01*
X356052D01*
Y41987D01*
X355996D01*
Y42043D01*
X355940D01*
Y42099D01*
X355884D01*
Y42156D01*
X355828D01*
Y42212D01*
X355772D01*
Y42268D01*
X355716D01*
Y42324D01*
X355660D01*
Y42380D01*
X355603D01*
Y42436D01*
X355547D01*
Y42492D01*
X355491D01*
Y42548D01*
X355435D01*
Y42604D01*
X355379D01*
Y42661D01*
X355323D01*
Y42717D01*
X355267D01*
Y42773D01*
X355211D01*
Y42829D01*
X355154D01*
Y42885D01*
X355098D01*
Y42941D01*
X355042D01*
Y42997D01*
X354986D01*
Y43053D01*
X354930D01*
Y43109D01*
X354874D01*
Y43166D01*
X354818D01*
Y43222D01*
X354762D01*
Y43278D01*
X354706D01*
Y43334D01*
X354649D01*
Y43390D01*
X354593D01*
Y43446D01*
X354537D01*
Y43502D01*
X354481D01*
Y43558D01*
X354425D01*
Y43614D01*
X354369D01*
Y43670D01*
X354313D01*
Y43727D01*
X354257D01*
Y43783D01*
X354201D01*
Y43839D01*
X354145D01*
Y43895D01*
X354088D01*
Y43951D01*
X354032D01*
Y44007D01*
X353976D01*
Y44063D01*
X353920D01*
Y44119D01*
X353864D01*
Y44175D01*
X353808D01*
Y44232D01*
X353752D01*
Y44288D01*
X353696D01*
Y44344D01*
X353639D01*
Y44400D01*
X353583D01*
Y44456D01*
X353527D01*
Y44512D01*
X353471D01*
Y44568D01*
X353415D01*
Y44624D01*
X353359D01*
Y44681D01*
X353303D01*
Y44737D01*
X353247D01*
Y44793D01*
X353191D01*
Y44849D01*
X353134D01*
Y44905D01*
X353078D01*
Y44961D01*
X353022D01*
Y45017D01*
X352966D01*
Y45073D01*
X352910D01*
Y45129D01*
X352854D01*
Y45186D01*
X352798D01*
Y45242D01*
X352742D01*
Y45298D01*
X352686D01*
Y45354D01*
X352629D01*
Y45410D01*
X352573D01*
Y45466D01*
X352517D01*
Y45522D01*
X352461D01*
Y45578D01*
X352405D01*
Y45634D01*
X352349D01*
Y45691D01*
X352293D01*
Y45747D01*
X352237D01*
Y45803D01*
X352181D01*
Y45859D01*
X352124D01*
Y45915D01*
X352068D01*
Y45971D01*
X352012D01*
Y46027D01*
X351956D01*
Y46083D01*
X351900D01*
Y46139D01*
X351844D01*
Y46196D01*
X351788D01*
Y46252D01*
X351732D01*
Y46308D01*
X351676D01*
Y46364D01*
X351620D01*
Y46420D01*
X351563D01*
Y46476D01*
X351507D01*
Y46532D01*
X351451D01*
Y46588D01*
X351395D01*
Y46644D01*
X351339D01*
Y46701D01*
X351283D01*
Y46757D01*
X351227D01*
Y46813D01*
X351171D01*
Y46869D01*
X351114D01*
Y46925D01*
X351058D01*
Y46981D01*
X351002D01*
Y47037D01*
X350946D01*
Y47093D01*
X350890D01*
Y47149D01*
X350834D01*
Y47205D01*
X350778D01*
Y47262D01*
X350722D01*
Y47318D01*
X350666D01*
Y47374D01*
X350609D01*
Y47430D01*
X350553D01*
Y47486D01*
X350497D01*
Y47542D01*
X350441D01*
Y47598D01*
X350385D01*
Y47654D01*
X350329D01*
Y47711D01*
X350273D01*
Y47767D01*
X350217D01*
Y47823D01*
X350161D01*
Y47879D01*
X350104D01*
Y47935D01*
X350048D01*
Y47991D01*
X349992D01*
Y48047D01*
X349936D01*
Y48103D01*
X349880D01*
Y48159D01*
X349824D01*
Y48216D01*
X349768D01*
Y48272D01*
X349712D01*
Y48328D01*
X349656D01*
Y48384D01*
X349599D01*
Y48440D01*
X349543D01*
Y48496D01*
X349487D01*
Y48552D01*
X349431D01*
Y48608D01*
X349375D01*
Y48664D01*
X349319D01*
Y48720D01*
X349263D01*
Y48777D01*
X349207D01*
Y48833D01*
X349151D01*
Y48889D01*
X349095D01*
Y48945D01*
X349038D01*
Y49001D01*
X348982D01*
Y49057D01*
X348926D01*
Y49113D01*
X348870D01*
Y49169D01*
X348814D01*
Y49226D01*
X348758D01*
Y49282D01*
X348702D01*
Y49338D01*
X348646D01*
Y49394D01*
X348589D01*
Y49450D01*
X348533D01*
Y49506D01*
X348477D01*
Y49562D01*
X348421D01*
Y49618D01*
X348365D01*
Y49674D01*
X348309D01*
Y49731D01*
X348253D01*
Y49787D01*
X348197D01*
Y49843D01*
X348141D01*
Y49899D01*
X348084D01*
Y49955D01*
X348028D01*
Y50011D01*
X347972D01*
Y50067D01*
X347916D01*
Y50123D01*
X347860D01*
Y50179D01*
X347804D01*
Y50236D01*
X347748D01*
Y50292D01*
X347692D01*
Y50348D01*
X347636D01*
Y50404D01*
X347579D01*
Y50460D01*
X347523D01*
Y50516D01*
X347467D01*
Y50572D01*
X347411D01*
Y50628D01*
X347355D01*
Y50684D01*
X347299D01*
Y50741D01*
X347243D01*
Y50797D01*
X347187D01*
Y50853D01*
X347131D01*
Y50909D01*
X347074D01*
Y50965D01*
X347018D01*
Y51021D01*
X346962D01*
Y51077D01*
X346906D01*
Y51133D01*
X346850D01*
Y51189D01*
X346794D01*
Y51246D01*
X346738D01*
Y51302D01*
X346682D01*
Y51358D01*
X346626D01*
Y51414D01*
X346569D01*
Y51470D01*
X346513D01*
Y51526D01*
X346457D01*
Y51582D01*
X346401D01*
Y51638D01*
X346345D01*
Y51694D01*
X346289D01*
Y51750D01*
X346233D01*
Y51807D01*
X346177D01*
Y51863D01*
X346121D01*
Y51919D01*
X346064D01*
Y51975D01*
X346008D01*
Y52031D01*
X345952D01*
Y52087D01*
X345896D01*
Y52143D01*
X345840D01*
Y52199D01*
X345784D01*
Y52256D01*
X345728D01*
Y52312D01*
X345672D01*
Y52368D01*
X345616D01*
Y52424D01*
X345560D01*
Y52480D01*
X345503D01*
Y52536D01*
X345447D01*
Y52592D01*
X345391D01*
Y52648D01*
X345335D01*
Y52704D01*
X345279D01*
Y52761D01*
X345223D01*
Y52817D01*
X345167D01*
Y52873D01*
X345111D01*
Y52929D01*
X345054D01*
Y52985D01*
X344998D01*
Y53041D01*
X344942D01*
Y53097D01*
X344886D01*
Y53153D01*
X344830D01*
Y53209D01*
X344774D01*
Y53266D01*
X344718D01*
Y53322D01*
X344662D01*
Y53378D01*
X344606D01*
Y53434D01*
X344549D01*
Y53490D01*
X344493D01*
Y53546D01*
X344437D01*
Y53602D01*
X344381D01*
Y53658D01*
X344325D01*
Y53714D01*
X344269D01*
Y53771D01*
X344213D01*
Y53827D01*
X344157D01*
Y53883D01*
X344101D01*
Y53939D01*
X344044D01*
Y53995D01*
X343988D01*
Y54051D01*
X343932D01*
Y54107D01*
X343876D01*
Y54163D01*
X343820D01*
Y54219D01*
X343764D01*
Y54276D01*
X343708D01*
Y54332D01*
X343652D01*
Y54388D01*
X343596D01*
Y54444D01*
X343539D01*
Y54612D01*
X343596D01*
Y54668D01*
X343708D01*
Y54781D01*
X343820D01*
Y54837D01*
X343876D01*
Y54949D01*
X343988D01*
Y55005D01*
X344044D01*
Y55061D01*
X344101D01*
Y55117D01*
X344157D01*
Y55173D01*
X344213D01*
Y55229D01*
X344269D01*
Y55286D01*
X344325D01*
Y55398D01*
X344381D01*
Y55454D01*
X344493D01*
Y55566D01*
X344549D01*
Y55622D01*
X344662D01*
Y55734D01*
X344774D01*
Y55791D01*
X344830D01*
Y55903D01*
X344942D01*
Y55959D01*
X344998D01*
Y56071D01*
X345111D01*
Y56127D01*
X345167D01*
Y56239D01*
X345279D01*
Y56352D01*
X345335D01*
Y56408D01*
X345447D01*
Y56520D01*
X345560D01*
Y56576D01*
X345616D01*
Y56632D01*
X345672D01*
Y56688D01*
X345728D01*
Y56744D01*
X345784D01*
Y56857D01*
X345896D01*
Y56913D01*
X345952D01*
Y57025D01*
X346064D01*
Y57137D01*
X346121D01*
Y57193D01*
X346233D01*
Y57306D01*
X346289D01*
Y57362D01*
X346401D01*
Y57418D01*
X346457D01*
Y57474D01*
X346513D01*
Y57530D01*
X346569D01*
Y57586D01*
X346626D01*
Y57642D01*
X346682D01*
Y57698D01*
X346738D01*
Y57811D01*
X346850D01*
Y57867D01*
X346906D01*
Y57923D01*
X346962D01*
Y57979D01*
X347018D01*
Y58035D01*
X347074D01*
Y58147D01*
X347187D01*
Y58259D01*
X347243D01*
Y58315D01*
X347355D01*
Y58372D01*
X347411D01*
Y58428D01*
X347467D01*
Y58484D01*
X347523D01*
Y58596D01*
X347636D01*
Y58652D01*
X347692D01*
Y58708D01*
X347748D01*
Y58764D01*
X347804D01*
Y58877D01*
X347860D01*
Y58933D01*
X347972D01*
Y59045D01*
X348084D01*
Y59101D01*
X348141D01*
Y59213D01*
X348253D01*
Y59269D01*
X348309D01*
Y59382D01*
X348421D01*
Y59438D01*
X348477D01*
Y59550D01*
X348589D01*
Y59662D01*
X348646D01*
Y59718D01*
X348758D01*
Y59831D01*
X348870D01*
Y59887D01*
X348926D01*
Y59999D01*
X349038D01*
Y60055D01*
X349095D01*
Y60111D01*
X349151D01*
Y60167D01*
X349207D01*
Y60279D01*
X349263D01*
Y60336D01*
X349375D01*
Y60448D01*
X349431D01*
Y60504D01*
X349543D01*
Y60616D01*
X349599D01*
Y60672D01*
X349712D01*
Y60784D01*
X349824D01*
Y60840D01*
X349880D01*
Y60953D01*
X349992D01*
Y61009D01*
X350048D01*
Y61065D01*
X350104D01*
Y61121D01*
X350161D01*
Y61233D01*
X350217D01*
Y61289D01*
X350329D01*
Y61402D01*
X350385D01*
Y61458D01*
X350497D01*
Y61514D01*
X350553D01*
Y61570D01*
X350609D01*
Y61626D01*
X350666D01*
Y61738D01*
X350778D01*
Y61794D01*
X350834D01*
Y61907D01*
X350946D01*
Y61963D01*
X351002D01*
Y62019D01*
X351058D01*
Y62075D01*
X351114D01*
Y62187D01*
X351171D01*
Y62243D01*
X351283D01*
Y62356D01*
X351395D01*
Y62412D01*
X351451D01*
Y62468D01*
X351507D01*
Y62524D01*
X351563D01*
Y62580D01*
X351620D01*
Y62692D01*
X351732D01*
Y62748D01*
X351788D01*
Y62804D01*
X351844D01*
Y62861D01*
X351900D01*
Y62917D01*
X351956D01*
Y63029D01*
X352068D01*
Y63141D01*
X352181D01*
Y63197D01*
X352237D01*
Y63253D01*
X352293D01*
Y63309D01*
X352349D01*
Y63366D01*
X352405D01*
Y63478D01*
X352517D01*
Y63534D01*
X352573D01*
Y63646D01*
X352686D01*
Y63702D01*
X352742D01*
Y63758D01*
X352798D01*
Y63814D01*
X352854D01*
Y63927D01*
X352910D01*
Y63983D01*
X353022D01*
Y64095D01*
X353078D01*
Y64151D01*
X353191D01*
Y64207D01*
X353247D01*
Y64263D01*
X353303D01*
Y64319D01*
X353359D01*
Y64376D01*
X353415D01*
Y64432D01*
X353471D01*
Y64488D01*
X353527D01*
Y64600D01*
X353639D01*
Y64712D01*
X353696D01*
Y64768D01*
X353808D01*
Y64881D01*
X353920D01*
Y64937D01*
X353976D01*
Y64993D01*
X354032D01*
Y65049D01*
X354088D01*
Y65105D01*
X354145D01*
Y65161D01*
X354201D01*
Y65217D01*
X354257D01*
Y65273D01*
X354313D01*
Y65329D01*
X354369D01*
Y65386D01*
X354425D01*
Y65498D01*
X354537D01*
Y65554D01*
X354593D01*
Y65666D01*
X354649D01*
Y65722D01*
X354762D01*
Y65834D01*
X354874D01*
Y65891D01*
X354930D01*
Y66003D01*
X355042D01*
Y66059D01*
X355098D01*
Y66171D01*
X355211D01*
Y66283D01*
X355267D01*
Y66339D01*
X355379D01*
Y66452D01*
X355435D01*
Y66508D01*
X355547D01*
Y66620D01*
X355660D01*
Y66676D01*
X355716D01*
Y66788D01*
X355828D01*
Y66844D01*
X355884D01*
Y66900D01*
X355940D01*
Y66957D01*
X355996D01*
Y67069D01*
X356052D01*
Y67125D01*
X356164D01*
Y67237D01*
X356221D01*
Y67293D01*
X356333D01*
Y67406D01*
X356445D01*
Y67462D01*
X356501D01*
Y67518D01*
X356557D01*
Y67574D01*
X356613D01*
Y67630D01*
X356669D01*
Y67742D01*
X356782D01*
Y67798D01*
X356838D01*
Y67911D01*
X356950D01*
Y68023D01*
X357006D01*
Y68079D01*
X357118D01*
Y68191D01*
X357231D01*
Y68247D01*
X357287D01*
Y68359D01*
X357399D01*
Y68415D01*
X357455D01*
Y68472D01*
X357511D01*
Y68528D01*
X357567D01*
Y68584D01*
X357623D01*
Y68640D01*
X357679D01*
Y68696D01*
X357736D01*
Y68752D01*
X357792D01*
Y68864D01*
X357904D01*
Y68921D01*
X357960D01*
Y68864D01*
D02*
G37*
G36*
X372268Y39013D02*
X372324D01*
Y34524D01*
X372268D01*
Y34412D01*
X370810D01*
Y36208D01*
X369463D01*
Y35703D01*
Y35647D01*
Y34861D01*
X369407D01*
Y34580D01*
X369463D01*
Y34412D01*
X367948D01*
Y39069D01*
X369407D01*
Y39013D01*
X369463D01*
Y37386D01*
X370810D01*
Y39069D01*
X372268D01*
Y39013D01*
D02*
G37*
G36*
X358970Y37218D02*
X359026D01*
Y36039D01*
X355996D01*
Y36095D01*
X355940D01*
Y36208D01*
X355996D01*
Y37218D01*
X356052D01*
Y37274D01*
X356108D01*
Y37218D01*
X356164D01*
Y37274D01*
X356221D01*
Y37218D01*
X356333D01*
Y37274D01*
X356389D01*
Y37218D01*
X356501D01*
Y37274D01*
X356557D01*
Y37218D01*
X358465D01*
Y37274D01*
X358521D01*
Y37218D01*
X358633D01*
Y37274D01*
X358858D01*
Y37218D01*
X358914D01*
Y37274D01*
X358970D01*
Y37218D01*
D02*
G37*
G36*
X367387Y36152D02*
X367331D01*
Y35871D01*
X367274D01*
Y35647D01*
X367218D01*
Y35478D01*
X367162D01*
Y35366D01*
X367106D01*
Y35254D01*
X367050D01*
Y35198D01*
X366994D01*
Y35086D01*
X366938D01*
Y35029D01*
X366882D01*
Y34973D01*
X366826D01*
Y34917D01*
X366770D01*
Y34861D01*
X366713D01*
Y34805D01*
X366657D01*
Y34749D01*
X366601D01*
Y34693D01*
X366489D01*
Y34637D01*
X366377D01*
Y34580D01*
X366264D01*
Y34524D01*
X366152D01*
Y34468D01*
X365984D01*
Y34412D01*
X365759D01*
Y34356D01*
X364749D01*
Y34412D01*
X364525D01*
Y34468D01*
X364357D01*
Y34524D01*
X364245D01*
Y34580D01*
X364132D01*
Y34637D01*
X364020D01*
Y34693D01*
X363964D01*
Y34749D01*
X363908D01*
Y34805D01*
X363852D01*
Y34861D01*
X363796D01*
Y34917D01*
X363739D01*
Y34973D01*
X363683D01*
Y35029D01*
X363627D01*
Y35086D01*
X363571D01*
Y35198D01*
X363515D01*
Y35254D01*
X363459D01*
Y35366D01*
X363403D01*
Y35534D01*
X363347D01*
Y35647D01*
X363291D01*
Y35871D01*
X363234D01*
Y39069D01*
X364693D01*
Y36881D01*
Y36825D01*
Y36152D01*
X364749D01*
Y35983D01*
X364806D01*
Y35927D01*
X364862D01*
Y35871D01*
X364918D01*
Y35815D01*
X364974D01*
Y35759D01*
X365591D01*
Y35815D01*
X365647D01*
Y35871D01*
X365759D01*
Y35983D01*
X365816D01*
Y36095D01*
X365872D01*
Y36320D01*
X365928D01*
Y39069D01*
X367387D01*
Y36152D01*
D02*
G37*
G36*
X362561Y36993D02*
Y36937D01*
Y34412D01*
X361102D01*
Y39069D01*
X362561D01*
Y36993D01*
D02*
G37*
G36*
X354649Y37891D02*
X353415D01*
Y34412D01*
X351956D01*
Y37891D01*
X350722D01*
Y39069D01*
X354649D01*
Y37891D01*
D02*
G37*
G36*
X350441D02*
X348814D01*
Y37835D01*
X348758D01*
Y37330D01*
X350217D01*
Y36657D01*
Y36601D01*
Y36208D01*
X348758D01*
Y35591D01*
X350385D01*
Y35534D01*
X350441D01*
Y34412D01*
X347299D01*
Y39069D01*
X350441D01*
Y37891D01*
D02*
G37*
G36*
X346794D02*
X344998D01*
Y37274D01*
X346289D01*
Y36152D01*
X344998D01*
Y34412D01*
X343483D01*
Y39069D01*
X346794D01*
Y37891D01*
D02*
G37*
G36*
X362000Y33122D02*
X362056D01*
Y33009D01*
Y32953D01*
X362000D01*
Y33009D01*
X361944D01*
Y33066D01*
X361832D01*
Y33009D01*
X361776D01*
Y33122D01*
X361832D01*
Y33178D01*
X362000D01*
Y33122D01*
D02*
G37*
G36*
X353639D02*
X353696D01*
Y32953D01*
X353639D01*
Y33009D01*
X353583D01*
Y33066D01*
X353471D01*
Y33009D01*
X353415D01*
Y33122D01*
X353471D01*
Y33178D01*
X353639D01*
Y33122D01*
D02*
G37*
G36*
X369799Y32785D02*
Y32729D01*
X369743D01*
Y32673D01*
X369519D01*
Y32729D01*
X369351D01*
Y32785D01*
X369407D01*
Y32841D01*
X369519D01*
Y32785D01*
X369743D01*
Y32841D01*
X369799D01*
Y32785D01*
D02*
G37*
G36*
X365254Y33009D02*
X365311D01*
Y32953D01*
X365367D01*
Y32897D01*
X365423D01*
Y32785D01*
X365367D01*
Y32841D01*
X365254D01*
Y32897D01*
X365198D01*
Y32953D01*
X365142D01*
Y33066D01*
X365254D01*
Y33009D01*
D02*
G37*
G36*
X362000Y32897D02*
X361944D01*
Y32841D01*
Y32785D01*
X361832D01*
Y32897D01*
X361888D01*
Y32953D01*
X362000D01*
Y32897D01*
D02*
G37*
G36*
X353639D02*
X353583D01*
Y32841D01*
Y32785D01*
X353471D01*
Y32897D01*
X353527D01*
Y32953D01*
X353639D01*
Y32897D01*
D02*
G37*
G36*
X346008Y33122D02*
X346064D01*
Y32953D01*
X346008D01*
Y32897D01*
X345952D01*
Y32841D01*
X345896D01*
Y32785D01*
X345840D01*
Y32897D01*
X345896D01*
Y32953D01*
X345952D01*
Y33009D01*
Y33066D01*
X345840D01*
Y33009D01*
X345784D01*
Y33122D01*
X345840D01*
Y33178D01*
X346008D01*
Y33122D01*
D02*
G37*
G36*
X360822Y32785D02*
X360766D01*
Y32729D01*
X360653D01*
Y32785D01*
X360597D01*
Y32953D01*
X360822D01*
Y32785D01*
D02*
G37*
G36*
X357623Y32953D02*
X357679D01*
Y32897D01*
X357623D01*
Y32841D01*
X357511D01*
Y32785D01*
X357455D01*
Y32729D01*
X357343D01*
Y32841D01*
X357399D01*
Y32897D01*
X357511D01*
Y32953D01*
X357567D01*
Y33009D01*
X357623D01*
Y32953D01*
D02*
G37*
G36*
X350553Y32897D02*
X350609D01*
Y32785D01*
X350553D01*
Y32729D01*
X350441D01*
Y32785D01*
X350385D01*
Y32841D01*
Y32953D01*
X350553D01*
Y32897D01*
D02*
G37*
G36*
X349880Y32953D02*
X349936D01*
Y32897D01*
X349880D01*
Y32841D01*
X349768D01*
Y32785D01*
X349712D01*
Y32729D01*
X349599D01*
Y32785D01*
X349656D01*
Y32841D01*
X349712D01*
Y32897D01*
X349768D01*
Y32953D01*
X349824D01*
Y33009D01*
X349880D01*
Y32953D01*
D02*
G37*
G36*
X346513Y32897D02*
X346569D01*
Y32785D01*
X346513D01*
Y32729D01*
X346345D01*
Y32841D01*
X346289D01*
Y32897D01*
X346345D01*
Y32953D01*
X346513D01*
Y32897D01*
D02*
G37*
G36*
X369351Y32673D02*
X369295D01*
Y32729D01*
X369351D01*
Y32673D01*
D02*
G37*
G36*
X365703Y32841D02*
X365759D01*
Y32785D01*
X365816D01*
Y32729D01*
X365928D01*
Y32673D01*
X365872D01*
Y32617D01*
X365816D01*
Y32673D01*
X365759D01*
Y32729D01*
X365591D01*
Y32673D01*
X365535D01*
Y32617D01*
X365479D01*
Y32673D01*
X365423D01*
Y32729D01*
X365479D01*
Y32785D01*
X365591D01*
Y32841D01*
X365647D01*
Y32897D01*
X365703D01*
Y32841D01*
D02*
G37*
G36*
X361607D02*
X361663D01*
Y32785D01*
X361719D01*
Y32729D01*
X361832D01*
Y32673D01*
X361776D01*
Y32617D01*
X361719D01*
Y32673D01*
X361663D01*
Y32729D01*
X361495D01*
Y32673D01*
X361327D01*
Y32729D01*
X361383D01*
Y32785D01*
X361495D01*
Y32841D01*
X361551D01*
Y32897D01*
X361607D01*
Y32841D01*
D02*
G37*
G36*
X353247D02*
X353303D01*
Y32785D01*
X353359D01*
Y32729D01*
X353471D01*
Y32673D01*
X353415D01*
Y32617D01*
X353359D01*
Y32673D01*
X353303D01*
Y32729D01*
X353134D01*
Y32673D01*
X352966D01*
Y32729D01*
X353022D01*
Y32785D01*
X353078D01*
Y32841D01*
X353191D01*
Y32897D01*
X353247D01*
Y32841D01*
D02*
G37*
G36*
X345616D02*
X345672D01*
Y32785D01*
X345728D01*
Y32729D01*
X345784D01*
Y32673D01*
X345728D01*
Y32617D01*
X345672D01*
Y32673D01*
X345616D01*
Y32729D01*
X345503D01*
Y32673D01*
X345335D01*
Y32729D01*
X345391D01*
Y32785D01*
X345447D01*
Y32841D01*
X345503D01*
Y32897D01*
X345616D01*
Y32841D01*
D02*
G37*
G36*
X370922Y32448D02*
X370978D01*
Y32392D01*
X371034D01*
Y32224D01*
X371090D01*
Y31494D01*
X370922D01*
Y32224D01*
X370866D01*
Y32336D01*
X370753D01*
Y32392D01*
X370641D01*
Y32336D01*
X370529D01*
Y32280D01*
X370473D01*
Y31494D01*
X370304D01*
Y32504D01*
X370473D01*
Y32448D01*
X370585D01*
Y32504D01*
X370922D01*
Y32448D01*
D02*
G37*
G36*
X367050D02*
X367106D01*
Y32336D01*
X367162D01*
Y32168D01*
X367218D01*
Y31494D01*
X367050D01*
Y32168D01*
X366994D01*
Y32280D01*
X366938D01*
Y32336D01*
X366882D01*
Y32392D01*
X366770D01*
Y32336D01*
X366657D01*
Y32280D01*
X366601D01*
Y32112D01*
X366545D01*
Y31494D01*
X366377D01*
Y32504D01*
X366545D01*
Y32448D01*
X366713D01*
Y32504D01*
X367050D01*
Y32448D01*
D02*
G37*
G36*
X362898D02*
X362954D01*
Y32392D01*
X363010D01*
Y32224D01*
X363066D01*
Y31494D01*
X362898D01*
Y31831D01*
Y31887D01*
Y32224D01*
X362842D01*
Y32336D01*
X362729D01*
Y32392D01*
X362617D01*
Y32336D01*
X362505D01*
Y32280D01*
X362449D01*
Y32056D01*
X362393D01*
Y31494D01*
X362281D01*
Y32504D01*
X362393D01*
Y32448D01*
X362561D01*
Y32504D01*
X362898D01*
Y32448D01*
D02*
G37*
G36*
X360429Y32392D02*
X360373D01*
Y32336D01*
X360261D01*
Y32392D01*
X360204D01*
Y32336D01*
X360148D01*
Y32280D01*
X360092D01*
Y32168D01*
X360036D01*
Y31494D01*
X359868D01*
Y32504D01*
X360036D01*
Y32448D01*
X360148D01*
Y32504D01*
X360429D01*
Y32392D01*
D02*
G37*
G36*
X350048Y32504D02*
X349992D01*
Y32448D01*
X349936D01*
Y32392D01*
X349992D01*
Y32336D01*
X350048D01*
Y32224D01*
X350104D01*
Y32056D01*
X350161D01*
Y31943D01*
X350104D01*
Y31775D01*
X350048D01*
Y31663D01*
X349992D01*
Y31607D01*
X349936D01*
Y31550D01*
X349824D01*
Y31494D01*
X349431D01*
Y31550D01*
X349319D01*
Y31607D01*
X349263D01*
Y31663D01*
X349207D01*
Y31719D01*
X349151D01*
Y31775D01*
X349095D01*
Y32224D01*
X349151D01*
Y32280D01*
X349207D01*
Y32392D01*
X349319D01*
Y32448D01*
X349431D01*
Y32504D01*
X349824D01*
Y32448D01*
X349880D01*
Y32504D01*
X349936D01*
Y32561D01*
X349880D01*
Y32617D01*
X350048D01*
Y32504D01*
D02*
G37*
G36*
X372324Y31326D02*
X372268D01*
Y31158D01*
X372212D01*
Y31102D01*
X372156D01*
Y30989D01*
X372044D01*
Y30933D01*
X371595D01*
Y30989D01*
X371483D01*
Y31045D01*
X371427D01*
Y31158D01*
X371371D01*
Y31270D01*
X371314D01*
Y31382D01*
X371483D01*
Y31270D01*
X371539D01*
Y31158D01*
X371651D01*
Y31102D01*
X371707D01*
Y31045D01*
X371876D01*
Y31102D01*
X371988D01*
Y31158D01*
X372044D01*
Y31214D01*
X372100D01*
Y31438D01*
X372156D01*
Y31607D01*
X372044D01*
Y31550D01*
X371988D01*
Y31494D01*
X371595D01*
Y31550D01*
X371483D01*
Y31607D01*
X371427D01*
Y31719D01*
X371371D01*
Y31775D01*
X371314D01*
Y32224D01*
X371371D01*
Y32280D01*
X371427D01*
Y32392D01*
X371483D01*
Y32448D01*
X371595D01*
Y32504D01*
X371988D01*
Y32448D01*
X372044D01*
Y32392D01*
X372156D01*
Y32504D01*
X372324D01*
Y31326D01*
D02*
G37*
G36*
X357848Y31494D02*
X357736D01*
Y31550D01*
X357679D01*
Y31607D01*
X357623D01*
Y31550D01*
X357511D01*
Y31494D01*
X357174D01*
Y31550D01*
X357062D01*
Y31607D01*
X357006D01*
Y31663D01*
X356950D01*
Y31775D01*
X356894D01*
Y32224D01*
X356950D01*
Y32336D01*
X357006D01*
Y32392D01*
X357062D01*
Y32448D01*
X357174D01*
Y32504D01*
X357567D01*
Y32448D01*
X357623D01*
Y32392D01*
X357736D01*
Y32448D01*
Y32504D01*
X357848D01*
Y31494D01*
D02*
G37*
G36*
X355323Y32448D02*
X355379D01*
Y32392D01*
X355435D01*
Y32336D01*
X355491D01*
Y32280D01*
X355547D01*
Y32112D01*
X355603D01*
Y31887D01*
X355547D01*
Y31719D01*
X355491D01*
Y31663D01*
X355435D01*
Y31607D01*
X355379D01*
Y31550D01*
X355267D01*
Y31494D01*
X354930D01*
Y31550D01*
X354818D01*
Y31607D01*
X354762D01*
Y30933D01*
X354593D01*
Y32504D01*
X354762D01*
Y32392D01*
X354818D01*
Y32448D01*
X354930D01*
Y32504D01*
X355323D01*
Y32448D01*
D02*
G37*
G36*
X352517Y32785D02*
X352686D01*
Y32673D01*
X352517D01*
Y31494D01*
X352349D01*
Y31607D01*
X352293D01*
Y31550D01*
X352181D01*
Y31494D01*
X351844D01*
Y31550D01*
X351732D01*
Y31607D01*
X351676D01*
Y31663D01*
X351620D01*
Y31719D01*
X351563D01*
Y31999D01*
X351507D01*
Y32056D01*
X351563D01*
Y32280D01*
X351620D01*
Y32336D01*
X351676D01*
Y32392D01*
X351732D01*
Y32448D01*
X351844D01*
Y32504D01*
X352181D01*
Y32448D01*
X352293D01*
Y32392D01*
X352349D01*
Y32673D01*
X352012D01*
Y32785D01*
X352349D01*
Y33234D01*
X352517D01*
Y32785D01*
D02*
G37*
G36*
X348702Y32448D02*
X348758D01*
Y32336D01*
X348814D01*
Y31494D01*
X348646D01*
Y32280D01*
X348589D01*
Y32336D01*
X348533D01*
Y32392D01*
X348421D01*
Y32336D01*
X348365D01*
Y32280D01*
X348309D01*
Y32168D01*
X348253D01*
Y31494D01*
X348084D01*
Y32280D01*
X348028D01*
Y32336D01*
X347972D01*
Y32392D01*
X347860D01*
Y32336D01*
X347748D01*
Y32224D01*
X347692D01*
Y31494D01*
X347523D01*
Y32504D01*
X347692D01*
Y32448D01*
X347804D01*
Y32504D01*
X348084D01*
Y32448D01*
X348141D01*
Y32392D01*
X348253D01*
Y32448D01*
X348365D01*
Y32504D01*
X348702D01*
Y32448D01*
D02*
G37*
G36*
X368958Y32392D02*
X368902D01*
Y32280D01*
X368846D01*
Y32112D01*
X368789D01*
Y31999D01*
X368733D01*
Y31887D01*
X368677D01*
Y31719D01*
X368621D01*
Y31607D01*
X368565D01*
Y31494D01*
X368453D01*
Y31607D01*
X368397D01*
Y31719D01*
X368341D01*
Y31831D01*
X368285D01*
Y31999D01*
X368228D01*
Y32056D01*
Y32112D01*
X368172D01*
Y32224D01*
X368116D01*
Y32392D01*
X368060D01*
Y32448D01*
X368004D01*
Y32504D01*
X368228D01*
Y32392D01*
X368285D01*
Y32280D01*
X368341D01*
Y32112D01*
X368397D01*
Y31999D01*
X368453D01*
Y31887D01*
X368565D01*
Y31999D01*
X368621D01*
Y32168D01*
X368677D01*
Y32280D01*
X368733D01*
Y32392D01*
X368789D01*
Y32504D01*
X368958D01*
Y32392D01*
D02*
G37*
G36*
X370080Y32504D02*
X370024D01*
Y32448D01*
X369968D01*
Y32392D01*
X369912D01*
Y31663D01*
X369856D01*
Y31607D01*
X369799D01*
Y31550D01*
X369743D01*
Y31494D01*
X369351D01*
Y31550D01*
X369295D01*
Y31607D01*
X369238D01*
Y31663D01*
X369182D01*
Y31887D01*
X369126D01*
Y32504D01*
X369295D01*
Y31831D01*
X369351D01*
Y31719D01*
X369407D01*
Y31663D01*
X369687D01*
Y31719D01*
X369743D01*
Y31887D01*
X369799D01*
Y32224D01*
Y32280D01*
Y32504D01*
X369968D01*
Y32561D01*
X369912D01*
Y32617D01*
X370080D01*
Y32504D01*
D02*
G37*
G36*
X365872Y32448D02*
X365984D01*
Y32392D01*
X366040D01*
Y32280D01*
X366096D01*
Y32168D01*
X366152D01*
Y31943D01*
X365367D01*
Y31831D01*
X365423D01*
Y31719D01*
X365479D01*
Y31663D01*
X365872D01*
Y31719D01*
X365928D01*
Y31775D01*
X365984D01*
Y31831D01*
X366040D01*
Y31775D01*
X366096D01*
Y31663D01*
X366040D01*
Y31607D01*
X365984D01*
Y31550D01*
X365872D01*
Y31494D01*
X365479D01*
Y31550D01*
X365367D01*
Y31607D01*
X365311D01*
Y31663D01*
X365254D01*
Y31775D01*
X365198D01*
Y32224D01*
X365254D01*
Y32336D01*
X365311D01*
Y32392D01*
X365367D01*
Y32448D01*
X365479D01*
Y32504D01*
X365872D01*
Y32448D01*
D02*
G37*
G36*
X364245Y32392D02*
X364301D01*
Y32448D01*
X364413D01*
Y32504D01*
X364806D01*
Y32448D01*
X364862D01*
Y32392D01*
X364918D01*
Y32336D01*
X364974D01*
Y32280D01*
X365030D01*
Y31719D01*
X364974D01*
Y31663D01*
X364918D01*
Y31607D01*
X364862D01*
Y31550D01*
X364749D01*
Y31494D01*
X364413D01*
Y31550D01*
X364301D01*
Y31607D01*
X364245D01*
Y31494D01*
X364076D01*
Y33234D01*
X364245D01*
Y32392D01*
D02*
G37*
G36*
X361776Y32448D02*
X361888D01*
Y32392D01*
X361944D01*
Y32280D01*
X362000D01*
Y32112D01*
X362056D01*
Y31943D01*
X361271D01*
Y31775D01*
X361327D01*
Y31719D01*
X361383D01*
Y31663D01*
X361776D01*
Y31719D01*
X361832D01*
Y31775D01*
X361888D01*
Y31831D01*
X361944D01*
Y31775D01*
X362000D01*
Y31663D01*
X361944D01*
Y31607D01*
X361888D01*
Y31550D01*
X361776D01*
Y31494D01*
X361383D01*
Y31550D01*
X361271D01*
Y31607D01*
X361214D01*
Y31663D01*
X361158D01*
Y31775D01*
X361102D01*
Y32224D01*
X361158D01*
Y32336D01*
X361214D01*
Y32392D01*
X361271D01*
Y32448D01*
X361383D01*
Y32504D01*
X361776D01*
Y32448D01*
D02*
G37*
G36*
X360766Y31494D02*
X360653D01*
Y31550D01*
Y31607D01*
Y32504D01*
X360766D01*
Y31494D01*
D02*
G37*
G36*
X359531Y32504D02*
X359699D01*
Y32392D01*
X359587D01*
Y32336D01*
X359531D01*
Y32112D01*
Y32056D01*
Y31494D01*
X359363D01*
Y32392D01*
X359251D01*
Y32504D01*
X359363D01*
Y32841D01*
X359531D01*
Y32504D01*
D02*
G37*
G36*
X358353D02*
X358577D01*
Y32392D01*
X358409D01*
Y32336D01*
X358353D01*
Y31494D01*
X358185D01*
Y32168D01*
Y32224D01*
Y32392D01*
X358128D01*
Y32448D01*
X358072D01*
Y32504D01*
X358185D01*
Y32841D01*
X358353D01*
Y32504D01*
D02*
G37*
G36*
X355996Y32392D02*
X356052D01*
Y32448D01*
X356164D01*
Y32504D01*
X356445D01*
Y32448D01*
X356557D01*
Y32336D01*
X356613D01*
Y32112D01*
X356669D01*
Y31494D01*
X356445D01*
Y31943D01*
X356501D01*
Y32112D01*
X356445D01*
Y32280D01*
X356389D01*
Y32336D01*
X356333D01*
Y32392D01*
X356221D01*
Y32336D01*
X356108D01*
Y32280D01*
X356052D01*
Y32168D01*
X355996D01*
Y31494D01*
X355828D01*
Y33234D01*
X355996D01*
Y32392D01*
D02*
G37*
G36*
X353415Y32448D02*
X353527D01*
Y32336D01*
X353583D01*
Y32280D01*
X353639D01*
Y32112D01*
X353696D01*
Y31943D01*
X352910D01*
Y31775D01*
X352966D01*
Y31719D01*
X353078D01*
Y31663D01*
X353415D01*
Y31719D01*
X353471D01*
Y31775D01*
X353527D01*
Y31831D01*
X353583D01*
Y31775D01*
X353639D01*
Y31663D01*
X353583D01*
Y31607D01*
X353527D01*
Y31550D01*
X353415D01*
Y31494D01*
X353022D01*
Y31550D01*
X352910D01*
Y31607D01*
X352854D01*
Y31663D01*
X352798D01*
Y31775D01*
X352742D01*
Y32224D01*
X352798D01*
Y32336D01*
X352854D01*
Y32392D01*
X352910D01*
Y32448D01*
X353022D01*
Y32504D01*
X353415D01*
Y32448D01*
D02*
G37*
G36*
X350553Y31719D02*
Y31663D01*
Y31494D01*
X350385D01*
Y32504D01*
X350553D01*
Y31719D01*
D02*
G37*
G36*
X346513Y32448D02*
Y31494D01*
X346345D01*
Y32504D01*
X346513D01*
Y32448D01*
D02*
G37*
G36*
X345784D02*
X345896D01*
Y32392D01*
X345952D01*
Y32336D01*
X346008D01*
Y32224D01*
X346064D01*
Y31775D01*
X346008D01*
Y31719D01*
X345952D01*
Y31607D01*
X345840D01*
Y31550D01*
X345728D01*
Y31494D01*
X345391D01*
Y31550D01*
X345279D01*
Y31607D01*
X345167D01*
Y31663D01*
X345111D01*
Y31775D01*
X345054D01*
Y32224D01*
X345111D01*
Y32336D01*
X345167D01*
Y32392D01*
X345223D01*
Y32448D01*
X345335D01*
Y32504D01*
X345784D01*
Y32448D01*
D02*
G37*
G36*
X344381Y33009D02*
X344493D01*
Y32953D01*
X344549D01*
Y32897D01*
X344662D01*
Y32785D01*
X344718D01*
Y32729D01*
X344774D01*
Y32617D01*
X344830D01*
Y31943D01*
X344774D01*
Y31887D01*
X344718D01*
Y31775D01*
X344662D01*
Y31719D01*
X344606D01*
Y31663D01*
X344549D01*
Y31607D01*
X344437D01*
Y31550D01*
X344269D01*
Y31494D01*
X343652D01*
Y32280D01*
X343539D01*
Y32336D01*
X343483D01*
Y32392D01*
X343539D01*
Y32448D01*
X343652D01*
Y33066D01*
X344381D01*
Y33009D01*
D02*
G37*
%LPC*%
G36*
X357960Y68584D02*
X357848D01*
Y68528D01*
X357792D01*
Y68472D01*
X357736D01*
Y68415D01*
X357679D01*
Y68359D01*
X357623D01*
Y68303D01*
X357567D01*
Y68247D01*
X357511D01*
Y68191D01*
X357455D01*
Y68135D01*
X357399D01*
Y68079D01*
X357343D01*
Y68023D01*
X357287D01*
Y67967D01*
X357231D01*
Y67911D01*
X357174D01*
Y67854D01*
X357118D01*
Y67798D01*
X357062D01*
Y67742D01*
X357006D01*
Y67686D01*
X356950D01*
Y67630D01*
X356894D01*
Y67574D01*
X356838D01*
Y67518D01*
X356782D01*
Y67462D01*
X356726D01*
Y67406D01*
X356669D01*
Y67349D01*
X356613D01*
Y67293D01*
X356557D01*
Y67237D01*
X356501D01*
Y67181D01*
X356445D01*
Y67125D01*
X356389D01*
Y67069D01*
X356333D01*
Y67013D01*
X356277D01*
Y66957D01*
X356221D01*
Y66900D01*
X356164D01*
Y66844D01*
X356108D01*
Y66788D01*
X356052D01*
Y66732D01*
X355996D01*
Y66676D01*
X355940D01*
Y66620D01*
X355884D01*
Y66564D01*
X355828D01*
Y66508D01*
X355772D01*
Y66452D01*
X355716D01*
Y66396D01*
X355660D01*
Y66339D01*
X355603D01*
Y66283D01*
X355547D01*
Y66227D01*
X355491D01*
Y66171D01*
X355435D01*
Y66115D01*
X355379D01*
Y66059D01*
X355323D01*
Y66003D01*
X355267D01*
Y65947D01*
X355211D01*
Y65891D01*
X355154D01*
Y65834D01*
X355098D01*
Y65778D01*
X355042D01*
Y65722D01*
X354986D01*
Y65666D01*
X354930D01*
Y65610D01*
X354874D01*
Y65554D01*
X354818D01*
Y65498D01*
X354762D01*
Y65442D01*
X354706D01*
Y65386D01*
X354649D01*
Y65329D01*
X354593D01*
Y65273D01*
X354537D01*
Y65217D01*
X354481D01*
Y65161D01*
X354425D01*
Y65105D01*
X354369D01*
Y65049D01*
X354313D01*
Y64993D01*
X354257D01*
Y64937D01*
X354201D01*
Y64881D01*
X354145D01*
Y64824D01*
X354088D01*
Y64768D01*
X354032D01*
Y64712D01*
X353976D01*
Y64656D01*
X353920D01*
Y64600D01*
X353864D01*
Y64544D01*
X353808D01*
Y64488D01*
X353752D01*
Y64432D01*
X353696D01*
Y64376D01*
X353639D01*
Y64319D01*
X353583D01*
Y64263D01*
X353527D01*
Y64207D01*
X353471D01*
Y64151D01*
X353415D01*
Y64095D01*
X353359D01*
Y64039D01*
X353303D01*
Y63983D01*
X353247D01*
Y63927D01*
X353191D01*
Y63871D01*
X353134D01*
Y63814D01*
X353078D01*
Y63758D01*
X353022D01*
Y63702D01*
X352966D01*
Y63646D01*
X352910D01*
Y63590D01*
X352854D01*
Y63534D01*
X352798D01*
Y63478D01*
X352742D01*
Y63422D01*
X352686D01*
Y63366D01*
X352629D01*
Y63309D01*
X352573D01*
Y63253D01*
X352517D01*
Y63197D01*
X352461D01*
Y63141D01*
X352405D01*
Y63085D01*
X352349D01*
Y63029D01*
X352293D01*
Y62973D01*
X352237D01*
Y62917D01*
X352181D01*
Y62861D01*
X352124D01*
Y62804D01*
X352068D01*
Y62748D01*
X352012D01*
Y62692D01*
X351956D01*
Y62636D01*
X351900D01*
Y62580D01*
X351844D01*
Y62524D01*
X351788D01*
Y62468D01*
X351732D01*
Y62412D01*
X351676D01*
Y62356D01*
X351620D01*
Y62299D01*
X351563D01*
Y62243D01*
X351507D01*
Y62187D01*
X351451D01*
Y62131D01*
X351395D01*
Y62075D01*
X351339D01*
Y62019D01*
X351283D01*
Y61963D01*
X351227D01*
Y61907D01*
X351171D01*
Y61851D01*
X351114D01*
Y61794D01*
X351058D01*
Y61738D01*
X351002D01*
Y61682D01*
X350946D01*
Y61626D01*
X350890D01*
Y61570D01*
X350834D01*
Y61514D01*
X350778D01*
Y61458D01*
X350722D01*
Y61402D01*
X350666D01*
Y61346D01*
X350609D01*
Y61289D01*
X350553D01*
Y61233D01*
X350497D01*
Y61177D01*
X350441D01*
Y61121D01*
X350385D01*
Y61065D01*
X350329D01*
Y61009D01*
X350273D01*
Y60953D01*
X350217D01*
Y60897D01*
X350161D01*
Y60840D01*
X350104D01*
Y60784D01*
X350048D01*
Y60728D01*
X349992D01*
Y60672D01*
X349936D01*
Y60616D01*
X349880D01*
Y60560D01*
X349824D01*
Y60504D01*
X349768D01*
Y60448D01*
X349712D01*
Y60392D01*
X349656D01*
Y60336D01*
X349599D01*
Y60279D01*
X349543D01*
Y60223D01*
X349487D01*
Y60167D01*
X349431D01*
Y60111D01*
X349375D01*
Y60055D01*
X349319D01*
Y59999D01*
X349263D01*
Y59943D01*
X349207D01*
Y59887D01*
X349151D01*
Y59831D01*
X349095D01*
Y59774D01*
X349038D01*
Y59718D01*
X348982D01*
Y59662D01*
X348926D01*
Y59606D01*
X348870D01*
Y59550D01*
X348814D01*
Y59494D01*
X348758D01*
Y59438D01*
X348702D01*
Y59382D01*
X348646D01*
Y59325D01*
X348589D01*
Y59269D01*
X348533D01*
Y59213D01*
X348477D01*
Y59157D01*
X348421D01*
Y59101D01*
X348365D01*
Y59045D01*
X348309D01*
Y58989D01*
X348253D01*
Y58933D01*
X348197D01*
Y58877D01*
X348141D01*
Y58821D01*
X348084D01*
Y58764D01*
X348028D01*
Y58708D01*
X347972D01*
Y58652D01*
X347916D01*
Y58596D01*
X347860D01*
Y58540D01*
X347804D01*
Y58484D01*
X347748D01*
Y58428D01*
X347692D01*
Y58372D01*
X347636D01*
Y58315D01*
X347579D01*
Y58259D01*
X347523D01*
Y58203D01*
X347467D01*
Y58147D01*
X347411D01*
Y58091D01*
X347355D01*
Y58035D01*
X347299D01*
Y57979D01*
X347243D01*
Y57923D01*
X347187D01*
Y57867D01*
X347131D01*
Y57811D01*
X347074D01*
Y57754D01*
X347018D01*
Y57698D01*
X346962D01*
Y57642D01*
X346906D01*
Y57586D01*
X346850D01*
Y57530D01*
X346794D01*
Y57474D01*
X346738D01*
Y57418D01*
X346682D01*
Y57362D01*
X346626D01*
Y57306D01*
X346569D01*
Y57249D01*
X346513D01*
Y57193D01*
X346457D01*
Y57137D01*
X346401D01*
Y57081D01*
X346345D01*
Y57025D01*
X346289D01*
Y56969D01*
X346233D01*
Y56913D01*
X346177D01*
Y56857D01*
X346121D01*
Y56801D01*
X346064D01*
Y56744D01*
X346008D01*
Y56688D01*
X345952D01*
Y56632D01*
X345896D01*
Y56576D01*
X345840D01*
Y56520D01*
X345784D01*
Y56464D01*
X345728D01*
Y56408D01*
X345672D01*
Y56352D01*
X345616D01*
Y56296D01*
X345560D01*
Y56239D01*
X345503D01*
Y56183D01*
X345447D01*
Y56127D01*
X345391D01*
Y56071D01*
X345335D01*
Y56015D01*
X345279D01*
Y55959D01*
X345223D01*
Y55903D01*
X345167D01*
Y55847D01*
X345111D01*
Y55791D01*
X345054D01*
Y55734D01*
X344998D01*
Y55678D01*
X344942D01*
Y55622D01*
X344886D01*
Y55566D01*
X344830D01*
Y55510D01*
X344774D01*
Y55454D01*
X344718D01*
Y55398D01*
X344662D01*
Y55342D01*
X344606D01*
Y55286D01*
X344549D01*
Y55229D01*
X344493D01*
Y55173D01*
X344437D01*
Y55117D01*
X344381D01*
Y55061D01*
X344325D01*
Y55005D01*
X344269D01*
Y54949D01*
X344213D01*
Y54893D01*
X344157D01*
Y54837D01*
X344101D01*
Y54781D01*
X344044D01*
Y54724D01*
X343988D01*
Y54668D01*
X343932D01*
Y54612D01*
X343876D01*
Y54556D01*
X343820D01*
Y54500D01*
X343876D01*
Y54444D01*
X343932D01*
Y54388D01*
X343988D01*
Y54332D01*
X344044D01*
Y54276D01*
X344101D01*
Y54219D01*
X344157D01*
Y54163D01*
X344213D01*
Y54107D01*
X344269D01*
Y54051D01*
X344325D01*
Y53995D01*
X344381D01*
Y53939D01*
X344437D01*
Y53883D01*
X344493D01*
Y53827D01*
X344549D01*
Y53771D01*
X344606D01*
Y53714D01*
X344662D01*
Y53658D01*
X344718D01*
Y53602D01*
X344774D01*
Y53546D01*
X344830D01*
Y53490D01*
X344886D01*
Y53434D01*
X344942D01*
Y53378D01*
X344998D01*
Y53322D01*
X345054D01*
Y53266D01*
X345111D01*
Y53209D01*
X345167D01*
Y53153D01*
X345223D01*
Y53097D01*
X345279D01*
Y53041D01*
X345335D01*
Y52985D01*
X345391D01*
Y52929D01*
X345447D01*
Y52873D01*
X345503D01*
Y52817D01*
X345560D01*
Y52761D01*
X345616D01*
Y52704D01*
X345672D01*
Y52648D01*
X345728D01*
Y52592D01*
X345784D01*
Y52536D01*
X345840D01*
Y52480D01*
X345896D01*
Y52424D01*
X345952D01*
Y52368D01*
X346008D01*
Y52312D01*
X346064D01*
Y52256D01*
X346121D01*
Y52199D01*
X346177D01*
Y52143D01*
X346233D01*
Y52087D01*
X346289D01*
Y52031D01*
X346345D01*
Y51975D01*
X346401D01*
Y51919D01*
X346457D01*
Y51863D01*
X346513D01*
Y51807D01*
X346569D01*
Y51750D01*
X346626D01*
Y51694D01*
X346682D01*
Y51638D01*
X346738D01*
Y51582D01*
X346794D01*
Y51526D01*
X346850D01*
Y51470D01*
X346906D01*
Y51414D01*
X346962D01*
Y51358D01*
X347018D01*
Y51302D01*
X347074D01*
Y51246D01*
X347131D01*
Y51189D01*
X347187D01*
Y51133D01*
X347243D01*
Y51077D01*
X347299D01*
Y51021D01*
X347355D01*
Y50965D01*
X347411D01*
Y50909D01*
X347467D01*
Y50853D01*
X347523D01*
Y50797D01*
X347579D01*
Y50741D01*
X347636D01*
Y50684D01*
X347692D01*
Y50628D01*
X347748D01*
Y50572D01*
X347804D01*
Y50516D01*
X347860D01*
Y50460D01*
X347916D01*
Y50404D01*
X347972D01*
Y50348D01*
X348028D01*
Y50292D01*
X348084D01*
Y50236D01*
X348141D01*
Y50179D01*
X348197D01*
Y50123D01*
X348253D01*
Y50067D01*
X348309D01*
Y50011D01*
X348365D01*
Y49955D01*
X348421D01*
Y49899D01*
X348477D01*
Y49843D01*
X348533D01*
Y49787D01*
X348589D01*
Y49731D01*
X348646D01*
Y49674D01*
X348702D01*
Y49618D01*
X348758D01*
Y49562D01*
X348814D01*
Y49506D01*
X348870D01*
Y49450D01*
X348926D01*
Y49394D01*
X348982D01*
Y49338D01*
X349038D01*
Y49282D01*
X349095D01*
Y49226D01*
X349151D01*
Y49169D01*
X349207D01*
Y49113D01*
X349263D01*
Y49057D01*
X349319D01*
Y49001D01*
X349375D01*
Y48945D01*
X349431D01*
Y48889D01*
X349487D01*
Y48833D01*
X349543D01*
Y48777D01*
X349599D01*
Y48720D01*
X349656D01*
Y48664D01*
X349712D01*
Y48608D01*
X349768D01*
Y48552D01*
X349824D01*
Y48496D01*
X349880D01*
Y48440D01*
X349936D01*
Y48384D01*
X349992D01*
Y48328D01*
X350048D01*
Y48272D01*
X350104D01*
Y48216D01*
X350161D01*
Y48159D01*
X350217D01*
Y48103D01*
X350273D01*
Y48047D01*
X350329D01*
Y47991D01*
X350385D01*
Y47935D01*
X350441D01*
Y47879D01*
X350497D01*
Y47823D01*
X350553D01*
Y47767D01*
X350609D01*
Y47711D01*
X350666D01*
Y47654D01*
X350722D01*
Y47598D01*
X350778D01*
Y47542D01*
X350834D01*
Y47486D01*
X350890D01*
Y47430D01*
X350946D01*
Y47374D01*
X351002D01*
Y47318D01*
X351058D01*
Y47262D01*
X351114D01*
Y47205D01*
X351171D01*
Y47149D01*
X351227D01*
Y47093D01*
X351283D01*
Y47037D01*
X351339D01*
Y46981D01*
X351395D01*
Y46925D01*
X351451D01*
Y46869D01*
X351507D01*
Y46813D01*
X351563D01*
Y46757D01*
X351620D01*
Y46701D01*
X351676D01*
Y46644D01*
X351732D01*
Y46588D01*
X351788D01*
Y46532D01*
X351844D01*
Y46476D01*
X351900D01*
Y46420D01*
X351956D01*
Y46364D01*
X352012D01*
Y46308D01*
X352068D01*
Y46252D01*
X352124D01*
Y46196D01*
X352181D01*
Y46139D01*
X352237D01*
Y46083D01*
X352293D01*
Y46027D01*
X352349D01*
Y45971D01*
X352405D01*
Y45915D01*
X352461D01*
Y45859D01*
X352517D01*
Y45803D01*
X352573D01*
Y45747D01*
X352629D01*
Y45691D01*
X352686D01*
Y45634D01*
X352742D01*
Y45578D01*
X352798D01*
Y45522D01*
X352854D01*
Y45466D01*
X352910D01*
Y45410D01*
X352966D01*
Y45354D01*
X353022D01*
Y45298D01*
X353078D01*
Y45242D01*
X353134D01*
Y45186D01*
X353191D01*
Y45129D01*
X353247D01*
Y45073D01*
X353303D01*
Y45017D01*
X353359D01*
Y44961D01*
X353415D01*
Y44905D01*
X353471D01*
Y44849D01*
X353527D01*
Y44793D01*
X353583D01*
Y44737D01*
X353639D01*
Y44681D01*
X353696D01*
Y44624D01*
X353752D01*
Y44568D01*
X353808D01*
Y44512D01*
X353864D01*
Y44456D01*
X353920D01*
Y44400D01*
X353976D01*
Y44344D01*
X354032D01*
Y44288D01*
X354088D01*
Y44232D01*
X354145D01*
Y44175D01*
X354201D01*
Y44119D01*
X354257D01*
Y44063D01*
X354313D01*
Y44007D01*
X354369D01*
Y43951D01*
X354425D01*
Y43895D01*
X354481D01*
Y43839D01*
X354537D01*
Y43783D01*
X354593D01*
Y43727D01*
X354649D01*
Y43670D01*
X354706D01*
Y43614D01*
X354762D01*
Y43558D01*
X354818D01*
Y43502D01*
X354874D01*
Y43446D01*
X354930D01*
Y43390D01*
X354986D01*
Y43334D01*
X355042D01*
Y43278D01*
X355098D01*
Y43222D01*
X355154D01*
Y43166D01*
X355211D01*
Y43109D01*
X355267D01*
Y43053D01*
X355323D01*
Y42997D01*
X355379D01*
Y42941D01*
X355435D01*
Y42885D01*
X355491D01*
Y42829D01*
X355547D01*
Y42773D01*
X355603D01*
Y42717D01*
X355660D01*
Y42661D01*
X355716D01*
Y42604D01*
X355772D01*
Y42548D01*
X355828D01*
Y42492D01*
X355884D01*
Y42436D01*
X355940D01*
Y42380D01*
X355996D01*
Y42324D01*
X356052D01*
Y42268D01*
X356108D01*
Y42212D01*
X356164D01*
Y42156D01*
X356221D01*
Y42099D01*
X356277D01*
Y42043D01*
X356333D01*
Y41987D01*
X356389D01*
Y41931D01*
X356445D01*
Y41875D01*
X356501D01*
Y41819D01*
X356557D01*
Y41763D01*
X356613D01*
Y41707D01*
X356669D01*
Y41651D01*
X356726D01*
Y41594D01*
X356782D01*
Y41538D01*
X356838D01*
Y41482D01*
X356894D01*
Y41426D01*
X356950D01*
Y41370D01*
X357006D01*
Y41314D01*
X357062D01*
Y41258D01*
X357118D01*
Y41202D01*
X357174D01*
Y41146D01*
X357231D01*
Y41089D01*
X357287D01*
Y41033D01*
X357343D01*
Y40977D01*
X357399D01*
Y40921D01*
X357455D01*
Y40865D01*
X357511D01*
Y40809D01*
X357567D01*
Y40753D01*
X357623D01*
Y40697D01*
X357679D01*
Y40641D01*
X357736D01*
Y40584D01*
X357792D01*
Y40528D01*
X357848D01*
Y40472D01*
X357960D01*
Y40528D01*
X358016D01*
Y40584D01*
X358072D01*
Y40641D01*
X358128D01*
Y40697D01*
X358185D01*
Y40753D01*
X358241D01*
Y40809D01*
X358297D01*
Y40865D01*
X358353D01*
Y40921D01*
X358409D01*
Y40977D01*
X358465D01*
Y41033D01*
X358521D01*
Y41089D01*
X358577D01*
Y41146D01*
X358633D01*
Y41202D01*
X358689D01*
Y41258D01*
X358746D01*
Y41314D01*
X358802D01*
Y41370D01*
X358858D01*
Y41426D01*
X358914D01*
Y41482D01*
X358970D01*
Y41538D01*
X359026D01*
Y41594D01*
X359082D01*
Y41651D01*
X359138D01*
Y41707D01*
X359194D01*
Y41763D01*
X359251D01*
Y41819D01*
X359307D01*
Y41875D01*
X359363D01*
Y41931D01*
X359419D01*
Y41987D01*
X359475D01*
Y42043D01*
X359531D01*
Y42099D01*
X359587D01*
Y42156D01*
X359643D01*
Y42212D01*
X359699D01*
Y42268D01*
X359756D01*
Y42324D01*
X359812D01*
Y42380D01*
X359868D01*
Y42436D01*
X359924D01*
Y42492D01*
X359980D01*
Y42548D01*
X360036D01*
Y42604D01*
X360092D01*
Y42661D01*
X360148D01*
Y42717D01*
X360204D01*
Y42773D01*
X360261D01*
Y42829D01*
X360317D01*
Y42885D01*
X360373D01*
Y42941D01*
X360429D01*
Y42997D01*
X360485D01*
Y43053D01*
X360541D01*
Y43109D01*
X360597D01*
Y43166D01*
X360653D01*
Y43222D01*
X360710D01*
Y43278D01*
X360766D01*
Y43334D01*
X360822D01*
Y43390D01*
X360878D01*
Y43446D01*
X360934D01*
Y43502D01*
X360990D01*
Y43558D01*
X361046D01*
Y43614D01*
X361102D01*
Y43670D01*
X361158D01*
Y43727D01*
X361214D01*
Y43783D01*
X361271D01*
Y43839D01*
X361327D01*
Y43895D01*
X361383D01*
Y43951D01*
X361439D01*
Y44007D01*
X361495D01*
Y44063D01*
X361551D01*
Y44119D01*
X361607D01*
Y44175D01*
X361663D01*
Y44232D01*
X361719D01*
Y44288D01*
X361776D01*
Y44344D01*
X361832D01*
Y44400D01*
X361888D01*
Y44456D01*
X361944D01*
Y44512D01*
X362000D01*
Y44568D01*
X362056D01*
Y44624D01*
X362112D01*
Y44681D01*
X362168D01*
Y44737D01*
X362224D01*
Y44793D01*
X362281D01*
Y44849D01*
X362337D01*
Y44905D01*
X362393D01*
Y44961D01*
X362449D01*
Y45017D01*
X362505D01*
Y45073D01*
X362561D01*
Y45129D01*
X362617D01*
Y45186D01*
X362673D01*
Y45242D01*
X362729D01*
Y45298D01*
X362786D01*
Y45354D01*
X362842D01*
Y45410D01*
X362898D01*
Y45466D01*
X362954D01*
Y45522D01*
X363010D01*
Y45578D01*
X363066D01*
Y45634D01*
X363122D01*
Y45691D01*
X363178D01*
Y45747D01*
X363234D01*
Y45803D01*
X363291D01*
Y45859D01*
X363347D01*
Y45915D01*
X363403D01*
Y45971D01*
X363459D01*
Y46027D01*
X363515D01*
Y46083D01*
X363571D01*
Y46139D01*
X363627D01*
Y46196D01*
X363683D01*
Y46252D01*
X363739D01*
Y46308D01*
X363796D01*
Y46364D01*
X363852D01*
Y46420D01*
X363908D01*
Y46476D01*
X363964D01*
Y46532D01*
X364020D01*
Y46588D01*
X364076D01*
Y46644D01*
X364132D01*
Y46701D01*
X364188D01*
Y46757D01*
X364245D01*
Y46813D01*
X364301D01*
Y46869D01*
X364357D01*
Y46925D01*
X364413D01*
Y46981D01*
X364469D01*
Y47037D01*
X364525D01*
Y47093D01*
X364581D01*
Y47149D01*
X364637D01*
Y47205D01*
X364693D01*
Y47262D01*
X364749D01*
Y47318D01*
X364806D01*
Y47374D01*
X364862D01*
Y47430D01*
X364918D01*
Y47486D01*
X364974D01*
Y47542D01*
X365030D01*
Y47598D01*
X365086D01*
Y47654D01*
X365142D01*
Y47711D01*
X365198D01*
Y47767D01*
X365254D01*
Y47823D01*
X365311D01*
Y47879D01*
X365367D01*
Y47935D01*
X365423D01*
Y47991D01*
X365479D01*
Y48047D01*
X365535D01*
Y48103D01*
X365591D01*
Y48159D01*
X365647D01*
Y48216D01*
X365703D01*
Y48272D01*
X365759D01*
Y48328D01*
X365816D01*
Y48384D01*
X365872D01*
Y48440D01*
X365928D01*
Y48496D01*
X365984D01*
Y48552D01*
X366040D01*
Y48608D01*
X366096D01*
Y48664D01*
X366152D01*
Y48720D01*
X366208D01*
Y48777D01*
X366264D01*
Y48833D01*
X366321D01*
Y48889D01*
X366377D01*
Y48945D01*
X366433D01*
Y49001D01*
X366489D01*
Y49057D01*
X366545D01*
Y49113D01*
X366601D01*
Y49169D01*
X366657D01*
Y49226D01*
X366713D01*
Y49282D01*
X366770D01*
Y49338D01*
X366826D01*
Y49394D01*
X366882D01*
Y49450D01*
X366938D01*
Y49506D01*
X366994D01*
Y49562D01*
X367050D01*
Y49618D01*
X367106D01*
Y49674D01*
X367162D01*
Y49731D01*
X367218D01*
Y49787D01*
X367274D01*
Y49843D01*
X367331D01*
Y49899D01*
X367387D01*
Y49955D01*
X367443D01*
Y50011D01*
X367499D01*
Y50067D01*
X367555D01*
Y50123D01*
X367611D01*
Y50179D01*
X367667D01*
Y50236D01*
X367723D01*
Y50292D01*
X367779D01*
Y50348D01*
X367836D01*
Y50404D01*
X367892D01*
Y50460D01*
X367948D01*
Y50516D01*
X368004D01*
Y50572D01*
X368060D01*
Y50628D01*
X368116D01*
Y50684D01*
X368172D01*
Y50741D01*
X368228D01*
Y50797D01*
X368285D01*
Y50853D01*
X368341D01*
Y50909D01*
X368397D01*
Y50965D01*
X368453D01*
Y51021D01*
X368509D01*
Y51077D01*
X368565D01*
Y51133D01*
X368621D01*
Y51189D01*
X368677D01*
Y51246D01*
X368733D01*
Y51302D01*
X368789D01*
Y51358D01*
X368846D01*
Y51414D01*
X368902D01*
Y51470D01*
X368958D01*
Y51526D01*
X369014D01*
Y51582D01*
X369070D01*
Y51638D01*
X369126D01*
Y51694D01*
X369182D01*
Y51750D01*
X369238D01*
Y51807D01*
X369295D01*
Y51863D01*
X369351D01*
Y51919D01*
X369407D01*
Y51975D01*
X369463D01*
Y52031D01*
X369519D01*
Y52087D01*
X369575D01*
Y52143D01*
X369631D01*
Y52199D01*
X369687D01*
Y52256D01*
X369743D01*
Y52312D01*
X369799D01*
Y52368D01*
X369856D01*
Y52424D01*
X369912D01*
Y52480D01*
X369968D01*
Y52536D01*
X370024D01*
Y52592D01*
X370080D01*
Y52648D01*
X370136D01*
Y52704D01*
X370192D01*
Y52761D01*
X370248D01*
Y52817D01*
X370304D01*
Y52873D01*
X370361D01*
Y52929D01*
X370417D01*
Y52985D01*
X370473D01*
Y53041D01*
X370529D01*
Y53097D01*
X370585D01*
Y53153D01*
X370641D01*
Y53209D01*
X370697D01*
Y53266D01*
X370753D01*
Y53322D01*
X370810D01*
Y53378D01*
X370866D01*
Y53434D01*
X370922D01*
Y53490D01*
X370978D01*
Y53546D01*
X371034D01*
Y53602D01*
X371090D01*
Y53658D01*
X371146D01*
Y53714D01*
X371202D01*
Y53771D01*
X371258D01*
Y53827D01*
X371314D01*
Y53883D01*
X371371D01*
Y53939D01*
X371427D01*
Y53995D01*
X371483D01*
Y54051D01*
X371539D01*
Y54107D01*
X371595D01*
Y54163D01*
X371651D01*
Y54219D01*
X371707D01*
Y54276D01*
X371763D01*
Y54332D01*
X371819D01*
Y54388D01*
X371876D01*
Y54444D01*
X371932D01*
Y54500D01*
X371988D01*
Y54556D01*
X371932D01*
Y54612D01*
X371876D01*
Y54668D01*
X371819D01*
Y54724D01*
X371763D01*
Y54781D01*
X371707D01*
Y54837D01*
X371651D01*
Y54893D01*
X371595D01*
Y54949D01*
X371539D01*
Y55005D01*
X371483D01*
Y55061D01*
X371427D01*
Y55117D01*
X371371D01*
Y55173D01*
X371314D01*
Y55229D01*
X371258D01*
Y55286D01*
X371202D01*
Y55342D01*
X371146D01*
Y55398D01*
X371090D01*
Y55454D01*
X371034D01*
Y55510D01*
X370978D01*
Y55566D01*
X370922D01*
Y55622D01*
X370866D01*
Y55678D01*
X370810D01*
Y55734D01*
X370753D01*
Y55791D01*
X370697D01*
Y55847D01*
X370641D01*
Y55903D01*
X370585D01*
Y55959D01*
X370529D01*
Y56015D01*
X370473D01*
Y56071D01*
X370417D01*
Y56127D01*
X370361D01*
Y56183D01*
X370304D01*
Y56239D01*
X370248D01*
Y56296D01*
X370192D01*
Y56352D01*
X370136D01*
Y56408D01*
X370080D01*
Y56464D01*
X370024D01*
Y56520D01*
X369968D01*
Y56576D01*
X369912D01*
Y56632D01*
X369856D01*
Y56688D01*
X369799D01*
Y56744D01*
X369743D01*
Y56801D01*
X369687D01*
Y56857D01*
X369631D01*
Y56913D01*
X369575D01*
Y56969D01*
X369519D01*
Y57025D01*
X369463D01*
Y57081D01*
X369407D01*
Y57137D01*
X369351D01*
Y57193D01*
X369295D01*
Y57249D01*
X369238D01*
Y57306D01*
X369182D01*
Y57362D01*
X369126D01*
Y57418D01*
X369070D01*
Y57474D01*
X369014D01*
Y57530D01*
X368958D01*
Y57586D01*
X368902D01*
Y57642D01*
X368846D01*
Y57698D01*
X368789D01*
Y57754D01*
X368733D01*
Y57811D01*
X368677D01*
Y57867D01*
X368621D01*
Y57923D01*
X368565D01*
Y57979D01*
X368509D01*
Y58035D01*
X368453D01*
Y58091D01*
X368397D01*
Y58147D01*
X368341D01*
Y58203D01*
X368285D01*
Y58259D01*
X368228D01*
Y58315D01*
X368172D01*
Y58372D01*
X368116D01*
Y58428D01*
X368060D01*
Y58484D01*
X368004D01*
Y58540D01*
X367948D01*
Y58596D01*
X367892D01*
Y58652D01*
X367836D01*
Y58708D01*
X367779D01*
Y58764D01*
X367723D01*
Y58821D01*
X367667D01*
Y58877D01*
X367611D01*
Y58933D01*
X367555D01*
Y58989D01*
X367499D01*
Y59045D01*
X367443D01*
Y59101D01*
X367387D01*
Y59157D01*
X367331D01*
Y59213D01*
X367274D01*
Y59269D01*
X367218D01*
Y59325D01*
X367162D01*
Y59382D01*
X367106D01*
Y59438D01*
X367050D01*
Y59494D01*
X366994D01*
Y59550D01*
X366938D01*
Y59606D01*
X366882D01*
Y59662D01*
X366826D01*
Y59718D01*
X366770D01*
Y59774D01*
X366713D01*
Y59831D01*
X366657D01*
Y59887D01*
X366601D01*
Y59943D01*
X366545D01*
Y59999D01*
X366489D01*
Y60055D01*
X366433D01*
Y60111D01*
X366377D01*
Y60167D01*
X366321D01*
Y60223D01*
X366264D01*
Y60279D01*
X366208D01*
Y60336D01*
X366152D01*
Y60392D01*
X366096D01*
Y60448D01*
X366040D01*
Y60504D01*
X365984D01*
Y60560D01*
X365928D01*
Y60616D01*
X365872D01*
Y60672D01*
X365816D01*
Y60728D01*
X365759D01*
Y60784D01*
X365703D01*
Y60840D01*
X365647D01*
Y60897D01*
X365591D01*
Y60953D01*
X365535D01*
Y61009D01*
X365479D01*
Y61065D01*
X365423D01*
Y61121D01*
X365367D01*
Y61177D01*
X365311D01*
Y61233D01*
X365254D01*
Y61289D01*
X365198D01*
Y61346D01*
X365142D01*
Y61402D01*
X365086D01*
Y61458D01*
X365030D01*
Y61514D01*
X364974D01*
Y61570D01*
X364918D01*
Y61626D01*
X364862D01*
Y61682D01*
X364806D01*
Y61738D01*
X364749D01*
Y61794D01*
X364693D01*
Y61851D01*
X364637D01*
Y61907D01*
X364581D01*
Y61963D01*
X364525D01*
Y62019D01*
X364469D01*
Y62075D01*
X364413D01*
Y62131D01*
X364357D01*
Y62187D01*
X364301D01*
Y62243D01*
X364245D01*
Y62299D01*
X364188D01*
Y62356D01*
X364132D01*
Y62412D01*
X364076D01*
Y62468D01*
X364020D01*
Y62524D01*
X363964D01*
Y62580D01*
X363908D01*
Y62636D01*
X363852D01*
Y62692D01*
X363796D01*
Y62748D01*
X363739D01*
Y62804D01*
X363683D01*
Y62861D01*
X363627D01*
Y62917D01*
X363571D01*
Y62973D01*
X363515D01*
Y63029D01*
X363459D01*
Y63085D01*
X363403D01*
Y63141D01*
X363347D01*
Y63197D01*
X363291D01*
Y63253D01*
X363234D01*
Y63309D01*
X363178D01*
Y63366D01*
X363122D01*
Y63422D01*
X363066D01*
Y63478D01*
X363010D01*
Y63534D01*
X362954D01*
Y63590D01*
X362898D01*
Y63646D01*
X362842D01*
Y63702D01*
X362786D01*
Y63758D01*
X362729D01*
Y63814D01*
X362673D01*
Y63871D01*
X362617D01*
Y63927D01*
X362561D01*
Y63983D01*
X362505D01*
Y64039D01*
X362449D01*
Y64095D01*
X362393D01*
Y64151D01*
X362337D01*
Y64207D01*
X362281D01*
Y64263D01*
X362224D01*
Y64319D01*
X362168D01*
Y64376D01*
X362112D01*
Y64432D01*
X362056D01*
Y64488D01*
X362000D01*
Y64544D01*
X361944D01*
Y64600D01*
X361888D01*
Y64656D01*
X361832D01*
Y64712D01*
X361776D01*
Y64768D01*
X361719D01*
Y64824D01*
X361663D01*
Y64881D01*
X361607D01*
Y64937D01*
X361551D01*
Y64993D01*
X361495D01*
Y65049D01*
X361439D01*
Y65105D01*
X361383D01*
Y65161D01*
X361327D01*
Y65217D01*
X361271D01*
Y65273D01*
X361214D01*
Y65329D01*
X361158D01*
Y65386D01*
X361102D01*
Y65442D01*
X361046D01*
Y65498D01*
X360990D01*
Y65554D01*
X360934D01*
Y65610D01*
X360878D01*
Y65666D01*
X360822D01*
Y65722D01*
X360766D01*
Y65778D01*
X360710D01*
Y65834D01*
X360653D01*
Y65891D01*
X360597D01*
Y65947D01*
X360541D01*
Y66003D01*
X360485D01*
Y66059D01*
X360429D01*
Y66115D01*
X360373D01*
Y66171D01*
X360317D01*
Y66227D01*
X360261D01*
Y66283D01*
X360204D01*
Y66339D01*
X360148D01*
Y66396D01*
X360092D01*
Y66452D01*
X360036D01*
Y66508D01*
X359980D01*
Y66564D01*
X359924D01*
Y66620D01*
X359868D01*
Y66676D01*
X359812D01*
Y66732D01*
X359756D01*
Y66788D01*
X359699D01*
Y66844D01*
X359643D01*
Y66900D01*
X359587D01*
Y66957D01*
X359531D01*
Y67013D01*
X359475D01*
Y67069D01*
X359419D01*
Y67125D01*
X359363D01*
Y67181D01*
X359307D01*
Y67237D01*
X359251D01*
Y67293D01*
X359194D01*
Y67349D01*
X359138D01*
Y67406D01*
X359082D01*
Y67462D01*
X359026D01*
Y67518D01*
X358970D01*
Y67574D01*
X358914D01*
Y67630D01*
X358858D01*
Y67686D01*
X358802D01*
Y67742D01*
X358746D01*
Y67798D01*
X358689D01*
Y67854D01*
X358633D01*
Y67911D01*
X358577D01*
Y67967D01*
X358521D01*
Y68023D01*
X358465D01*
Y68079D01*
X358409D01*
Y68135D01*
X358353D01*
Y68191D01*
X358297D01*
Y68247D01*
X358241D01*
Y68303D01*
X358185D01*
Y68359D01*
X358128D01*
Y68415D01*
X358072D01*
Y68472D01*
X358016D01*
Y68528D01*
X357960D01*
Y68584D01*
D02*
G37*
%LPD*%
G36*
X360485Y64488D02*
X360541D01*
Y64432D01*
X360597D01*
Y64376D01*
X360653D01*
Y64319D01*
X360710D01*
Y64263D01*
X360766D01*
Y64207D01*
X360822D01*
Y64151D01*
X360878D01*
Y64095D01*
X360934D01*
Y64039D01*
X360990D01*
Y63983D01*
X361046D01*
Y63927D01*
X361102D01*
Y63871D01*
X361158D01*
Y63814D01*
X361214D01*
Y63758D01*
X361271D01*
Y63702D01*
X361327D01*
Y63646D01*
X361383D01*
Y63590D01*
X361439D01*
Y63534D01*
X361495D01*
Y63478D01*
X361551D01*
Y63422D01*
X361607D01*
Y63366D01*
X361663D01*
Y63309D01*
X361719D01*
Y63253D01*
X361776D01*
Y63197D01*
X361832D01*
Y63141D01*
X361888D01*
Y63085D01*
X361944D01*
Y63029D01*
X362000D01*
Y62973D01*
X362056D01*
Y62917D01*
X362112D01*
Y62861D01*
X362168D01*
Y62804D01*
X362224D01*
Y62748D01*
X362281D01*
Y62692D01*
X362337D01*
Y62636D01*
X362393D01*
Y62580D01*
X362449D01*
Y62524D01*
X362505D01*
Y62468D01*
X362561D01*
Y62412D01*
X362617D01*
Y62356D01*
X362673D01*
Y62299D01*
X362729D01*
Y62243D01*
X362786D01*
Y62187D01*
X362842D01*
Y62131D01*
X362898D01*
Y62075D01*
X362954D01*
Y62019D01*
X363010D01*
Y61963D01*
X363066D01*
Y61907D01*
X363122D01*
Y61851D01*
X363178D01*
Y61794D01*
X363234D01*
Y61738D01*
X363291D01*
Y61682D01*
X363347D01*
Y61626D01*
X363403D01*
Y61570D01*
X363459D01*
Y61514D01*
X363515D01*
Y61458D01*
X363571D01*
Y61402D01*
X363627D01*
Y61346D01*
X363683D01*
Y61289D01*
X363739D01*
Y61233D01*
X363796D01*
Y61177D01*
X363852D01*
Y61121D01*
X363908D01*
Y61065D01*
X363964D01*
Y61009D01*
X364020D01*
Y60953D01*
X364076D01*
Y60897D01*
X364132D01*
Y60840D01*
X364188D01*
Y60784D01*
X364245D01*
Y60728D01*
X364301D01*
Y60672D01*
X364357D01*
Y60616D01*
X364413D01*
Y60560D01*
X364469D01*
Y60504D01*
X364525D01*
Y60448D01*
X364581D01*
Y60392D01*
X364637D01*
Y60336D01*
X364693D01*
Y60279D01*
X364749D01*
Y60223D01*
X364806D01*
Y60167D01*
X364862D01*
Y60111D01*
X364918D01*
Y60055D01*
X364974D01*
Y59999D01*
X365030D01*
Y59943D01*
X365086D01*
Y59887D01*
X365142D01*
Y59831D01*
X365198D01*
Y59774D01*
X365254D01*
Y59718D01*
X365311D01*
Y59662D01*
X365367D01*
Y59606D01*
X365423D01*
Y59550D01*
X365479D01*
Y59494D01*
X365535D01*
Y59438D01*
X365591D01*
Y59382D01*
X365647D01*
Y59325D01*
X365703D01*
Y59269D01*
X365759D01*
Y59213D01*
X365816D01*
Y59157D01*
X365872D01*
Y59101D01*
X365928D01*
Y59045D01*
X365984D01*
Y58989D01*
X366040D01*
Y58933D01*
X366096D01*
Y58877D01*
X366152D01*
Y58821D01*
X366208D01*
Y58764D01*
X366264D01*
Y58708D01*
X366321D01*
Y58652D01*
X366377D01*
Y58596D01*
X366433D01*
Y58540D01*
X366489D01*
Y58484D01*
X366545D01*
Y58428D01*
X366601D01*
Y58372D01*
X366657D01*
Y58315D01*
X366713D01*
Y58259D01*
X366770D01*
Y58203D01*
X366826D01*
Y58147D01*
X361158D01*
Y57586D01*
X361214D01*
Y57530D01*
X363403D01*
Y57474D01*
X363459D01*
Y57418D01*
X363515D01*
Y57362D01*
X363571D01*
Y57306D01*
X363627D01*
Y57249D01*
X363683D01*
Y57193D01*
X363739D01*
Y57137D01*
X363796D01*
Y57081D01*
X363852D01*
Y57025D01*
X363908D01*
Y56969D01*
X365816D01*
Y57025D01*
X365872D01*
Y57081D01*
X365928D01*
Y57137D01*
X365984D01*
Y57193D01*
X366152D01*
Y57137D01*
X366264D01*
Y57025D01*
X366321D01*
Y56744D01*
X366264D01*
Y56688D01*
X366152D01*
Y56632D01*
X365984D01*
Y56688D01*
X365872D01*
Y56744D01*
X365816D01*
Y56857D01*
X363796D01*
Y56913D01*
X363739D01*
Y56969D01*
X363683D01*
Y57025D01*
X363627D01*
Y57137D01*
X363571D01*
Y57193D01*
X363515D01*
Y57249D01*
X363459D01*
Y57306D01*
X363403D01*
Y57362D01*
X363347D01*
Y57418D01*
X361158D01*
Y54500D01*
X362842D01*
Y46813D01*
X362786D01*
Y46701D01*
X362729D01*
Y46644D01*
X362673D01*
Y46588D01*
X362617D01*
Y46532D01*
X362561D01*
Y46476D01*
X362505D01*
Y46420D01*
X362449D01*
Y46364D01*
X362393D01*
Y46308D01*
X362337D01*
Y46252D01*
X362281D01*
Y46196D01*
X362224D01*
Y46139D01*
X362168D01*
Y46083D01*
X362112D01*
Y46027D01*
X362056D01*
Y45971D01*
X362000D01*
Y45915D01*
X361944D01*
Y45859D01*
X361888D01*
Y45803D01*
X361832D01*
Y45747D01*
X361776D01*
Y45691D01*
X361719D01*
Y45634D01*
X361663D01*
Y45578D01*
X361607D01*
Y45522D01*
X361551D01*
Y45466D01*
X361495D01*
Y45410D01*
X361439D01*
Y45354D01*
X361383D01*
Y45298D01*
X361327D01*
Y45242D01*
X361271D01*
Y45186D01*
X361214D01*
Y45129D01*
X361158D01*
Y45073D01*
X361102D01*
Y45017D01*
X361046D01*
Y44961D01*
X360990D01*
Y44905D01*
X360934D01*
Y44849D01*
X360878D01*
Y44793D01*
X360822D01*
Y44737D01*
X360766D01*
Y44681D01*
X360710D01*
Y44624D01*
X360653D01*
Y44568D01*
X360597D01*
Y44512D01*
X360541D01*
Y48608D01*
X357904D01*
Y51077D01*
X357960D01*
Y51133D01*
X358016D01*
Y51077D01*
X358072D01*
Y51133D01*
X358185D01*
Y51077D01*
X360036D01*
Y51133D01*
X360092D01*
Y51077D01*
X360148D01*
Y51133D01*
X360204D01*
Y57811D01*
X357904D01*
Y59831D01*
Y59887D01*
Y60223D01*
X360429D01*
Y61794D01*
X358241D01*
Y61907D01*
X360429D01*
Y63253D01*
X360261D01*
Y63309D01*
X360148D01*
Y63253D01*
X356894D01*
Y63309D01*
X356669D01*
Y63253D01*
X356445D01*
Y61402D01*
X356501D01*
Y61346D01*
X356557D01*
Y61289D01*
X356613D01*
Y61009D01*
X356557D01*
Y60953D01*
X356501D01*
Y60897D01*
X356221D01*
Y60953D01*
X356164D01*
Y61065D01*
X356108D01*
Y61233D01*
X356164D01*
Y61346D01*
X356277D01*
Y61402D01*
X356333D01*
Y63422D01*
X360429D01*
Y64544D01*
X360485D01*
Y64488D01*
D02*
G37*
G36*
X351451Y54051D02*
X351563D01*
Y53883D01*
X351620D01*
Y53771D01*
X351563D01*
Y53658D01*
X351507D01*
Y53602D01*
X351171D01*
Y53658D01*
X351114D01*
Y53771D01*
X349319D01*
Y50460D01*
X349263D01*
Y50516D01*
X349207D01*
Y53883D01*
X351058D01*
Y53939D01*
X351114D01*
Y54051D01*
X351227D01*
Y54107D01*
X351451D01*
Y54051D01*
D02*
G37*
G36*
X348253Y51526D02*
X348197D01*
Y51582D01*
X348141D01*
Y51638D01*
X348084D01*
Y51694D01*
X348028D01*
Y51750D01*
X347972D01*
Y51807D01*
X347916D01*
Y51863D01*
X347860D01*
Y51919D01*
X347804D01*
Y51975D01*
X347748D01*
Y52031D01*
X347692D01*
Y52087D01*
X347636D01*
Y52143D01*
X347579D01*
Y52199D01*
X347523D01*
Y52256D01*
X347467D01*
Y52312D01*
X347411D01*
Y52368D01*
X347355D01*
Y52424D01*
X347299D01*
Y52480D01*
X347243D01*
Y52536D01*
X347187D01*
Y52592D01*
X347131D01*
Y52648D01*
X347074D01*
Y52704D01*
X347018D01*
Y52761D01*
X346962D01*
Y52817D01*
X346906D01*
Y52873D01*
X346850D01*
Y52929D01*
X346794D01*
Y52985D01*
X346738D01*
Y53041D01*
X346682D01*
Y53097D01*
X346626D01*
Y53153D01*
X346569D01*
Y53209D01*
X346513D01*
Y53266D01*
X346457D01*
Y53322D01*
X346401D01*
Y53378D01*
X346345D01*
Y53434D01*
X346289D01*
Y53490D01*
X346233D01*
Y53546D01*
X346177D01*
Y53602D01*
X346121D01*
Y53658D01*
X346064D01*
Y53714D01*
X346008D01*
Y53771D01*
X345952D01*
Y53827D01*
X345896D01*
Y53883D01*
X345840D01*
Y53939D01*
X345784D01*
Y53995D01*
X345728D01*
Y54051D01*
X345672D01*
Y54107D01*
X345616D01*
Y54163D01*
X345560D01*
Y54219D01*
X345503D01*
Y54276D01*
X345447D01*
Y54332D01*
X345391D01*
Y54388D01*
X345335D01*
Y54444D01*
X345279D01*
Y54500D01*
X345335D01*
Y54556D01*
X345391D01*
Y54612D01*
X345447D01*
Y54668D01*
X345503D01*
Y54724D01*
X345560D01*
Y54781D01*
X345616D01*
Y54837D01*
X345672D01*
Y54893D01*
X345728D01*
Y54949D01*
X345784D01*
Y55005D01*
X345840D01*
Y55061D01*
X345896D01*
Y55117D01*
X345952D01*
Y55173D01*
X346008D01*
Y55229D01*
X346064D01*
Y55286D01*
X346121D01*
Y55342D01*
X346177D01*
Y55398D01*
X346233D01*
Y55454D01*
X346289D01*
Y55510D01*
X346345D01*
Y55566D01*
X346401D01*
Y55622D01*
X346457D01*
Y55678D01*
X346513D01*
Y55734D01*
X346569D01*
Y55791D01*
X346626D01*
Y55847D01*
X346682D01*
Y55903D01*
X346738D01*
Y55959D01*
X346794D01*
Y56015D01*
X346850D01*
Y56071D01*
X346906D01*
Y56127D01*
X346962D01*
Y56183D01*
X347018D01*
Y56239D01*
X347074D01*
Y56296D01*
X347131D01*
Y56352D01*
X347187D01*
Y56408D01*
X347243D01*
Y56464D01*
X347299D01*
Y56520D01*
X347355D01*
Y56576D01*
X347411D01*
Y56632D01*
X347467D01*
Y56688D01*
X347523D01*
Y56744D01*
X347579D01*
Y56801D01*
X347636D01*
Y56857D01*
X347692D01*
Y56913D01*
X347748D01*
Y56969D01*
X347804D01*
Y57025D01*
X347860D01*
Y57081D01*
X347916D01*
Y57137D01*
X347972D01*
Y57193D01*
X348028D01*
Y57249D01*
X348084D01*
Y57306D01*
X348141D01*
Y57362D01*
X348197D01*
Y57418D01*
X348253D01*
Y51526D01*
D02*
G37*
G36*
X367555Y57418D02*
X367611D01*
Y57362D01*
X367667D01*
Y57306D01*
X367723D01*
Y57249D01*
X367779D01*
Y57193D01*
X367836D01*
Y57137D01*
X367892D01*
Y57081D01*
X367948D01*
Y57025D01*
X368004D01*
Y56969D01*
X368060D01*
Y56913D01*
X368116D01*
Y56857D01*
X368172D01*
Y56801D01*
X368228D01*
Y56744D01*
X368285D01*
Y56688D01*
X368341D01*
Y56632D01*
X368397D01*
Y56576D01*
X368453D01*
Y56520D01*
X368509D01*
Y56464D01*
X368565D01*
Y56408D01*
X368621D01*
Y56352D01*
X368677D01*
Y56296D01*
X368733D01*
Y56239D01*
X368789D01*
Y56183D01*
X368846D01*
Y56127D01*
X368902D01*
Y56071D01*
X368958D01*
Y56015D01*
X369014D01*
Y55959D01*
X369070D01*
Y55903D01*
X369126D01*
Y55847D01*
X369182D01*
Y55791D01*
X369238D01*
Y55734D01*
X369295D01*
Y55678D01*
X369351D01*
Y55622D01*
X369407D01*
Y55566D01*
X369463D01*
Y55510D01*
X369519D01*
Y55454D01*
X369575D01*
Y55398D01*
X369631D01*
Y55342D01*
X369687D01*
Y55286D01*
X369743D01*
Y55229D01*
X369799D01*
Y55173D01*
X369856D01*
Y55117D01*
X369912D01*
Y55061D01*
X369968D01*
Y55005D01*
X370024D01*
Y54949D01*
X370080D01*
Y54893D01*
X370136D01*
Y54837D01*
X370192D01*
Y54781D01*
X370248D01*
Y54724D01*
X370304D01*
Y54668D01*
X370361D01*
Y54612D01*
X370417D01*
Y54556D01*
X370473D01*
Y54500D01*
X370529D01*
Y54444D01*
X370473D01*
Y54388D01*
X370417D01*
Y54332D01*
X370361D01*
Y54276D01*
X370304D01*
Y54219D01*
X370248D01*
Y54163D01*
X370192D01*
Y54107D01*
X370136D01*
Y54051D01*
X370080D01*
Y53995D01*
X370024D01*
Y53939D01*
X369968D01*
Y53883D01*
X369912D01*
Y53827D01*
X369856D01*
Y53771D01*
X369799D01*
Y53714D01*
X369743D01*
Y53658D01*
X369687D01*
Y53602D01*
X369631D01*
Y53546D01*
X369575D01*
Y53490D01*
X369519D01*
Y53434D01*
X369463D01*
Y53378D01*
X369407D01*
Y53322D01*
X369351D01*
Y53266D01*
X369295D01*
Y53209D01*
X369238D01*
Y53153D01*
X369182D01*
Y53097D01*
X369126D01*
Y53041D01*
X369070D01*
Y52985D01*
X369014D01*
Y52929D01*
X368958D01*
Y52873D01*
X368902D01*
Y52817D01*
X368846D01*
Y52761D01*
X368789D01*
Y52704D01*
X368733D01*
Y52648D01*
X368677D01*
Y52592D01*
X368621D01*
Y52536D01*
X368565D01*
Y52480D01*
X368509D01*
Y52424D01*
X368453D01*
Y52368D01*
X368397D01*
Y52312D01*
X368341D01*
Y52256D01*
X368285D01*
Y52199D01*
X368228D01*
Y52143D01*
X368172D01*
Y52087D01*
X368116D01*
Y52031D01*
X368060D01*
Y51975D01*
X368004D01*
Y51919D01*
X367948D01*
Y51863D01*
X367892D01*
Y51807D01*
X367836D01*
Y51750D01*
X367779D01*
Y51694D01*
X367723D01*
Y51638D01*
X367667D01*
Y51582D01*
X367611D01*
Y51526D01*
X367555D01*
Y51470D01*
X367499D01*
Y51414D01*
X367443D01*
Y51358D01*
X367387D01*
Y51302D01*
X367331D01*
Y51246D01*
X367274D01*
Y51189D01*
X367218D01*
Y51133D01*
X367162D01*
Y51077D01*
X367106D01*
Y51021D01*
X367050D01*
Y50965D01*
X366994D01*
Y50909D01*
X366938D01*
Y50853D01*
X366882D01*
Y50797D01*
X366826D01*
Y50741D01*
X366770D01*
Y50684D01*
X366713D01*
Y50628D01*
X366657D01*
Y50572D01*
X366601D01*
Y50516D01*
X366545D01*
Y50460D01*
X366489D01*
Y50404D01*
X366433D01*
Y50348D01*
X366377D01*
Y50292D01*
X366321D01*
Y50236D01*
X366264D01*
Y50179D01*
X366208D01*
Y50123D01*
X366152D01*
Y50067D01*
X366096D01*
Y50011D01*
X366040D01*
Y49955D01*
X365984D01*
Y49899D01*
X365928D01*
Y49843D01*
X365872D01*
Y54500D01*
X367499D01*
Y54556D01*
X367555D01*
Y54612D01*
X367499D01*
Y55173D01*
X367555D01*
Y55229D01*
X367499D01*
Y55398D01*
X364525D01*
Y52704D01*
X364581D01*
Y52648D01*
X364637D01*
Y52592D01*
X364693D01*
Y52312D01*
X364637D01*
Y52256D01*
X364581D01*
Y52199D01*
X364525D01*
Y48440D01*
X364469D01*
Y48384D01*
X364413D01*
Y48328D01*
X364357D01*
Y52199D01*
X364301D01*
Y52256D01*
X364245D01*
Y52312D01*
X364188D01*
Y52592D01*
X364245D01*
Y52648D01*
X364301D01*
Y52704D01*
X364357D01*
Y55510D01*
X367499D01*
Y55566D01*
X367555D01*
Y55622D01*
X367499D01*
Y55678D01*
X367555D01*
Y56015D01*
X367499D01*
Y57362D01*
X367555D01*
Y57418D01*
X367499D01*
Y57474D01*
X367555D01*
Y57418D01*
D02*
G37*
G36*
X350385Y51133D02*
X350441D01*
Y51077D01*
X350385D01*
Y49731D01*
X350441D01*
Y49674D01*
X350385D01*
Y49618D01*
X350441D01*
Y49394D01*
X350329D01*
Y49899D01*
Y49955D01*
Y51077D01*
X350273D01*
Y51133D01*
X350329D01*
Y51189D01*
X350385D01*
Y51133D01*
D02*
G37*
G36*
X365423Y49338D02*
X365367D01*
Y49282D01*
X365311D01*
Y50292D01*
Y50348D01*
Y50404D01*
X365423D01*
Y49338D01*
D02*
G37*
G36*
X363627Y48945D02*
Y48889D01*
Y47542D01*
X363571D01*
Y47486D01*
X363515D01*
Y49955D01*
X363627D01*
Y48945D01*
D02*
G37*
G36*
X354818Y44961D02*
X354762D01*
Y45017D01*
X354706D01*
Y45073D01*
X354649D01*
Y45129D01*
X354593D01*
Y45186D01*
X354537D01*
Y45242D01*
X354481D01*
Y45298D01*
X354425D01*
Y45354D01*
X354369D01*
Y45410D01*
X354313D01*
Y45466D01*
X354257D01*
Y45522D01*
X354201D01*
Y45578D01*
X354145D01*
Y45634D01*
X354088D01*
Y45691D01*
X354032D01*
Y45747D01*
X353976D01*
Y45803D01*
X353920D01*
Y45859D01*
X353864D01*
Y45915D01*
X353808D01*
Y45971D01*
X353752D01*
Y46027D01*
X353696D01*
Y46083D01*
X353639D01*
Y46139D01*
X353583D01*
Y46196D01*
X353527D01*
Y46252D01*
X353471D01*
Y46308D01*
X353415D01*
Y46364D01*
X353359D01*
Y46420D01*
X353303D01*
Y46476D01*
X353247D01*
Y46532D01*
X353191D01*
Y46588D01*
X353134D01*
Y46644D01*
X353078D01*
Y46701D01*
X353022D01*
Y46757D01*
X352966D01*
Y46813D01*
X352910D01*
Y46869D01*
X352854D01*
Y46925D01*
X352798D01*
Y46981D01*
X352742D01*
Y47037D01*
X352686D01*
Y47093D01*
X352629D01*
Y47149D01*
X352573D01*
Y47205D01*
X352517D01*
Y47262D01*
X352461D01*
Y47318D01*
X352405D01*
Y47374D01*
X352349D01*
Y47430D01*
X352293D01*
Y47486D01*
X352237D01*
Y47542D01*
X352181D01*
Y47598D01*
X352124D01*
Y47654D01*
X352068D01*
Y47711D01*
X352012D01*
Y47767D01*
X351956D01*
Y47823D01*
X351900D01*
Y47879D01*
X351844D01*
Y47935D01*
X351788D01*
Y47991D01*
X351732D01*
Y48047D01*
X351676D01*
Y48103D01*
X351620D01*
Y48159D01*
X351563D01*
Y48216D01*
X351507D01*
Y48272D01*
X351451D01*
Y48328D01*
X351395D01*
Y48384D01*
X351339D01*
Y50067D01*
Y50123D01*
Y52761D01*
X353527D01*
Y54893D01*
X353359D01*
Y54949D01*
X353303D01*
Y54893D01*
X351339D01*
Y55734D01*
X353808D01*
Y55791D01*
X353864D01*
Y58091D01*
X353808D01*
Y58147D01*
X348982D01*
Y58203D01*
X349038D01*
Y58259D01*
X349095D01*
Y58315D01*
X349151D01*
Y58372D01*
X349207D01*
Y58428D01*
X349263D01*
Y58484D01*
X349319D01*
Y58540D01*
X349375D01*
Y58596D01*
X349431D01*
Y58652D01*
X349487D01*
Y58708D01*
X349543D01*
Y58764D01*
X349599D01*
Y58821D01*
X349656D01*
Y58877D01*
X349712D01*
Y58933D01*
X349768D01*
Y58989D01*
X349824D01*
Y59045D01*
X349880D01*
Y59101D01*
X349936D01*
Y59157D01*
X349992D01*
Y59213D01*
X350048D01*
Y59269D01*
X350104D01*
Y59325D01*
X350161D01*
Y59382D01*
X350217D01*
Y59438D01*
X350273D01*
Y59494D01*
X350329D01*
Y59550D01*
X350385D01*
Y59606D01*
X350441D01*
Y59662D01*
X350497D01*
Y59718D01*
X350553D01*
Y59774D01*
X350609D01*
Y59831D01*
X350666D01*
Y59887D01*
X350722D01*
Y59943D01*
X350778D01*
Y59999D01*
X350834D01*
Y60055D01*
X350890D01*
Y60111D01*
X350946D01*
Y60167D01*
X351002D01*
Y60223D01*
X351058D01*
Y60279D01*
X351114D01*
Y60336D01*
X351171D01*
Y60392D01*
X351227D01*
Y60448D01*
X351283D01*
Y60504D01*
X351339D01*
Y60560D01*
X351395D01*
Y60616D01*
X351451D01*
Y60672D01*
X351507D01*
Y60728D01*
X351563D01*
Y60784D01*
X351620D01*
Y60840D01*
X351676D01*
Y60897D01*
X351732D01*
Y60953D01*
X351788D01*
Y61009D01*
X351844D01*
Y61065D01*
X351900D01*
Y61121D01*
X351956D01*
Y61177D01*
X352012D01*
Y61233D01*
X352068D01*
Y61289D01*
X352124D01*
Y61346D01*
X352181D01*
Y61402D01*
X352237D01*
Y61458D01*
X352293D01*
Y61514D01*
X352349D01*
Y61570D01*
X352405D01*
Y61626D01*
X352461D01*
Y61682D01*
X352517D01*
Y61738D01*
X352573D01*
Y61794D01*
X352629D01*
Y61851D01*
X352686D01*
Y61907D01*
X352742D01*
Y61963D01*
X352798D01*
Y62019D01*
X352854D01*
Y62075D01*
X352910D01*
Y62131D01*
X352966D01*
Y62187D01*
X353022D01*
Y62243D01*
X353078D01*
Y62299D01*
X353134D01*
Y62356D01*
X353191D01*
Y62412D01*
X353247D01*
Y62468D01*
X353303D01*
Y62524D01*
X353359D01*
Y62580D01*
X353415D01*
Y62636D01*
X353471D01*
Y62692D01*
X353527D01*
Y62748D01*
X353583D01*
Y62804D01*
X353639D01*
Y62861D01*
X353696D01*
Y62917D01*
X353752D01*
Y62973D01*
X353808D01*
Y63029D01*
X353864D01*
Y63085D01*
X353920D01*
Y63141D01*
X353976D01*
Y63197D01*
X354032D01*
Y63253D01*
X354088D01*
Y63309D01*
X354145D01*
Y63366D01*
X354201D01*
Y63422D01*
X354257D01*
Y63478D01*
X354313D01*
Y63534D01*
X354369D01*
Y63590D01*
X354425D01*
Y63646D01*
X354481D01*
Y63702D01*
X354537D01*
Y63758D01*
X354593D01*
Y63814D01*
X354649D01*
Y63871D01*
X354706D01*
Y63927D01*
X354762D01*
Y63983D01*
X354818D01*
Y44961D01*
D02*
G37*
G36*
X359363Y45578D02*
X359419D01*
Y43334D01*
X359363D01*
Y43278D01*
X359307D01*
Y44232D01*
Y44288D01*
Y45634D01*
X359363D01*
Y45578D01*
D02*
G37*
G36*
X356501Y45747D02*
X356557D01*
Y43222D01*
X356501D01*
Y43278D01*
X356445D01*
Y45129D01*
Y45186D01*
Y45803D01*
X356501D01*
Y45747D01*
D02*
G37*
G36*
X357960Y46532D02*
X358072D01*
Y46476D01*
X358128D01*
Y46420D01*
X358185D01*
Y46196D01*
X358128D01*
Y46139D01*
X358072D01*
Y46083D01*
X358016D01*
Y46027D01*
X357960D01*
Y41875D01*
X357848D01*
Y42436D01*
Y42492D01*
Y46083D01*
X357736D01*
Y46139D01*
X357679D01*
Y46476D01*
X357736D01*
Y46532D01*
X357848D01*
Y46588D01*
X357960D01*
Y46532D01*
D02*
G37*
%LPC*%
G36*
X349712Y32392D02*
X349543D01*
Y32336D01*
X349431D01*
Y32280D01*
X349319D01*
Y32168D01*
X349263D01*
Y32056D01*
Y31999D01*
Y31831D01*
X349319D01*
Y31775D01*
X349375D01*
Y31719D01*
X349431D01*
Y31663D01*
X349768D01*
Y31719D01*
X349880D01*
Y31775D01*
X349936D01*
Y31943D01*
X349992D01*
Y32112D01*
X349936D01*
Y32224D01*
X349880D01*
Y32280D01*
X349824D01*
Y32336D01*
X349712D01*
Y32392D01*
D02*
G37*
G36*
X371876D02*
X371763D01*
Y32336D01*
X371651D01*
Y32280D01*
X371539D01*
Y32168D01*
X371483D01*
Y31831D01*
X371539D01*
Y31775D01*
X371595D01*
Y31719D01*
X371651D01*
Y31663D01*
X371988D01*
Y31719D01*
X372044D01*
Y31775D01*
X372100D01*
Y31887D01*
X372156D01*
Y32112D01*
X372100D01*
Y32224D01*
X372044D01*
Y32280D01*
X371988D01*
Y32336D01*
X371876D01*
Y32392D01*
D02*
G37*
G36*
X357455D02*
X357287D01*
Y32336D01*
X357174D01*
Y32280D01*
X357118D01*
Y32224D01*
X357062D01*
Y31831D01*
X357118D01*
Y31719D01*
X357231D01*
Y31663D01*
X357567D01*
Y31719D01*
X357623D01*
Y31775D01*
X357679D01*
Y31943D01*
X357736D01*
Y32056D01*
X357679D01*
Y32224D01*
X357623D01*
Y32280D01*
X357567D01*
Y32336D01*
X357455D01*
Y32392D01*
D02*
G37*
G36*
X355154D02*
X355042D01*
Y32336D01*
X354874D01*
Y32280D01*
X354818D01*
Y32168D01*
X354762D01*
Y31831D01*
X354818D01*
Y31775D01*
X354874D01*
Y31719D01*
X354930D01*
Y31663D01*
X355267D01*
Y31719D01*
X355323D01*
Y31775D01*
X355379D01*
Y31943D01*
X355435D01*
Y32056D01*
X355379D01*
Y32224D01*
X355323D01*
Y32280D01*
X355267D01*
Y32336D01*
X355154D01*
Y32392D01*
D02*
G37*
G36*
X352124D02*
X351956D01*
Y32336D01*
X351844D01*
Y32280D01*
X351788D01*
Y32224D01*
X351732D01*
Y32056D01*
X351676D01*
Y31943D01*
X351732D01*
Y31831D01*
X351788D01*
Y31719D01*
X351844D01*
Y31663D01*
X352181D01*
Y31719D01*
X352293D01*
Y31831D01*
X352349D01*
Y32224D01*
X352293D01*
Y32280D01*
X352237D01*
Y32336D01*
X352124D01*
Y32392D01*
D02*
G37*
G36*
X365759D02*
X365591D01*
Y32336D01*
X365479D01*
Y32280D01*
X365423D01*
Y32224D01*
X365367D01*
Y32112D01*
X365984D01*
Y32168D01*
X365928D01*
Y32280D01*
X365872D01*
Y32336D01*
X365759D01*
Y32392D01*
D02*
G37*
G36*
X364637D02*
X364469D01*
Y32336D01*
X364357D01*
Y32280D01*
X364301D01*
Y32224D01*
X364245D01*
Y31831D01*
X364301D01*
Y31775D01*
X364357D01*
Y31719D01*
X364413D01*
Y31663D01*
X364749D01*
Y31719D01*
X364806D01*
Y31775D01*
X364862D01*
Y31999D01*
X364918D01*
Y32056D01*
X364862D01*
Y32224D01*
X364806D01*
Y32280D01*
X364749D01*
Y32336D01*
X364637D01*
Y32392D01*
D02*
G37*
G36*
X361663D02*
X361495D01*
Y32336D01*
X361383D01*
Y32280D01*
X361327D01*
Y32224D01*
X361271D01*
Y32112D01*
X361888D01*
Y32168D01*
X361832D01*
Y32280D01*
X361719D01*
Y32336D01*
X361663D01*
Y32392D01*
D02*
G37*
G36*
X353303D02*
X353134D01*
Y32336D01*
X353022D01*
Y32280D01*
X352966D01*
Y32224D01*
X352910D01*
Y32112D01*
X353527D01*
Y32168D01*
X353471D01*
Y32280D01*
X353359D01*
Y32336D01*
X353303D01*
Y32392D01*
D02*
G37*
G36*
X345616D02*
X345503D01*
Y32336D01*
X345335D01*
Y32280D01*
X345279D01*
Y32224D01*
X345223D01*
Y32056D01*
X345167D01*
Y31943D01*
X345223D01*
Y31831D01*
X345279D01*
Y31719D01*
X345391D01*
Y31663D01*
X345728D01*
Y31719D01*
X345784D01*
Y31775D01*
X345840D01*
Y31831D01*
X345896D01*
Y32168D01*
X345840D01*
Y32280D01*
X345728D01*
Y32336D01*
X345616D01*
Y32392D01*
D02*
G37*
G36*
X344157Y32953D02*
X343876D01*
Y32448D01*
X344101D01*
Y32392D01*
X344157D01*
Y32280D01*
X343876D01*
Y32056D01*
Y31999D01*
Y31663D01*
X344269D01*
Y31719D01*
X344381D01*
Y31775D01*
X344493D01*
Y31831D01*
X344549D01*
Y31887D01*
X344606D01*
Y31999D01*
X344662D01*
Y32561D01*
X344606D01*
Y32673D01*
X344549D01*
Y32729D01*
X344493D01*
Y32785D01*
X344437D01*
Y32841D01*
X344325D01*
Y32897D01*
X344157D01*
Y32953D01*
D02*
G37*
%LPD*%
D10*
X265200Y228200D02*
G03*
X265200Y228200I-5000J0D01*
G01*
X108200Y143000D02*
G03*
X108200Y143000I-5000J0D01*
G01*
X161468Y201400D02*
G03*
X161468Y201400I-5000J0D01*
G01*
X49968Y201500D02*
G03*
X49968Y201500I-5000J0D01*
G01*
X108200Y258000D02*
G03*
X108200Y258000I-5000J0D01*
G01*
X613200D02*
G03*
X613200Y258000I-5000J0D01*
G01*
X669732Y201500D02*
G03*
X669732Y201500I-5000J0D01*
G01*
X613200Y143000D02*
G03*
X613200Y143000I-5000J0D01*
G01*
X557232Y201500D02*
G03*
X557232Y201500I-5000J0D01*
G01*
X454968Y228200D02*
G03*
X454968Y228200I-5000J0D01*
G01*
X180200Y328500D02*
G03*
X180200Y328500I-5000J0D01*
G01*
X540200D02*
G03*
X540200Y328500I-5000J0D01*
G01*
X360821Y185500D02*
G03*
X360821Y185500I-5000J0D01*
G01*
X271200Y224200D02*
Y233700D01*
X252700Y238700D02*
X268100D01*
X248700Y224200D02*
Y233700D01*
X252700Y218700D02*
X268200D01*
X95700Y133500D02*
X111200D01*
X91700Y139000D02*
Y148500D01*
X95700Y153500D02*
X111100D01*
X114200Y139000D02*
Y148500D01*
X167468Y197400D02*
Y206900D01*
X148968Y211900D02*
X164368D01*
X144968Y197400D02*
Y206900D01*
X148968Y191900D02*
X164468D01*
X55968Y197500D02*
Y207000D01*
X37468Y212000D02*
X52868D01*
X33468Y197500D02*
Y207000D01*
X37468Y192000D02*
X52968D01*
X95700Y248500D02*
X111200D01*
X91700Y254000D02*
Y263500D01*
X95700Y268500D02*
X111100D01*
X114200Y254000D02*
Y263500D01*
X619200Y254000D02*
Y263500D01*
X600700Y268500D02*
X616100D01*
X596700Y254000D02*
Y263500D01*
X600700Y248500D02*
X616200D01*
X675732Y197500D02*
Y207000D01*
X657232Y212000D02*
X672632D01*
X653232Y197500D02*
Y207000D01*
X657232Y192000D02*
X672732D01*
X600700Y133500D02*
X616200D01*
X596700Y139000D02*
Y148500D01*
X600700Y153500D02*
X616100D01*
X619200Y139000D02*
Y148500D01*
X544732Y192000D02*
X560232D01*
X540732Y197500D02*
Y207000D01*
X544732Y212000D02*
X560132D01*
X563232Y197500D02*
Y207000D01*
X442468Y218700D02*
X457968D01*
X438468Y224200D02*
Y233700D01*
X442468Y238700D02*
X457868D01*
X460968Y224200D02*
Y233700D01*
X167700Y319000D02*
X183200D01*
X163700Y324500D02*
Y334000D01*
X167700Y339000D02*
X183100D01*
X186200Y324500D02*
Y334000D01*
X527700Y319000D02*
X543200D01*
X523700Y324500D02*
Y334000D01*
X527700Y339000D02*
X543100D01*
X546200Y324500D02*
Y334000D01*
X348321Y176000D02*
X363821D01*
X344321Y181500D02*
Y191000D01*
X348321Y196000D02*
X363721D01*
X366821Y181500D02*
Y191000D01*
D11*
X174236Y202887D02*
G03*
X174248Y201992I-72236J-1387D01*
G01*
X119279Y202000D02*
G03*
X119279Y202000I-16279J0D01*
G01*
X619609Y202163D02*
G03*
X619618Y202006I-10609J-663D01*
G01*
X627398Y201500D02*
G03*
X627398Y201500I-18398J0D01*
G01*
X681019Y202825D02*
G03*
X681025Y202460I-72019J-1326D01*
G01*
X624250Y190250D02*
X661500Y153000D01*
X557500Y152500D02*
X594500Y189500D01*
X556500Y250500D02*
X594000Y213000D01*
X623500Y213500D02*
X661000Y251000D01*
X115000Y190500D02*
X154000Y151500D01*
X52000Y149500D02*
X91500Y189000D01*
X115000Y214000D02*
X153500Y252500D01*
X52000Y253000D02*
X91000Y214000D01*
X229800Y340600D02*
X234300D01*
X219700D02*
X224200D01*
X224500Y324500D02*
X229500D01*
Y334500D01*
X224500D02*
X229500D01*
X224500Y324500D02*
Y334500D01*
X219700Y318400D02*
Y340600D01*
X234300Y318400D02*
Y340600D01*
X229800Y318400D02*
X234300D01*
X219700D02*
X224200D01*
X261321Y286900D02*
X265821D01*
X271421D02*
X275921D01*
X266121Y303000D02*
X271121D01*
X266121Y293000D02*
Y303000D01*
Y293000D02*
X271121D01*
Y303000D01*
X275921Y286900D02*
Y309100D01*
X261321Y286900D02*
Y309100D01*
X265821D01*
X271421D02*
X275921D01*
X486300Y340600D02*
X490800D01*
X476200D02*
X480700D01*
X481000Y324500D02*
X486000D01*
Y334500D01*
X481000D02*
X486000D01*
X481000Y324500D02*
Y334500D01*
X476200Y318400D02*
Y340600D01*
X490800Y318400D02*
Y340600D01*
X486300Y318400D02*
X490800D01*
X476200D02*
X480700D01*
X435821Y286900D02*
X440321D01*
X445921D02*
X450421D01*
X440621Y303000D02*
X445621D01*
X440621Y293000D02*
Y303000D01*
Y293000D02*
X445621D01*
Y303000D01*
X450421Y286900D02*
Y309100D01*
X435821Y286900D02*
Y309100D01*
X440321D01*
X445921D02*
X450421D01*
X500Y56650D02*
X22921Y34229D01*
X500Y56650D02*
Y332091D01*
X411000Y230500D02*
X434622D01*
X276878Y229500D02*
X300500D01*
X404138Y288264D02*
X435634D01*
X276162Y285662D02*
X307658D01*
X520000Y136000D02*
Y144000D01*
X453000Y136000D02*
Y144000D01*
X192000Y136000D02*
X259000D01*
X435505Y135500D02*
X538000Y136000D01*
X435500Y13000D02*
X538000D01*
Y144102D01*
X435500Y13000D02*
Y144102D01*
X435500Y144116D02*
X537862Y144209D01*
X174138Y144102D02*
X276500D01*
Y13000D02*
Y144102D01*
X259000Y136000D02*
Y144000D01*
Y136000D02*
X276717D01*
X192000D02*
Y143874D01*
X174000Y136000D02*
X192000D01*
X174138Y13000D02*
Y144102D01*
Y13000D02*
X276500D01*
X686621Y355000D02*
X709270Y332351D01*
X637621Y332500D02*
X659892Y354771D01*
X598121Y332500D02*
X637491D01*
X542121Y388500D02*
X598121Y332500D01*
X167649Y388057D02*
X168092Y388500D01*
X500Y332379D02*
X22771Y354650D01*
X111971Y332379D02*
X167649Y388057D01*
X72601Y332379D02*
X111971D01*
X50330Y354650D02*
X72601Y332379D01*
X22771Y354650D02*
X50330D01*
X686999Y33907D02*
X709270Y56178D01*
X659440Y33907D02*
X686999D01*
X22921Y34229D02*
X50480D01*
X72751Y56500D01*
X637169Y56178D02*
X659440Y33907D01*
X72751Y56500D02*
X112121D01*
X597799Y56178D02*
X637169Y56178D01*
X112121Y56500D02*
X168121Y500D01*
X542121D01*
X597799Y56178D01*
X709270D02*
Y332351D01*
X660121Y355000D02*
X686621D01*
X168092Y388500D02*
X542108D01*
X396121Y337500D02*
X403995D01*
X396121D02*
Y345374D01*
X315621Y337500D02*
Y345374D01*
X307621Y337500D02*
X315495D01*
X307621Y345343D02*
X404034D01*
X404078Y239000D02*
Y345299D01*
X307621Y239043D02*
Y345343D01*
Y239000D02*
X404078D01*
X249004Y249499D02*
X248004Y250499D01*
X246005D01*
X245005Y249499D01*
Y248500D01*
X246005Y247500D01*
X248004D01*
X249004Y246500D01*
Y245501D01*
X248004Y244501D01*
X246005D01*
X245005Y245501D01*
X254002Y244501D02*
X252003D01*
X251003Y245501D01*
Y247500D01*
X252003Y248500D01*
X254002D01*
X255002Y247500D01*
Y246500D01*
X251003D01*
X257001Y244501D02*
X259000D01*
X258001D01*
Y250499D01*
X257001D01*
X264999Y244501D02*
X262999D01*
X262000Y245501D01*
Y247500D01*
X262999Y248500D01*
X264999D01*
X265998Y247500D01*
Y246500D01*
X262000D01*
X271996Y248500D02*
X268997D01*
X267998Y247500D01*
Y245501D01*
X268997Y244501D01*
X271996D01*
X274995Y249499D02*
Y248500D01*
X273996D01*
X275995D01*
X274995D01*
Y245501D01*
X275995Y244501D01*
X504502Y33499D02*
X503502Y32499D01*
Y30500D01*
X504502Y29500D01*
X505501D01*
X506501Y30500D01*
Y32499D01*
X507501Y33499D01*
X508500D01*
X509500Y32499D01*
Y30500D01*
X508500Y29500D01*
X503502Y35498D02*
X509500D01*
X507501Y37497D01*
X509500Y39497D01*
X503502D01*
X493502Y29500D02*
X497501D01*
X499500Y31499D01*
X497501Y33499D01*
X493502D01*
X499500Y35498D02*
X493502D01*
Y38497D01*
X494502Y39497D01*
X496501D01*
X497501Y38497D01*
Y35498D01*
Y37497D02*
X499500Y39497D01*
X493502Y41496D02*
X494502D01*
X496501Y43496D01*
X494502Y45495D01*
X493502D01*
X496501Y43496D02*
X499500D01*
X483502Y29500D02*
X487501D01*
X489500Y31499D01*
X487501Y33499D01*
X483502D01*
X489500Y35498D02*
X483502D01*
Y38497D01*
X484502Y39497D01*
X486501D01*
X487501Y38497D01*
Y35498D01*
Y37497D02*
X489500Y39497D01*
X483502Y41496D02*
X489500Y45495D01*
X483502D02*
X489500Y41496D01*
X473502Y29500D02*
X477501D01*
X479500Y31499D01*
X477501Y33499D01*
X473502D01*
X474502Y39497D02*
X473502Y38497D01*
Y36498D01*
X474502Y35498D01*
X478500D01*
X479500Y36498D01*
Y38497D01*
X478500Y39497D01*
X474502Y45495D02*
X473502Y44495D01*
Y42496D01*
X474502Y41496D01*
X478500D01*
X479500Y42496D01*
Y44495D01*
X478500Y45495D01*
X464002Y33499D02*
X463002Y32499D01*
Y30500D01*
X464002Y29500D01*
X468000D01*
X469000Y30500D01*
Y32499D01*
X468000Y33499D01*
X466001D01*
Y31499D01*
X469000Y35498D02*
X463002D01*
X469000Y39497D01*
X463002D01*
Y41496D02*
X469000D01*
Y44495D01*
X468000Y45495D01*
X464002D01*
X463002Y44495D01*
Y41496D01*
X202502Y32999D02*
X201502Y31999D01*
Y30000D01*
X202502Y29000D01*
X206500D01*
X207500Y30000D01*
Y31999D01*
X206500Y32999D01*
X204501D01*
Y30999D01*
X207500Y34998D02*
X201502D01*
X207500Y38997D01*
X201502D01*
Y40996D02*
X207500D01*
Y43995D01*
X206500Y44995D01*
X202502D01*
X201502Y43995D01*
Y40996D01*
X212002Y29500D02*
X216001D01*
X218000Y31499D01*
X216001Y33499D01*
X212002D01*
X213002Y39497D02*
X212002Y38497D01*
Y36498D01*
X213002Y35498D01*
X217000D01*
X218000Y36498D01*
Y38497D01*
X217000Y39497D01*
X213002Y45495D02*
X212002Y44495D01*
Y42496D01*
X213002Y41496D01*
X217000D01*
X218000Y42496D01*
Y44495D01*
X217000Y45495D01*
X222502Y29500D02*
X226501D01*
X228500Y31499D01*
X226501Y33499D01*
X222502D01*
X228500Y35498D02*
X222502D01*
Y38497D01*
X223502Y39497D01*
X225501D01*
X226501Y38497D01*
Y35498D01*
Y37497D02*
X228500Y39497D01*
X222502Y41496D02*
X228500Y45495D01*
X222502D02*
X228500Y41496D01*
X232502Y29500D02*
X236501D01*
X238500Y31499D01*
X236501Y33499D01*
X232502D01*
X238500Y35498D02*
X232502D01*
Y38497D01*
X233502Y39497D01*
X235501D01*
X236501Y38497D01*
Y35498D01*
Y37497D02*
X238500Y39497D01*
X232502Y41496D02*
X233502D01*
X235501Y43496D01*
X233502Y45495D01*
X232502D01*
X235501Y43496D02*
X238500D01*
X243002Y33499D02*
X242002Y32499D01*
Y30500D01*
X243002Y29500D01*
X244001D01*
X245001Y30500D01*
Y32499D01*
X246001Y33499D01*
X247000D01*
X248000Y32499D01*
Y30500D01*
X247000Y29500D01*
X242002Y35498D02*
X248000D01*
X246001Y37497D01*
X248000Y39497D01*
X242002D01*
X342998Y232001D02*
X343998Y233001D01*
Y235000D01*
X342998Y236000D01*
X341999D01*
X340999Y235000D01*
Y233001D01*
X339999Y232001D01*
X339000D01*
X338000Y233001D01*
Y235000D01*
X339000Y236000D01*
X343998Y230002D02*
X338000D01*
Y227003D01*
X339000Y226003D01*
X342998D01*
X343998Y227003D01*
Y230002D01*
X338000Y224004D02*
X341999D01*
X343998Y222005D01*
X341999Y220005D01*
X338000D01*
X340999D01*
Y224004D01*
X352998Y232001D02*
X353998Y233001D01*
Y235000D01*
X352998Y236000D01*
X351999D01*
X350999Y235000D01*
Y233001D01*
X349999Y232001D01*
X349000D01*
X348000Y233001D01*
Y235000D01*
X349000Y236000D01*
X352998Y226003D02*
X353998Y227003D01*
Y229002D01*
X352998Y230002D01*
X349000D01*
X348000Y229002D01*
Y227003D01*
X349000Y226003D01*
X353998Y224004D02*
X348000D01*
Y220005D01*
X363998Y236000D02*
X359999D01*
X358000Y234001D01*
X359999Y232001D01*
X363998D01*
X362998Y226003D02*
X363998Y227003D01*
Y229002D01*
X362998Y230002D01*
X359000D01*
X358000Y229002D01*
Y227003D01*
X359000Y226003D01*
X362998Y220005D02*
X363998Y221005D01*
Y223004D01*
X362998Y224004D01*
X359000D01*
X358000Y223004D01*
Y221005D01*
X359000Y220005D01*
X373998Y232001D02*
X374998Y233001D01*
Y235000D01*
X373998Y236000D01*
X370000D01*
X369000Y235000D01*
Y233001D01*
X370000Y232001D01*
X371999D01*
Y234001D01*
X369000Y230002D02*
X374998D01*
X369000Y226003D01*
X374998D01*
Y224004D02*
X369000D01*
Y221005D01*
X370000Y220005D01*
X373998D01*
X374998Y221005D01*
Y224004D01*
X606001Y282499D02*
Y281499D01*
X608000Y279500D01*
X609999Y281499D01*
Y282499D01*
X608000Y279500D02*
Y276501D01*
X550501Y225499D02*
X554499Y219501D01*
Y225499D02*
X550501Y219501D01*
X441003Y249999D02*
X440003Y250999D01*
X438004D01*
X437004Y249999D01*
Y249000D01*
X438004Y248000D01*
X440003D01*
X441003Y247000D01*
Y246001D01*
X440003Y245001D01*
X438004D01*
X437004Y246001D01*
X444002Y249999D02*
Y249000D01*
X443002D01*
X445002D01*
X444002D01*
Y246001D01*
X445002Y245001D01*
X449000Y249000D02*
X450999D01*
X451999Y248000D01*
Y245001D01*
X449000D01*
X448000Y246001D01*
X449000Y247000D01*
X451999D01*
X453999Y249000D02*
Y245001D01*
Y247000D01*
X454998Y248000D01*
X455998Y249000D01*
X456998D01*
X460996Y249999D02*
Y249000D01*
X459997D01*
X461996D01*
X460996D01*
Y246001D01*
X461996Y245001D01*
X472999Y321003D02*
X467001D01*
Y324002D01*
X468001Y325001D01*
X470000D01*
X471000Y324002D01*
Y321003D01*
Y323002D02*
X472999Y325001D01*
X467001Y327001D02*
Y330999D01*
Y329000D01*
X472999D01*
Y336997D02*
Y332999D01*
X469000Y336997D01*
X468001D01*
X467001Y335998D01*
Y333998D01*
X468001Y332999D01*
X527502Y345501D02*
Y351499D01*
X530501D01*
X531501Y350499D01*
Y348500D01*
X530501Y347500D01*
X527502D01*
X529502D02*
X531501Y345501D01*
X533500Y351499D02*
X537499D01*
X535500D01*
Y345501D01*
X539498D02*
X541498D01*
X540498D01*
Y351499D01*
X539498Y350499D01*
X435003Y336501D02*
Y342499D01*
X438002D01*
X439001Y341499D01*
Y339500D01*
X438002Y338500D01*
X435003D01*
X437002D02*
X439001Y336501D01*
X444999D02*
X441001D01*
X444999Y340500D01*
Y341499D01*
X444000Y342499D01*
X442000D01*
X441001Y341499D01*
X446999D02*
X447998Y342499D01*
X449998D01*
X450997Y341499D01*
Y340500D01*
X449998Y339500D01*
X448998D01*
X449998D01*
X450997Y338500D01*
Y337501D01*
X449998Y336501D01*
X447998D01*
X446999Y337501D01*
X261003Y336001D02*
Y341999D01*
X264002D01*
X265001Y340999D01*
Y339000D01*
X264002Y338000D01*
X261003D01*
X263002D02*
X265001Y336001D01*
X270999D02*
X267001D01*
X270999Y340000D01*
Y340999D01*
X270000Y341999D01*
X268000D01*
X267001Y340999D01*
X276997Y336001D02*
X272999D01*
X276997Y340000D01*
Y340999D01*
X275998Y341999D01*
X273998D01*
X272999Y340999D01*
X459502Y305001D02*
Y310999D01*
X462501D01*
X463501Y309999D01*
Y308000D01*
X462501Y307000D01*
X459502D01*
X461502D02*
X463501Y305001D01*
X469499D02*
X465500D01*
X469499Y309000D01*
Y309999D01*
X468499Y310999D01*
X466500D01*
X465500Y309999D01*
X471498Y305001D02*
X473498D01*
X472498D01*
Y310999D01*
X471498Y309999D01*
X348003Y154501D02*
Y160499D01*
X351002D01*
X352001Y159499D01*
Y157500D01*
X351002Y156500D01*
X348003D01*
X350002D02*
X352001Y154501D01*
X357999D02*
X354001D01*
X357999Y158500D01*
Y159499D01*
X357000Y160499D01*
X355000D01*
X354001Y159499D01*
X359999D02*
X360998Y160499D01*
X362998D01*
X363997Y159499D01*
Y155501D01*
X362998Y154501D01*
X360998D01*
X359999Y155501D01*
Y159499D01*
X237502Y305001D02*
Y310999D01*
X240501D01*
X241501Y309999D01*
Y308000D01*
X240501Y307000D01*
X237502D01*
X239502D02*
X241501Y305001D01*
X243500D02*
X245500D01*
X244500D01*
Y310999D01*
X243500Y309999D01*
X248499Y306001D02*
X249499Y305001D01*
X251498D01*
X252498Y306001D01*
Y309999D01*
X251498Y310999D01*
X249499D01*
X248499Y309999D01*
Y309000D01*
X249499Y308000D01*
X252498D01*
X149002Y168001D02*
Y173999D01*
X152002D01*
X153001Y172999D01*
Y171000D01*
X152002Y170000D01*
X149002D01*
X151002D02*
X153001Y168001D01*
X155000D02*
X157000D01*
X156000D01*
Y173999D01*
X155000Y172999D01*
X159999D02*
X160999Y173999D01*
X162998D01*
X163998Y172999D01*
Y172000D01*
X162998Y171000D01*
X163998Y170000D01*
Y169001D01*
X162998Y168001D01*
X160999D01*
X159999Y169001D01*
Y170000D01*
X160999Y171000D01*
X159999Y172000D01*
Y172999D01*
X160999Y171000D02*
X162998D01*
X95502Y110001D02*
Y115999D01*
X98501D01*
X99501Y114999D01*
Y113000D01*
X98501Y112000D01*
X95502D01*
X97502D02*
X99501Y110001D01*
X101500D02*
X103500D01*
X102500D01*
Y115999D01*
X101500Y114999D01*
X106499Y115999D02*
X110498D01*
Y114999D01*
X106499Y111001D01*
Y110001D01*
X37502Y168001D02*
Y173999D01*
X40501D01*
X41501Y172999D01*
Y171000D01*
X40501Y170000D01*
X37502D01*
X39502D02*
X41501Y168001D01*
X43501D02*
X45500D01*
X44500D01*
Y173999D01*
X43501Y172999D01*
X52498Y173999D02*
X50498Y172999D01*
X48499Y171000D01*
Y169001D01*
X49499Y168001D01*
X51498D01*
X52498Y169001D01*
Y170000D01*
X51498Y171000D01*
X48499D01*
X95502Y225001D02*
Y230999D01*
X98501D01*
X99501Y229999D01*
Y228000D01*
X98501Y227000D01*
X95502D01*
X97502D02*
X99501Y225001D01*
X101500D02*
X103500D01*
X102500D01*
Y230999D01*
X101500Y229999D01*
X110498Y230999D02*
X106499D01*
Y228000D01*
X108498Y229000D01*
X109498D01*
X110498Y228000D01*
Y226001D01*
X109498Y225001D01*
X107499D01*
X106499Y226001D01*
X443002Y196501D02*
Y202499D01*
X446001D01*
X447001Y201499D01*
Y199500D01*
X446001Y198500D01*
X443002D01*
X445002D02*
X447001Y196501D01*
X449001D02*
X451000D01*
X450000D01*
Y202499D01*
X449001Y201499D01*
X456998Y196501D02*
Y202499D01*
X453999Y199500D01*
X457998D01*
X252502Y196001D02*
Y201999D01*
X255502D01*
X256501Y200999D01*
Y199000D01*
X255502Y198000D01*
X252502D01*
X254502D02*
X256501Y196001D01*
X258501D02*
X260500D01*
X259500D01*
Y201999D01*
X258501Y200999D01*
X263499D02*
X264498Y201999D01*
X266498D01*
X267498Y200999D01*
Y200000D01*
X266498Y199000D01*
X265498D01*
X266498D01*
X267498Y198000D01*
Y197001D01*
X266498Y196001D01*
X264498D01*
X263499Y197001D01*
X321999Y258502D02*
X316001D01*
Y261502D01*
X317001Y262501D01*
X319000D01*
X320000Y261502D01*
Y258502D01*
Y260502D02*
X321999Y262501D01*
Y264500D02*
Y266500D01*
Y265500D01*
X316001D01*
X317001Y264500D01*
X321999Y273498D02*
Y269499D01*
X318000Y273498D01*
X317001D01*
X316001Y272498D01*
Y270498D01*
X317001Y269499D01*
X528502Y296001D02*
Y301999D01*
X531501D01*
X532501Y300999D01*
Y299000D01*
X531501Y298000D01*
X528502D01*
X530502D02*
X532501Y296001D01*
X534500D02*
X536500D01*
X535500D01*
Y301999D01*
X534500Y300999D01*
X539499Y296001D02*
X541498D01*
X540498D01*
Y301999D01*
X539499Y300999D01*
X167502Y296001D02*
Y301999D01*
X170501D01*
X171501Y300999D01*
Y299000D01*
X170501Y298000D01*
X167502D01*
X169502D02*
X171501Y296001D01*
X173501D02*
X175500D01*
X174500D01*
Y301999D01*
X173501Y300999D01*
X178499D02*
X179499Y301999D01*
X181498D01*
X182498Y300999D01*
Y297001D01*
X181498Y296001D01*
X179499D01*
X178499Y297001D01*
Y300999D01*
X603502Y225501D02*
Y231499D01*
X606501D01*
X607500Y230499D01*
Y228500D01*
X606501Y227500D01*
X603502D01*
X605501D02*
X607500Y225501D01*
X609500Y226501D02*
X610499Y225501D01*
X612499D01*
X613498Y226501D01*
Y230499D01*
X612499Y231499D01*
X610499D01*
X609500Y230499D01*
Y229500D01*
X610499Y228500D01*
X613498D01*
X329999Y258502D02*
X324001D01*
Y261501D01*
X325001Y262500D01*
X327000D01*
X328000Y261501D01*
Y258502D01*
Y260501D02*
X329999Y262500D01*
X325001Y264500D02*
X324001Y265499D01*
Y267499D01*
X325001Y268498D01*
X326000D01*
X327000Y267499D01*
X328000Y268498D01*
X328999D01*
X329999Y267499D01*
Y265499D01*
X328999Y264500D01*
X328000D01*
X327000Y265499D01*
X326000Y264500D01*
X325001D01*
X327000Y265499D02*
Y267499D01*
X548002Y168501D02*
Y174499D01*
X551001D01*
X552000Y173499D01*
Y171500D01*
X551001Y170500D01*
X548002D01*
X550001D02*
X552000Y168501D01*
X554000Y174499D02*
X557998D01*
Y173499D01*
X554000Y169501D01*
Y168501D01*
X660002D02*
Y174499D01*
X663001D01*
X664000Y173499D01*
Y171500D01*
X663001Y170500D01*
X660002D01*
X662001D02*
X664000Y168501D01*
X669998Y174499D02*
X667999Y173499D01*
X666000Y171500D01*
Y169501D01*
X666999Y168501D01*
X668999D01*
X669998Y169501D01*
Y170500D01*
X668999Y171500D01*
X666000D01*
X603502Y110001D02*
Y115999D01*
X606501D01*
X607500Y114999D01*
Y113000D01*
X606501Y112000D01*
X603502D01*
X605501D02*
X607500Y110001D01*
X613498Y115999D02*
X609500D01*
Y113000D01*
X611499Y114000D01*
X612499D01*
X613498Y113000D01*
Y111001D01*
X612499Y110001D01*
X610499D01*
X609500Y111001D01*
X446502Y18001D02*
Y23999D01*
X449501D01*
X450500Y22999D01*
Y21000D01*
X449501Y20000D01*
X446502D01*
X452500Y22999D02*
X453499Y23999D01*
X455499D01*
X456498Y22999D01*
Y22000D01*
X455499Y21000D01*
X454499D01*
X455499D01*
X456498Y20000D01*
Y19001D01*
X455499Y18001D01*
X453499D01*
X452500Y19001D01*
X185002Y17501D02*
Y23499D01*
X188001D01*
X189000Y22499D01*
Y20500D01*
X188001Y19500D01*
X185002D01*
X194998Y17501D02*
X191000D01*
X194998Y21500D01*
Y22499D01*
X193999Y23499D01*
X191999D01*
X191000Y22499D01*
X345004Y202501D02*
Y208499D01*
X347003Y206500D01*
X349002Y208499D01*
Y202501D01*
X354001Y208499D02*
X352001D01*
X351002Y207499D01*
Y203501D01*
X352001Y202501D01*
X354001D01*
X355000Y203501D01*
Y207499D01*
X354001Y208499D01*
X357000D02*
Y202501D01*
X359999D01*
X360998Y203501D01*
Y207499D01*
X359999Y208499D01*
X357000D01*
X366997D02*
X362998D01*
Y202501D01*
X366997D01*
X362998Y205500D02*
X364997D01*
X242999Y336997D02*
X237001D01*
Y332999D01*
X242999Y330999D02*
Y327001D01*
Y329000D01*
X237001D01*
Y321003D02*
Y325001D01*
X241000Y321003D01*
X241999D01*
X242999Y322002D01*
Y324002D01*
X241999Y325001D01*
X168002Y352499D02*
Y346501D01*
X172001D01*
X174000Y352499D02*
X177999D01*
X176000D01*
Y346501D01*
X179998D02*
X181998D01*
X180998D01*
Y352499D01*
X179998Y351499D01*
X98502Y281499D02*
Y276501D01*
X99501Y275501D01*
X101501D01*
X102500Y276501D01*
Y281499D01*
X104500Y275501D02*
Y281499D01*
X107499D01*
X108498Y280499D01*
Y278500D01*
X107499Y277500D01*
X104500D01*
X136004Y221501D02*
Y227499D01*
X139003D01*
X140003Y226499D01*
Y224500D01*
X139003Y223500D01*
X136004D01*
X138004D02*
X140003Y221501D01*
X142002Y227499D02*
X144002D01*
X143002D01*
Y221501D01*
X142002D01*
X144002D01*
X150999Y226499D02*
X150000Y227499D01*
X148001D01*
X147001Y226499D01*
Y222501D01*
X148001Y221501D01*
X150000D01*
X150999Y222501D01*
Y224500D01*
X149000D01*
X152999Y227499D02*
Y221501D01*
Y224500D01*
X156998D01*
Y227499D01*
Y221501D01*
X158997Y227499D02*
X162996D01*
X160996D01*
Y221501D01*
X39504Y226499D02*
Y220501D01*
X43502D01*
X49500Y226499D02*
X45502D01*
Y220501D01*
X49500D01*
X45502Y223500D02*
X47501D01*
X55498Y226499D02*
X51500D01*
Y223500D01*
X53499D01*
X51500D01*
Y220501D01*
X57498Y226499D02*
X61497D01*
X59497D01*
Y220501D01*
X92004Y166999D02*
Y161001D01*
X95003D01*
X96002Y162001D01*
Y165999D01*
X95003Y166999D01*
X92004D01*
X101001D02*
X99001D01*
X98002Y165999D01*
Y162001D01*
X99001Y161001D01*
X101001D01*
X102000Y162001D01*
Y165999D01*
X101001Y166999D01*
X104000D02*
Y161001D01*
X105999Y163000D01*
X107998Y161001D01*
Y166999D01*
X109998Y161001D02*
Y166999D01*
X113997Y161001D01*
Y166999D01*
X432499Y291003D02*
X426501D01*
Y294002D01*
X427501Y295001D01*
X429500D01*
X430500Y294002D01*
Y291003D01*
Y293002D02*
X432499Y295001D01*
X426501Y297001D02*
Y300999D01*
Y299000D01*
X432499D01*
X427501Y302999D02*
X426501Y303998D01*
Y305998D01*
X427501Y306997D01*
X428500D01*
X429500Y305998D01*
Y304998D01*
Y305998D01*
X430500Y306997D01*
X431499D01*
X432499Y305998D01*
Y303998D01*
X431499Y302999D01*
X284999Y306497D02*
X279001D01*
Y302499D01*
X284999Y300499D02*
Y296501D01*
Y298500D01*
X279001D01*
X283999Y294501D02*
X284999Y293502D01*
Y291502D01*
X283999Y290503D01*
X283000D01*
X282000Y291502D01*
Y292502D01*
Y291502D01*
X281000Y290503D01*
X280001D01*
X279001Y291502D01*
Y293502D01*
X280001Y294501D01*
X384000Y246999D02*
X383001Y247999D01*
X381001D01*
X380002Y246999D01*
Y243001D01*
X381001Y242001D01*
X383001D01*
X384000Y243001D01*
X386000Y247999D02*
X389998D01*
Y246999D01*
X386000Y243001D01*
Y242001D01*
X663001Y225999D02*
Y220001D01*
X666000D01*
X666999Y221001D01*
Y222000D01*
X666000Y223000D01*
X663001D01*
X666000D01*
X666999Y224000D01*
Y224999D01*
X666000Y225999D01*
X663001D01*
X606001Y161001D02*
Y165000D01*
X608000Y166999D01*
X609999Y165000D01*
Y161001D01*
Y164000D01*
X606001D01*
D12*
X248700Y240100D02*
X248800Y240200D01*
X91700Y154900D02*
X91800Y155000D01*
X144968Y213300D02*
X145068Y213400D01*
X33468D02*
X33568Y213500D01*
X91700Y269900D02*
X91800Y270000D01*
X596700Y269900D02*
X596800Y270000D01*
X653232Y213400D02*
X653332Y213500D01*
X596700Y154900D02*
X596800Y155000D01*
X540732Y213400D02*
X540832Y213500D01*
X438468Y240100D02*
X438568Y240200D01*
X163700Y340400D02*
X163800Y340500D01*
X523700Y340400D02*
X523800Y340500D01*
X344321Y197400D02*
X344421Y197500D01*
D13*
X210000Y16000D02*
Y26000D01*
X250985Y16000D02*
Y26000D01*
X199016Y16000D02*
X250985D01*
X199016Y26000D02*
X250985D01*
X199016Y16000D02*
Y26000D01*
X471500Y16000D02*
Y26000D01*
X512485Y16000D02*
Y26000D01*
X460516Y16000D02*
X512485D01*
X460516Y26000D02*
X512485D01*
X460516Y16000D02*
Y26000D01*
X335136Y240000D02*
Y250000D01*
X377105D01*
X335136Y240000D02*
X377105D01*
Y250000D01*
X366121Y240000D02*
Y250000D01*
D14*
X101300Y234500D02*
X104700D01*
X101300Y239500D02*
X104700D01*
X43300Y182500D02*
X46700D01*
X43300Y177500D02*
X46700D01*
X154800Y177000D02*
X158200D01*
X154800Y182000D02*
X158200D01*
X101300Y119000D02*
X104700D01*
X101300Y124000D02*
X104700D01*
X606800Y234500D02*
X610200D01*
X606800Y239500D02*
X610200D01*
X663300Y177500D02*
X666700D01*
X663300Y182500D02*
X666700D01*
X606800Y124000D02*
X610200D01*
X606800Y119000D02*
X610200D01*
X550800Y177500D02*
X554200D01*
X550800Y182500D02*
X554200D01*
X448300Y205500D02*
X451700D01*
X448300Y210500D02*
X451700D01*
X329021Y246300D02*
Y249700D01*
X324021Y246300D02*
Y249700D01*
X316721Y246300D02*
Y249700D01*
X321721Y246300D02*
Y249700D01*
X173300Y305500D02*
X176700D01*
X173300Y310500D02*
X176700D01*
X225300D02*
X228700D01*
X225300Y305500D02*
X228700D01*
X266121Y323800D02*
Y327200D01*
X271121Y323800D02*
Y327200D01*
X533300Y305500D02*
X536700D01*
X533300Y310500D02*
X536700D01*
X481800D02*
X485200D01*
X481800Y305500D02*
X485200D01*
X440621Y323800D02*
Y327200D01*
X445621Y323800D02*
Y327200D01*
X258300Y210500D02*
X261700D01*
X258300Y205500D02*
X261700D01*
X354300Y163500D02*
X357700D01*
X354300Y168500D02*
X357700D01*
D15*
X95400Y240400D02*
X110700D01*
X95400Y233700D02*
Y240400D01*
Y233700D02*
X110700D01*
Y240400D01*
X52700Y176700D02*
Y183400D01*
X37400Y176700D02*
X52700D01*
X37400D02*
Y183400D01*
X52700D01*
X148900Y182900D02*
X164200D01*
X148900Y176200D02*
Y182900D01*
Y176200D02*
X164200D01*
Y182900D01*
X95400Y124900D02*
X110700D01*
X95400Y118200D02*
Y124900D01*
Y118200D02*
X110700D01*
Y124900D01*
X600900Y240400D02*
X616200D01*
X600900Y233700D02*
Y240400D01*
Y233700D02*
X616200D01*
Y240400D01*
X657400Y183400D02*
X672700D01*
X657400Y176700D02*
Y183400D01*
Y176700D02*
X672700D01*
Y183400D01*
X616200Y118200D02*
Y124900D01*
X600900Y118200D02*
X616200D01*
X600900D02*
Y124900D01*
X616200D01*
X544900Y183400D02*
X560200D01*
X544900Y176700D02*
Y183400D01*
Y176700D02*
X560200D01*
Y183400D01*
X442400Y211400D02*
X457700D01*
X442400Y204700D02*
Y211400D01*
Y204700D02*
X457700D01*
Y211400D01*
X323221Y240300D02*
X329921D01*
X323221D02*
Y255600D01*
X329921D01*
Y240300D02*
Y255600D01*
X315821Y255700D02*
X322521D01*
Y240400D02*
Y255700D01*
X315821Y240400D02*
X322521D01*
X315821D02*
Y255700D01*
X167400Y311400D02*
X182700D01*
X167400Y304700D02*
Y311400D01*
Y304700D02*
X182700D01*
Y311400D01*
X219300Y304600D02*
X234600D01*
Y311300D01*
X219300D02*
X234600D01*
X219300Y304600D02*
Y311300D01*
X272021Y317800D02*
Y333100D01*
X265321D02*
X272021D01*
X265321Y317800D02*
Y333100D01*
Y317800D02*
X272021D01*
X527400Y311400D02*
X542700D01*
X527400Y304700D02*
Y311400D01*
Y304700D02*
X542700D01*
Y311400D01*
X475800Y304600D02*
X491100D01*
Y311300D01*
X475800D02*
X491100D01*
X475800Y304600D02*
Y311300D01*
X446521Y317800D02*
Y333100D01*
X439821D02*
X446521D01*
X439821Y317800D02*
Y333100D01*
Y317800D02*
X446521D01*
X267700Y204700D02*
Y211400D01*
X252400Y204700D02*
X267700D01*
X252400D02*
Y211400D01*
X267700D01*
X348400Y169400D02*
X363700D01*
X348400Y162700D02*
Y169400D01*
Y162700D02*
X363700D01*
Y169400D01*
D16*
X227000Y329506D02*
D03*
X268621Y298000D02*
D03*
X483501Y329505D02*
D03*
X443121Y298000D02*
D03*
M02*
