G04*
G04 #@! TF.GenerationSoftware,Altium Limited,Altium Designer,23.0.1 (38)*
G04*
G04 Layer_Color=16711935*
%FSLAX25Y25*%
%MOIN*%
G70*
G04*
G04 #@! TF.SameCoordinates,CBCD5F51-024F-4456-99E9-F8A3691CA7AB*
G04*
G04*
G04 #@! TF.FilePolarity,Negative*
G04*
G01*
G75*
%ADD22R,0.05800X0.06300*%
%ADD25R,0.06784X0.06784*%
%ADD26C,0.06784*%
%ADD27C,0.05524*%
%ADD28C,0.09461*%
%ADD29R,0.09800X0.08300*%
%ADD30O,0.09800X0.08300*%
%ADD31R,0.06784X0.06784*%
%ADD32C,0.20485*%
%ADD33C,0.16548*%
%ADD34C,0.04737*%
%ADD58R,0.06300X0.05131*%
%ADD59R,0.10249X0.04737*%
%ADD60R,0.10249X0.13792*%
%ADD61R,0.06800X0.06800*%
%ADD62R,0.05131X0.06300*%
%ADD63O,0.08674X0.03556*%
%ADD64R,0.08674X0.03556*%
%ADD65R,0.07493X0.08674*%
%ADD66R,0.06706X0.13792*%
D22*
X610000Y299500D02*
D03*
X601000D02*
D03*
X610000Y308000D02*
D03*
X601000D02*
D03*
Y316000D02*
D03*
X610000D02*
D03*
D25*
X205000Y21000D02*
D03*
X466500D02*
D03*
X411000Y17874D02*
D03*
Y85000D02*
D03*
X371121Y245000D02*
D03*
D26*
X215000Y21000D02*
D03*
X225000D02*
D03*
X235000D02*
D03*
X245000D02*
D03*
X476500D02*
D03*
X486500D02*
D03*
X496500D02*
D03*
X506500D02*
D03*
X381000Y17874D02*
D03*
X391000D02*
D03*
X401000D02*
D03*
X321000D02*
D03*
X331000D02*
D03*
X341000D02*
D03*
X351000D02*
D03*
X361000D02*
D03*
X371000D02*
D03*
X401000Y85000D02*
D03*
X381000D02*
D03*
X371000D02*
D03*
X361000D02*
D03*
X351000D02*
D03*
X341000D02*
D03*
X331000D02*
D03*
X391000D02*
D03*
X321000D02*
D03*
X351121Y245000D02*
D03*
X341121D02*
D03*
X361121D02*
D03*
X305819D02*
D03*
Y295000D02*
D03*
Y285000D02*
D03*
Y275000D02*
D03*
Y265000D02*
D03*
Y255000D02*
D03*
Y235000D02*
D03*
Y225000D02*
D03*
Y215000D02*
D03*
Y205000D02*
D03*
Y195000D02*
D03*
Y185000D02*
D03*
Y175000D02*
D03*
Y165000D02*
D03*
Y155000D02*
D03*
Y145000D02*
D03*
Y135000D02*
D03*
Y125000D02*
D03*
Y115000D02*
D03*
X299405Y71501D02*
D03*
Y61501D02*
D03*
Y51501D02*
D03*
Y41501D02*
D03*
X405815Y115000D02*
D03*
Y135000D02*
D03*
Y145000D02*
D03*
Y155000D02*
D03*
Y165000D02*
D03*
Y185000D02*
D03*
Y195000D02*
D03*
Y205000D02*
D03*
Y215000D02*
D03*
Y225000D02*
D03*
Y235000D02*
D03*
Y245000D02*
D03*
Y255000D02*
D03*
Y265000D02*
D03*
Y275000D02*
D03*
Y285000D02*
D03*
Y295000D02*
D03*
Y125000D02*
D03*
Y175000D02*
D03*
D27*
X347995Y266500D02*
D03*
X332247D02*
D03*
X383369Y355500D02*
D03*
X367621D02*
D03*
D28*
X333731Y355000D02*
D03*
X347511D02*
D03*
D29*
X627500Y313000D02*
D03*
D30*
Y303000D02*
D03*
D31*
X305819Y305000D02*
D03*
X299405Y31501D02*
D03*
X405815Y305000D02*
D03*
D32*
X535500Y372000D02*
D03*
X176000D02*
D03*
X674500Y336500D02*
D03*
X520000Y136000D02*
D03*
X453217D02*
D03*
X259000D02*
D03*
X192000D02*
D03*
X674500Y52000D02*
D03*
X37000D02*
D03*
Y336500D02*
D03*
D33*
X396121Y337500D02*
D03*
X315495D02*
D03*
D34*
X604000Y116000D02*
D03*
Y118500D02*
D03*
Y121000D02*
D03*
D58*
X357122Y327564D02*
D03*
Y335437D02*
D03*
X349621Y327626D02*
D03*
Y335500D02*
D03*
D59*
X354204Y298945D02*
D03*
Y317055D02*
D03*
Y308000D02*
D03*
D60*
X377038D02*
D03*
D61*
X375912Y267500D02*
D03*
X362330D02*
D03*
D62*
X369057Y276001D02*
D03*
X361184D02*
D03*
X369057Y283501D02*
D03*
X361184D02*
D03*
X334185Y282999D02*
D03*
X342058D02*
D03*
D63*
X328621Y296000D02*
D03*
D64*
X342621D02*
D03*
D65*
X335621Y311984D02*
D03*
Y332016D02*
D03*
D66*
X382479Y331500D02*
D03*
X364621D02*
D03*
M02*
