G04*
G04 #@! TF.GenerationSoftware,Altium Limited,Altium Designer,23.0.1 (38)*
G04*
G04 Layer_Color=2752767*
%FSLAX25Y25*%
%MOIN*%
G70*
G04*
G04 #@! TF.SameCoordinates,CBCD5F51-024F-4456-99E9-F8A3691CA7AB*
G04*
G04*
G04 #@! TF.FilePolarity,Positive*
G04*
G01*
G75*
%ADD15C,0.00500*%
%ADD72C,0.00667*%
D15*
X203000Y19000D02*
Y23000D01*
X207000D01*
Y19000D01*
X203000D01*
X203800Y19800D02*
Y22200D01*
X206200D01*
Y19800D01*
X203800D01*
X213000Y19000D02*
Y23000D01*
X217000D01*
Y19000D01*
X213000D01*
X213800Y19800D02*
Y22200D01*
X216200D01*
Y19800D01*
X213800D01*
X223000Y19000D02*
Y23000D01*
X227000D01*
Y19000D01*
X223000D01*
X223800Y19800D02*
Y22200D01*
X226200D01*
Y19800D01*
X223800D01*
X233000Y19000D02*
Y23000D01*
X237000D01*
Y19000D01*
X233000D01*
X233800Y19800D02*
Y22200D01*
X236200D01*
Y19800D01*
X233800D01*
X243000Y19000D02*
Y23000D01*
X247000D01*
Y19000D01*
X243000D01*
X243800Y19800D02*
Y22200D01*
X246200D01*
Y19800D01*
X243800D01*
X464500Y19000D02*
Y23000D01*
X468500D01*
Y19000D01*
X464500D01*
X465300Y19800D02*
Y22200D01*
X467700D01*
Y19800D01*
X465300D01*
X474500Y19000D02*
Y23000D01*
X478500D01*
Y19000D01*
X474500D01*
X475300Y19800D02*
Y22200D01*
X477700D01*
Y19800D01*
X475300D01*
X484500Y19000D02*
Y23000D01*
X488500D01*
Y19000D01*
X484500D01*
X485300Y19800D02*
Y22200D01*
X487700D01*
Y19800D01*
X485300D01*
X494500Y19000D02*
Y23000D01*
X498500D01*
Y19000D01*
X494500D01*
X495300Y19800D02*
Y22200D01*
X497700D01*
Y19800D01*
X495300D01*
X504500Y19000D02*
Y23000D01*
X508500D01*
Y19000D01*
X504500D01*
X505300Y19800D02*
Y22200D01*
X507700D01*
Y19800D01*
X505300D01*
X347995Y264500D02*
X348995Y265500D01*
X349995D01*
X348995Y266500D01*
X349995Y267500D01*
X348995D01*
X347995Y268500D01*
X346995Y267500D01*
X345995D01*
X346995Y266500D01*
X345995Y265500D01*
X346995D01*
X347995Y264500D01*
X332247D02*
X333247Y265500D01*
X334247D01*
X333247Y266500D01*
X334247Y267500D01*
X333247D01*
X332247Y268500D01*
X331247Y267500D01*
X330247D01*
X331247Y266500D01*
X330247Y265500D01*
X331247D01*
X332247Y264500D01*
X383369Y353500D02*
X384369Y354500D01*
X385369D01*
X384369Y355500D01*
X385369Y356500D01*
X384369D01*
X383369Y357500D01*
X382369Y356500D01*
X381369D01*
X382369Y355500D01*
X381369Y354500D01*
X382369D01*
X383369Y353500D01*
X367621D02*
X368621Y354500D01*
X369621D01*
X368621Y355500D01*
X369621Y356500D01*
X368621D01*
X367621Y357500D01*
X366621Y356500D01*
X365621D01*
X366621Y355500D01*
X365621Y354500D01*
X366621D01*
X367621Y353500D01*
X333731Y353000D02*
X331731Y357000D01*
X335731D01*
X333731Y353000D01*
X347511D02*
X345511Y357000D01*
X349511D01*
X347511Y353000D01*
X625500Y311000D02*
Y315000D01*
X629500D01*
Y311000D01*
X625500D01*
Y301000D02*
Y305000D01*
X629500D01*
Y301000D01*
X625500D01*
X379000Y15874D02*
Y19874D01*
X383000D01*
Y15874D01*
X379000D01*
X379800Y16674D02*
Y19074D01*
X382200D01*
Y16674D01*
X379800D01*
X389000Y15874D02*
Y19874D01*
X393000D01*
Y15874D01*
X389000D01*
X389800Y16674D02*
Y19074D01*
X392200D01*
Y16674D01*
X389800D01*
X399000Y15874D02*
Y19874D01*
X403000D01*
Y15874D01*
X399000D01*
X399800Y16674D02*
Y19074D01*
X402200D01*
Y16674D01*
X399800D01*
X319000Y15874D02*
Y19874D01*
X323000D01*
Y15874D01*
X319000D01*
X319800Y16674D02*
Y19074D01*
X322200D01*
Y16674D01*
X319800D01*
X329000Y15874D02*
Y19874D01*
X333000D01*
Y15874D01*
X329000D01*
X329800Y16674D02*
Y19074D01*
X332200D01*
Y16674D01*
X329800D01*
X339000Y15874D02*
Y19874D01*
X343000D01*
Y15874D01*
X339000D01*
X339800Y16674D02*
Y19074D01*
X342200D01*
Y16674D01*
X339800D01*
X349000Y15874D02*
Y19874D01*
X353000D01*
Y15874D01*
X349000D01*
X349800Y16674D02*
Y19074D01*
X352200D01*
Y16674D01*
X349800D01*
X359000Y15874D02*
Y19874D01*
X363000D01*
Y15874D01*
X359000D01*
X359800Y16674D02*
Y19074D01*
X362200D01*
Y16674D01*
X359800D01*
X369000Y15874D02*
Y19874D01*
X373000D01*
Y15874D01*
X369000D01*
X369800Y16674D02*
Y19074D01*
X372200D01*
Y16674D01*
X369800D01*
X409000Y15874D02*
Y19874D01*
X413000D01*
Y15874D01*
X409000D01*
X409800Y16674D02*
Y19074D01*
X412200D01*
Y16674D01*
X409800D01*
X409000Y83000D02*
Y87000D01*
X413000D01*
Y83000D01*
X409000D01*
X409800Y83800D02*
Y86200D01*
X412200D01*
Y83800D01*
X409800D01*
X399000Y83000D02*
Y87000D01*
X403000D01*
Y83000D01*
X399000D01*
X399800Y83800D02*
Y86200D01*
X402200D01*
Y83800D01*
X399800D01*
X379000Y83000D02*
Y87000D01*
X383000D01*
Y83000D01*
X379000D01*
X379800Y83800D02*
Y86200D01*
X382200D01*
Y83800D01*
X379800D01*
X369000Y83000D02*
Y87000D01*
X373000D01*
Y83000D01*
X369000D01*
X369800Y83800D02*
Y86200D01*
X372200D01*
Y83800D01*
X369800D01*
X359000Y83000D02*
Y87000D01*
X363000D01*
Y83000D01*
X359000D01*
X359800Y83800D02*
Y86200D01*
X362200D01*
Y83800D01*
X359800D01*
X349000Y83000D02*
Y87000D01*
X353000D01*
Y83000D01*
X349000D01*
X349800Y83800D02*
Y86200D01*
X352200D01*
Y83800D01*
X349800D01*
X339000Y83000D02*
Y87000D01*
X343000D01*
Y83000D01*
X339000D01*
X339800Y83800D02*
Y86200D01*
X342200D01*
Y83800D01*
X339800D01*
X329000Y83000D02*
Y87000D01*
X333000D01*
Y83000D01*
X329000D01*
X329800Y83800D02*
Y86200D01*
X332200D01*
Y83800D01*
X329800D01*
X389000Y83000D02*
Y87000D01*
X393000D01*
Y83000D01*
X389000D01*
X389800Y83800D02*
Y86200D01*
X392200D01*
Y83800D01*
X389800D01*
X319000Y83000D02*
Y87000D01*
X323000D01*
Y83000D01*
X319000D01*
X319800Y83800D02*
Y86200D01*
X322200D01*
Y83800D01*
X319800D01*
X349121Y243000D02*
Y247000D01*
X353121D01*
Y243000D01*
X349121D01*
X349921Y243800D02*
Y246200D01*
X352321D01*
Y243800D01*
X349921D01*
X339121Y243000D02*
Y247000D01*
X343121D01*
Y243000D01*
X339121D01*
X339921Y243800D02*
Y246200D01*
X342321D01*
Y243800D01*
X339921D01*
X359121Y243000D02*
Y247000D01*
X363121D01*
Y243000D01*
X359121D01*
X359921Y243800D02*
Y246200D01*
X362321D01*
Y243800D01*
X359921D01*
X369121Y243000D02*
Y247000D01*
X373121D01*
Y243000D01*
X369121D01*
X369921Y243800D02*
Y246200D01*
X372321D01*
Y243800D01*
X369921D01*
X303819Y303000D02*
Y307000D01*
X307819D01*
Y303000D01*
X303819D01*
X304619Y303800D02*
Y306200D01*
X307019D01*
Y303800D01*
X304619D01*
X303819Y243000D02*
Y247000D01*
X307819D01*
Y243000D01*
X303819D01*
X304619Y243800D02*
Y246200D01*
X307019D01*
Y243800D01*
X304619D01*
X303819Y293000D02*
Y297000D01*
X307819D01*
Y293000D01*
X303819D01*
X304619Y293800D02*
Y296200D01*
X307019D01*
Y293800D01*
X304619D01*
X303819Y283000D02*
Y287000D01*
X307819D01*
Y283000D01*
X303819D01*
X304619Y283800D02*
Y286200D01*
X307019D01*
Y283800D01*
X304619D01*
X303819Y273000D02*
Y277000D01*
X307819D01*
Y273000D01*
X303819D01*
X304619Y273800D02*
Y276200D01*
X307019D01*
Y273800D01*
X304619D01*
X303819Y263000D02*
Y267000D01*
X307819D01*
Y263000D01*
X303819D01*
X304619Y263800D02*
Y266200D01*
X307019D01*
Y263800D01*
X304619D01*
X303819Y253000D02*
Y257000D01*
X307819D01*
Y253000D01*
X303819D01*
X304619Y253800D02*
Y256200D01*
X307019D01*
Y253800D01*
X304619D01*
X303819Y233000D02*
Y237000D01*
X307819D01*
Y233000D01*
X303819D01*
X304619Y233800D02*
Y236200D01*
X307019D01*
Y233800D01*
X304619D01*
X303819Y223000D02*
Y227000D01*
X307819D01*
Y223000D01*
X303819D01*
X304619Y223800D02*
Y226200D01*
X307019D01*
Y223800D01*
X304619D01*
X303819Y213000D02*
Y217000D01*
X307819D01*
Y213000D01*
X303819D01*
X304619Y213800D02*
Y216200D01*
X307019D01*
Y213800D01*
X304619D01*
X303819Y203000D02*
Y207000D01*
X307819D01*
Y203000D01*
X303819D01*
X304619Y203800D02*
Y206200D01*
X307019D01*
Y203800D01*
X304619D01*
X303819Y193000D02*
Y197000D01*
X307819D01*
Y193000D01*
X303819D01*
X304619Y193800D02*
Y196200D01*
X307019D01*
Y193800D01*
X304619D01*
X303819Y183000D02*
Y187000D01*
X307819D01*
Y183000D01*
X303819D01*
X304619Y183800D02*
Y186200D01*
X307019D01*
Y183800D01*
X304619D01*
X303819Y173000D02*
Y177000D01*
X307819D01*
Y173000D01*
X303819D01*
X304619Y173800D02*
Y176200D01*
X307019D01*
Y173800D01*
X304619D01*
X303819Y163000D02*
Y167000D01*
X307819D01*
Y163000D01*
X303819D01*
X304619Y163800D02*
Y166200D01*
X307019D01*
Y163800D01*
X304619D01*
X303819Y153000D02*
Y157000D01*
X307819D01*
Y153000D01*
X303819D01*
X304619Y153800D02*
Y156200D01*
X307019D01*
Y153800D01*
X304619D01*
X303819Y143000D02*
Y147000D01*
X307819D01*
Y143000D01*
X303819D01*
X304619Y143800D02*
Y146200D01*
X307019D01*
Y143800D01*
X304619D01*
X303819Y133000D02*
Y137000D01*
X307819D01*
Y133000D01*
X303819D01*
X304619Y133800D02*
Y136200D01*
X307019D01*
Y133800D01*
X304619D01*
X303819Y123000D02*
Y127000D01*
X307819D01*
Y123000D01*
X303819D01*
X304619Y123800D02*
Y126200D01*
X307019D01*
Y123800D01*
X304619D01*
X303819Y113000D02*
Y117000D01*
X307819D01*
Y113000D01*
X303819D01*
X304619Y113800D02*
Y116200D01*
X307019D01*
Y113800D01*
X304619D01*
X533500Y370000D02*
X534500D01*
X535500Y371000D01*
X536500Y370000D01*
X537500D01*
Y371000D01*
X536500Y372000D01*
X537500Y373000D01*
Y374000D01*
X536500D01*
X535500Y373000D01*
X534500Y374000D01*
X533500D01*
Y373000D01*
X534500Y372000D01*
X533500Y371000D01*
Y370000D01*
X174000D02*
X175000D01*
X176000Y371000D01*
X177000Y370000D01*
X178000D01*
Y371000D01*
X177000Y372000D01*
X178000Y373000D01*
Y374000D01*
X177000D01*
X176000Y373000D01*
X175000Y374000D01*
X174000D01*
Y373000D01*
X175000Y372000D01*
X174000Y371000D01*
Y370000D01*
X672500Y334500D02*
X673500D01*
X674500Y335500D01*
X675500Y334500D01*
X676500D01*
Y335500D01*
X675500Y336500D01*
X676500Y337500D01*
Y338500D01*
X675500D01*
X674500Y337500D01*
X673500Y338500D01*
X672500D01*
Y337500D01*
X673500Y336500D01*
X672500Y335500D01*
Y334500D01*
X297405Y69501D02*
Y73501D01*
X301405D01*
Y69501D01*
X297405D01*
X298205Y70301D02*
Y72701D01*
X300605D01*
Y70301D01*
X298205D01*
X297405Y59501D02*
Y63501D01*
X301405D01*
Y59501D01*
X297405D01*
X298205Y60301D02*
Y62701D01*
X300605D01*
Y60301D01*
X298205D01*
X297405Y49501D02*
Y53501D01*
X301405D01*
Y49501D01*
X297405D01*
X298205Y50301D02*
Y52701D01*
X300605D01*
Y50301D01*
X298205D01*
X297405Y39501D02*
Y43501D01*
X301405D01*
Y39501D01*
X297405D01*
X298205Y40301D02*
Y42701D01*
X300605D01*
Y40301D01*
X298205D01*
X297405Y29501D02*
Y33501D01*
X301405D01*
Y29501D01*
X297405D01*
X298205Y30301D02*
Y32701D01*
X300605D01*
Y30301D01*
X298205D01*
X403815Y113000D02*
Y117000D01*
X407815D01*
Y113000D01*
X403815D01*
X404615Y113800D02*
Y116200D01*
X407015D01*
Y113800D01*
X404615D01*
X403815Y133000D02*
Y137000D01*
X407815D01*
Y133000D01*
X403815D01*
X404615Y133800D02*
Y136200D01*
X407015D01*
Y133800D01*
X404615D01*
X403815Y143000D02*
Y147000D01*
X407815D01*
Y143000D01*
X403815D01*
X404615Y143800D02*
Y146200D01*
X407015D01*
Y143800D01*
X404615D01*
X403815Y153000D02*
Y157000D01*
X407815D01*
Y153000D01*
X403815D01*
X404615Y153800D02*
Y156200D01*
X407015D01*
Y153800D01*
X404615D01*
X403815Y163000D02*
Y167000D01*
X407815D01*
Y163000D01*
X403815D01*
X404615Y163800D02*
Y166200D01*
X407015D01*
Y163800D01*
X404615D01*
X403815Y183000D02*
Y187000D01*
X407815D01*
Y183000D01*
X403815D01*
X404615Y183800D02*
Y186200D01*
X407015D01*
Y183800D01*
X404615D01*
X403815Y193000D02*
Y197000D01*
X407815D01*
Y193000D01*
X403815D01*
X404615Y193800D02*
Y196200D01*
X407015D01*
Y193800D01*
X404615D01*
X403815Y203000D02*
Y207000D01*
X407815D01*
Y203000D01*
X403815D01*
X404615Y203800D02*
Y206200D01*
X407015D01*
Y203800D01*
X404615D01*
X403815Y213000D02*
Y217000D01*
X407815D01*
Y213000D01*
X403815D01*
X404615Y213800D02*
Y216200D01*
X407015D01*
Y213800D01*
X404615D01*
X403815Y223000D02*
Y227000D01*
X407815D01*
Y223000D01*
X403815D01*
X404615Y223800D02*
Y226200D01*
X407015D01*
Y223800D01*
X404615D01*
X403815Y233000D02*
Y237000D01*
X407815D01*
Y233000D01*
X403815D01*
X404615Y233800D02*
Y236200D01*
X407015D01*
Y233800D01*
X404615D01*
X403815Y243000D02*
Y247000D01*
X407815D01*
Y243000D01*
X403815D01*
X404615Y243800D02*
Y246200D01*
X407015D01*
Y243800D01*
X404615D01*
X403815Y253000D02*
Y257000D01*
X407815D01*
Y253000D01*
X403815D01*
X404615Y253800D02*
Y256200D01*
X407015D01*
Y253800D01*
X404615D01*
X403815Y263000D02*
Y267000D01*
X407815D01*
Y263000D01*
X403815D01*
X404615Y263800D02*
Y266200D01*
X407015D01*
Y263800D01*
X404615D01*
X403815Y273000D02*
Y277000D01*
X407815D01*
Y273000D01*
X403815D01*
X404615Y273800D02*
Y276200D01*
X407015D01*
Y273800D01*
X404615D01*
X403815Y283000D02*
Y287000D01*
X407815D01*
Y283000D01*
X403815D01*
X404615Y283800D02*
Y286200D01*
X407015D01*
Y283800D01*
X404615D01*
X403815Y293000D02*
Y297000D01*
X407815D01*
Y293000D01*
X403815D01*
X404615Y293800D02*
Y296200D01*
X407015D01*
Y293800D01*
X404615D01*
X403815Y123000D02*
Y127000D01*
X407815D01*
Y123000D01*
X403815D01*
X404615Y123800D02*
Y126200D01*
X407015D01*
Y123800D01*
X404615D01*
X403815Y303000D02*
Y307000D01*
X407815D01*
Y303000D01*
X403815D01*
X404615Y303800D02*
Y306200D01*
X407015D01*
Y303800D01*
X404615D01*
X403815Y173000D02*
Y177000D01*
X407815D01*
Y173000D01*
X403815D01*
X404615Y173800D02*
Y176200D01*
X407015D01*
Y173800D01*
X404615D01*
X394121Y335500D02*
X395121D01*
X396121Y336500D01*
X397121Y335500D01*
X398121D01*
Y336500D01*
X397121Y337500D01*
X398121Y338500D01*
Y339500D01*
X397121D01*
X396121Y338500D01*
X395121Y339500D01*
X394121D01*
Y338500D01*
X395121Y337500D01*
X394121Y336500D01*
Y335500D01*
X313495D02*
X314495D01*
X315495Y336500D01*
X316495Y335500D01*
X317495D01*
Y336500D01*
X316495Y337500D01*
X317495Y338500D01*
Y339500D01*
X316495D01*
X315495Y338500D01*
X314495Y339500D01*
X313495D01*
Y338500D01*
X314495Y337500D01*
X313495Y336500D01*
Y335500D01*
X519000Y135000D02*
Y134000D01*
X521000D01*
Y135000D01*
X522000D01*
Y137000D01*
X521000D01*
Y138000D01*
X519000D01*
Y137000D01*
X518000D01*
Y135000D01*
X519000D01*
X452217D02*
Y134000D01*
X454217D01*
Y135000D01*
X455217D01*
Y137000D01*
X454217D01*
Y138000D01*
X452217D01*
Y137000D01*
X451217D01*
Y135000D01*
X452217D01*
X258000D02*
Y134000D01*
X260000D01*
Y135000D01*
X261000D01*
Y137000D01*
X260000D01*
Y138000D01*
X258000D01*
Y137000D01*
X257000D01*
Y135000D01*
X258000D01*
X191000D02*
Y134000D01*
X193000D01*
Y135000D01*
X194000D01*
Y137000D01*
X193000D01*
Y138000D01*
X191000D01*
Y137000D01*
X190000D01*
Y135000D01*
X191000D01*
X672500Y50000D02*
X673500D01*
X674500Y51000D01*
X675500Y50000D01*
X676500D01*
Y51000D01*
X675500Y52000D01*
X676500Y53000D01*
Y54000D01*
X675500D01*
X674500Y53000D01*
X673500Y54000D01*
X672500D01*
Y53000D01*
X673500Y52000D01*
X672500Y51000D01*
Y50000D01*
X35000D02*
X36000D01*
X37000Y51000D01*
X38000Y50000D01*
X39000D01*
Y51000D01*
X38000Y52000D01*
X39000Y53000D01*
Y54000D01*
X38000D01*
X37000Y53000D01*
X36000Y54000D01*
X35000D01*
Y53000D01*
X36000Y52000D01*
X35000Y51000D01*
Y50000D01*
Y334500D02*
X36000D01*
X37000Y335500D01*
X38000Y334500D01*
X39000D01*
Y335500D01*
X38000Y336500D01*
X39000Y337500D01*
Y338500D01*
X38000D01*
X37000Y337500D01*
X36000Y338500D01*
X35000D01*
Y337500D01*
X36000Y336500D01*
X35000Y335500D01*
Y334500D01*
X602000Y114000D02*
X603000Y116000D01*
X602000Y118000D01*
X604000Y117000D01*
X606000Y118000D01*
X605000Y116000D01*
X606000Y114000D01*
X604000Y115000D01*
X602000Y114000D01*
Y116500D02*
X603000Y118500D01*
X602000Y120500D01*
X604000Y119500D01*
X606000Y120500D01*
X605000Y118500D01*
X606000Y116500D01*
X604000Y117500D01*
X602000Y116500D01*
Y119000D02*
X603000Y121000D01*
X602000Y123000D01*
X604000Y122000D01*
X606000Y123000D01*
X605000Y121000D01*
X606000Y119000D01*
X604000Y120000D01*
X602000Y119000D01*
X429000Y205500D02*
X430000Y207500D01*
X429000Y209500D01*
X431000Y208500D01*
X433000Y209500D01*
X432000Y207500D01*
X433000Y205500D01*
X431000Y206500D01*
X429000Y205500D01*
X435000D02*
X436000Y207500D01*
X435000Y209500D01*
X437000Y208500D01*
X439000Y209500D01*
X438000Y207500D01*
X439000Y205500D01*
X437000Y206500D01*
X435000Y205500D01*
X432000D02*
X433000Y207500D01*
X432000Y209500D01*
X434000Y208500D01*
X436000Y209500D01*
X435000Y207500D01*
X436000Y205500D01*
X434000Y206500D01*
X432000Y205500D01*
X133302Y116500D02*
X135302Y118500D01*
X137302Y116500D01*
X135302Y114500D01*
X133302Y116500D01*
X180500Y107000D02*
X182500Y109000D01*
X184500Y107000D01*
X182500Y105000D01*
X180500Y107000D01*
Y116000D02*
X182500Y118000D01*
X184500Y116000D01*
X182500Y114000D01*
X180500Y116000D01*
X133302Y132559D02*
X135302Y134559D01*
X137302Y132559D01*
X135302Y130559D01*
X133302Y132559D01*
X580500Y68500D02*
X582500Y70500D01*
X584500Y68500D01*
X582500Y66500D01*
X580500Y68500D01*
X569000Y57000D02*
X571000Y59000D01*
X573000Y57000D01*
X571000Y55000D01*
X569000Y57000D01*
X565000Y160000D02*
X567000Y162000D01*
X569000Y160000D01*
X567000Y158000D01*
X565000Y160000D01*
X575000Y146000D02*
X577000Y148000D01*
X579000Y146000D01*
X577000Y144000D01*
X575000Y146000D01*
D72*
X514500Y279000D02*
G03*
X514500Y279000I-2000J0D01*
G01*
X501500Y267000D02*
G03*
X501500Y267000I-2000J0D01*
G01*
X75500Y205500D02*
G03*
X75500Y205500I-2000J0D01*
G01*
X115000Y166500D02*
G03*
X115000Y166500I-2000J0D01*
G01*
X94750D02*
G03*
X94750Y166500I-2000J0D01*
G01*
X74500D02*
G03*
X74500Y166500I-2000J0D01*
G01*
X101500Y181000D02*
G03*
X101500Y181000I-2000J0D01*
G01*
X83750D02*
G03*
X83750Y181000I-2000J0D01*
G01*
X66000D02*
G03*
X66000Y181000I-2000J0D01*
G01*
X442000Y294000D02*
G03*
X442000Y294000I-2000J0D01*
G01*
X502243Y5236D02*
G03*
X502243Y5236I-2000J0D01*
G01*
X452000Y301500D02*
G03*
X452000Y301500I-2000J0D01*
G01*
X473000Y321000D02*
G03*
X473000Y321000I-2000J0D01*
G01*
X460500Y320500D02*
G03*
X460500Y320500I-2000J0D01*
G01*
X502243Y115472D02*
G03*
X502243Y115472I-2000J0D01*
G01*
X497000Y330500D02*
G03*
X497000Y330500I-2000J0D01*
G01*
X491000Y340500D02*
G03*
X491000Y340500I-2000J0D01*
G01*
X475750D02*
G03*
X475750Y340500I-2000J0D01*
G01*
X460500D02*
G03*
X460500Y340500I-2000J0D01*
G01*
X695157Y335945D02*
G03*
X695157Y335945I-2000J0D01*
G01*
Y280827D02*
G03*
X695157Y280827I-2000J0D01*
G01*
Y225709D02*
G03*
X695157Y225709I-2000J0D01*
G01*
Y170591D02*
G03*
X695157Y170591I-2000J0D01*
G01*
Y115472D02*
G03*
X695157Y115472I-2000J0D01*
G01*
Y60354D02*
G03*
X695157Y60354I-2000J0D01*
G01*
X681377Y308386D02*
G03*
X681377Y308386I-2000J0D01*
G01*
Y253268D02*
G03*
X681377Y253268I-2000J0D01*
G01*
Y143032D02*
G03*
X681377Y143032I-2000J0D01*
G01*
X667597Y115472D02*
G03*
X667597Y115472I-2000J0D01*
G01*
X681377Y87913D02*
G03*
X681377Y87913I-2000J0D01*
G01*
X640038Y280827D02*
G03*
X640038Y280827I-2000J0D01*
G01*
X653818Y253268D02*
G03*
X653818Y253268I-2000J0D01*
G01*
X640038Y225709D02*
G03*
X640038Y225709I-2000J0D01*
G01*
Y170591D02*
G03*
X640038Y170591I-2000J0D01*
G01*
X653818Y87913D02*
G03*
X653818Y87913I-2000J0D01*
G01*
X640038Y60354D02*
G03*
X640038Y60354I-2000J0D01*
G01*
X612479Y280827D02*
G03*
X612479Y280827I-2000J0D01*
G01*
Y225709D02*
G03*
X612479Y225709I-2000J0D01*
G01*
Y170591D02*
G03*
X612479Y170591I-2000J0D01*
G01*
X626259Y87913D02*
G03*
X626259Y87913I-2000J0D01*
G01*
X612479Y60354D02*
G03*
X612479Y60354I-2000J0D01*
G01*
X584920Y335945D02*
G03*
X584920Y335945I-2000J0D01*
G01*
Y225709D02*
G03*
X584920Y225709I-2000J0D01*
G01*
X598700Y198150D02*
G03*
X598700Y198150I-2000J0D01*
G01*
X584920Y170591D02*
G03*
X584920Y170591I-2000J0D01*
G01*
X598700Y143032D02*
G03*
X598700Y143032I-2000J0D01*
G01*
X584920Y115472D02*
G03*
X584920Y115472I-2000J0D01*
G01*
X571141Y308386D02*
G03*
X571141Y308386I-2000J0D01*
G01*
X557361Y280827D02*
G03*
X557361Y280827I-2000J0D01*
G01*
X571141Y253268D02*
G03*
X571141Y253268I-2000J0D01*
G01*
X557361Y225709D02*
G03*
X557361Y225709I-2000J0D01*
G01*
Y170591D02*
G03*
X557361Y170591I-2000J0D01*
G01*
Y115472D02*
G03*
X557361Y115472I-2000J0D01*
G01*
X571141Y87913D02*
G03*
X571141Y87913I-2000J0D01*
G01*
Y32795D02*
G03*
X571141Y32795I-2000J0D01*
G01*
X529802Y170591D02*
G03*
X529802Y170591I-2000J0D01*
G01*
X543582Y143032D02*
G03*
X543582Y143032I-2000J0D01*
G01*
X529802Y115472D02*
G03*
X529802Y115472I-2000J0D01*
G01*
X543582Y87913D02*
G03*
X543582Y87913I-2000J0D01*
G01*
Y32795D02*
G03*
X543582Y32795I-2000J0D01*
G01*
X529802Y5236D02*
G03*
X529802Y5236I-2000J0D01*
G01*
X516023Y363504D02*
G03*
X516023Y363504I-2000J0D01*
G01*
Y198150D02*
G03*
X516023Y198150I-2000J0D01*
G01*
X502243Y170591D02*
G03*
X502243Y170591I-2000J0D01*
G01*
X516023Y32795D02*
G03*
X516023Y32795I-2000J0D01*
G01*
X488464Y363504D02*
G03*
X488464Y363504I-2000J0D01*
G01*
Y253268D02*
G03*
X488464Y253268I-2000J0D01*
G01*
X474684Y170591D02*
G03*
X474684Y170591I-2000J0D01*
G01*
Y115472D02*
G03*
X474684Y115472I-2000J0D01*
G01*
X460905Y363504D02*
G03*
X460905Y363504I-2000J0D01*
G01*
Y308386D02*
G03*
X460905Y308386I-2000J0D01*
G01*
X447125Y115472D02*
G03*
X447125Y115472I-2000J0D01*
G01*
X460905Y87913D02*
G03*
X460905Y87913I-2000J0D01*
G01*
Y32795D02*
G03*
X460905Y32795I-2000J0D01*
G01*
X433346Y363504D02*
G03*
X433346Y363504I-2000J0D01*
G01*
X419566Y170591D02*
G03*
X419566Y170591I-2000J0D01*
G01*
X433346Y87913D02*
G03*
X433346Y87913I-2000J0D01*
G01*
Y32795D02*
G03*
X433346Y32795I-2000J0D01*
G01*
X405787Y363504D02*
G03*
X405787Y363504I-2000J0D01*
G01*
X392007Y225709D02*
G03*
X392007Y225709I-2000J0D01*
G01*
Y170591D02*
G03*
X392007Y170591I-2000J0D01*
G01*
Y115472D02*
G03*
X392007Y115472I-2000J0D01*
G01*
X405787Y32795D02*
G03*
X405787Y32795I-2000J0D01*
G01*
X378227Y363504D02*
G03*
X378227Y363504I-2000J0D01*
G01*
Y143032D02*
G03*
X378227Y143032I-2000J0D01*
G01*
X364448Y115472D02*
G03*
X364448Y115472I-2000J0D01*
G01*
X336889Y225709D02*
G03*
X336889Y225709I-2000J0D01*
G01*
Y170591D02*
G03*
X336889Y170591I-2000J0D01*
G01*
X350668Y32795D02*
G03*
X350668Y32795I-2000J0D01*
G01*
X323109Y363504D02*
G03*
X323109Y363504I-2000J0D01*
G01*
Y198150D02*
G03*
X323109Y198150I-2000J0D01*
G01*
Y143032D02*
G03*
X323109Y143032I-2000J0D01*
G01*
Y32795D02*
G03*
X323109Y32795I-2000J0D01*
G01*
X295550Y363504D02*
G03*
X295550Y363504I-2000J0D01*
G01*
X281771Y280827D02*
G03*
X281771Y280827I-2000J0D01*
G01*
X295550Y253268D02*
G03*
X295550Y253268I-2000J0D01*
G01*
Y198150D02*
G03*
X295550Y198150I-2000J0D01*
G01*
X281771Y60354D02*
G03*
X281771Y60354I-2000J0D01*
G01*
X267991Y363504D02*
G03*
X267991Y363504I-2000J0D01*
G01*
X254212Y280827D02*
G03*
X254212Y280827I-2000J0D01*
G01*
X267991Y253268D02*
G03*
X267991Y253268I-2000J0D01*
G01*
Y87913D02*
G03*
X267991Y87913I-2000J0D01*
G01*
X254212Y60354D02*
G03*
X254212Y60354I-2000J0D01*
G01*
X267991Y32795D02*
G03*
X267991Y32795I-2000J0D01*
G01*
X240432Y363504D02*
G03*
X240432Y363504I-2000J0D01*
G01*
X226653Y335945D02*
G03*
X226653Y335945I-2000J0D01*
G01*
X240432Y198150D02*
G03*
X240432Y198150I-2000J0D01*
G01*
X226653Y170591D02*
G03*
X226653Y170591I-2000J0D01*
G01*
X212873Y363504D02*
G03*
X212873Y363504I-2000J0D01*
G01*
X199093Y225709D02*
G03*
X199093Y225709I-2000J0D01*
G01*
X212873Y198150D02*
G03*
X212873Y198150I-2000J0D01*
G01*
X199093Y170591D02*
G03*
X199093Y170591I-2000J0D01*
G01*
X212873Y143032D02*
G03*
X212873Y143032I-2000J0D01*
G01*
X199093Y60354D02*
G03*
X199093Y60354I-2000J0D01*
G01*
X171534Y335945D02*
G03*
X171534Y335945I-2000J0D01*
G01*
X185314Y253268D02*
G03*
X185314Y253268I-2000J0D01*
G01*
X171534Y225709D02*
G03*
X171534Y225709I-2000J0D01*
G01*
X185314Y198150D02*
G03*
X185314Y198150I-2000J0D01*
G01*
Y87913D02*
G03*
X185314Y87913I-2000J0D01*
G01*
Y32795D02*
G03*
X185314Y32795I-2000J0D01*
G01*
X171534Y5236D02*
G03*
X171534Y5236I-2000J0D01*
G01*
X157755Y363504D02*
G03*
X157755Y363504I-2000J0D01*
G01*
X143975Y335945D02*
G03*
X143975Y335945I-2000J0D01*
G01*
Y280827D02*
G03*
X143975Y280827I-2000J0D01*
G01*
Y225709D02*
G03*
X143975Y225709I-2000J0D01*
G01*
Y170591D02*
G03*
X143975Y170591I-2000J0D01*
G01*
X157755Y143032D02*
G03*
X157755Y143032I-2000J0D01*
G01*
Y87913D02*
G03*
X157755Y87913I-2000J0D01*
G01*
Y32795D02*
G03*
X157755Y32795I-2000J0D01*
G01*
X116416Y280827D02*
G03*
X116416Y280827I-2000J0D01*
G01*
X130196Y253268D02*
G03*
X130196Y253268I-2000J0D01*
G01*
Y198150D02*
G03*
X130196Y198150I-2000J0D01*
G01*
Y87913D02*
G03*
X130196Y87913I-2000J0D01*
G01*
X116416Y60354D02*
G03*
X116416Y60354I-2000J0D01*
G01*
X88857Y280827D02*
G03*
X88857Y280827I-2000J0D01*
G01*
Y225709D02*
G03*
X88857Y225709I-2000J0D01*
G01*
Y115472D02*
G03*
X88857Y115472I-2000J0D01*
G01*
X102637Y87913D02*
G03*
X102637Y87913I-2000J0D01*
G01*
X88857Y60354D02*
G03*
X88857Y60354I-2000J0D01*
G01*
X61298Y335945D02*
G03*
X61298Y335945I-2000J0D01*
G01*
Y280827D02*
G03*
X61298Y280827I-2000J0D01*
G01*
X75078Y253268D02*
G03*
X75078Y253268I-2000J0D01*
G01*
X61298Y225709D02*
G03*
X61298Y225709I-2000J0D01*
G01*
Y115472D02*
G03*
X61298Y115472I-2000J0D01*
G01*
X75078Y87913D02*
G03*
X75078Y87913I-2000J0D01*
G01*
X61298Y60354D02*
G03*
X61298Y60354I-2000J0D01*
G01*
X47519Y308386D02*
G03*
X47519Y308386I-2000J0D01*
G01*
X33739Y280827D02*
G03*
X33739Y280827I-2000J0D01*
G01*
Y225709D02*
G03*
X33739Y225709I-2000J0D01*
G01*
Y170591D02*
G03*
X33739Y170591I-2000J0D01*
G01*
X47519Y143032D02*
G03*
X47519Y143032I-2000J0D01*
G01*
X33739Y115472D02*
G03*
X33739Y115472I-2000J0D01*
G01*
X47519Y87913D02*
G03*
X47519Y87913I-2000J0D01*
G01*
X19960Y308386D02*
G03*
X19960Y308386I-2000J0D01*
G01*
X6180Y280827D02*
G03*
X6180Y280827I-2000J0D01*
G01*
X19960Y253268D02*
G03*
X19960Y253268I-2000J0D01*
G01*
X6180Y225709D02*
G03*
X6180Y225709I-2000J0D01*
G01*
X19960Y198150D02*
G03*
X19960Y198150I-2000J0D01*
G01*
X6180Y170591D02*
G03*
X6180Y170591I-2000J0D01*
G01*
X19960Y143032D02*
G03*
X19960Y143032I-2000J0D01*
G01*
X6180Y115472D02*
G03*
X6180Y115472I-2000J0D01*
G01*
X19960Y87913D02*
G03*
X19960Y87913I-2000J0D01*
G01*
X6180Y60354D02*
G03*
X6180Y60354I-2000J0D01*
G01*
M02*
