G04*
G04 #@! TF.GenerationSoftware,Altium Limited,Altium Designer,23.0.1 (38)*
G04*
G04 Layer_Color=128*
%FSLAX25Y25*%
%MOIN*%
G70*
G04*
G04 #@! TF.SameCoordinates,CBCD5F51-024F-4456-99E9-F8A3691CA7AB*
G04*
G04*
G04 #@! TF.FilePolarity,Positive*
G04*
G01*
G75*
%ADD18R,0.05000X0.05500*%
%ADD48R,0.05500X0.04331*%
%ADD49R,0.09449X0.03937*%
%ADD50R,0.09449X0.12992*%
%ADD51R,0.06000X0.06000*%
%ADD52R,0.04331X0.05500*%
%ADD53O,0.07874X0.02756*%
%ADD54R,0.07874X0.02756*%
%ADD55R,0.06693X0.07874*%
%ADD56R,0.05906X0.12992*%
D18*
X610000Y299500D02*
D03*
X601000D02*
D03*
X610000Y308000D02*
D03*
X601000D02*
D03*
Y316000D02*
D03*
X610000D02*
D03*
D48*
X357122Y327564D02*
D03*
Y335437D02*
D03*
X349621Y327626D02*
D03*
Y335500D02*
D03*
D49*
X354204Y298945D02*
D03*
Y317055D02*
D03*
Y308000D02*
D03*
D50*
X377038D02*
D03*
D51*
X375912Y267500D02*
D03*
X362330D02*
D03*
D52*
X369057Y276001D02*
D03*
X361184D02*
D03*
X369057Y283501D02*
D03*
X361184D02*
D03*
X334185Y282999D02*
D03*
X342058D02*
D03*
D53*
X328621Y296000D02*
D03*
D54*
X342621D02*
D03*
D55*
X335621Y311984D02*
D03*
Y332016D02*
D03*
D56*
X382479Y331500D02*
D03*
X364621D02*
D03*
M02*
