G04*
G04 #@! TF.GenerationSoftware,Altium Limited,Altium Designer,23.0.1 (38)*
G04*
G04 Layer_Color=16711935*
%FSLAX25Y25*%
%MOIN*%
G70*
G04*
G04 #@! TF.SameCoordinates,CBCD5F51-024F-4456-99E9-F8A3691CA7AB*
G04*
G04*
G04 #@! TF.FilePolarity,Positive*
G04*
G01*
G75*
%ADD11C,0.01000*%
%ADD68C,0.00394*%
D11*
X168000Y0D02*
X542254D01*
X597960Y55706D01*
X636917D01*
X659176Y33446D01*
X687183D01*
X709759Y56023D01*
Y332546D01*
X686830Y355475D02*
X709759Y332546D01*
X659935Y355475D02*
X686830D01*
X637446Y332986D02*
X659935Y355475D01*
X598340Y332986D02*
X637446D01*
X542329Y388997D02*
X598340Y332986D01*
X167997Y388997D02*
X542329D01*
X111870Y332870D02*
X167997Y388997D01*
X72833Y332870D02*
X111870D01*
X50703Y355000D02*
X72833Y332870D01*
X22500Y355000D02*
X50703D01*
X0Y332500D02*
X22500Y355000D01*
X0Y56500D02*
Y332500D01*
Y56500D02*
X22693Y33807D01*
X50807D01*
X73000Y56000D01*
X112000D01*
X168000Y0D01*
D68*
X351932Y266500D02*
G03*
X351932Y266500I-11811J0D01*
G01*
X387306Y355500D02*
G03*
X387306Y355500I-11811J0D01*
G01*
M02*
