G04*
G04 #@! TF.GenerationSoftware,Altium Limited,Altium Designer,23.0.1 (38)*
G04*
G04 Layer_Color=8421504*
%FSLAX25Y25*%
%MOIN*%
G70*
G04*
G04 #@! TF.SameCoordinates,CBCD5F51-024F-4456-99E9-F8A3691CA7AB*
G04*
G04*
G04 #@! TF.FilePolarity,Positive*
G04*
G01*
G75*
%ADD17R,0.07500X0.05906*%
%ADD18R,0.05000X0.05500*%
%ADD19R,0.05500X0.05000*%
%ADD20R,0.03150X0.04724*%
D17*
X245732Y219000D02*
D03*
X274968D02*
D03*
X245732Y238300D02*
D03*
X274968D02*
D03*
X59736Y211600D02*
D03*
X117968Y153100D02*
D03*
X171236Y211500D02*
D03*
X117968Y268100D02*
D03*
X189968Y338600D02*
D03*
X549968D02*
D03*
X464736Y238300D02*
D03*
X567000Y211600D02*
D03*
X622968Y268100D02*
D03*
X679500Y211600D02*
D03*
X622968Y153100D02*
D03*
X370589Y195600D02*
D03*
X341353Y176300D02*
D03*
X435500Y219000D02*
D03*
X88732Y133800D02*
D03*
Y153100D02*
D03*
X117968Y133800D02*
D03*
X171236Y192200D02*
D03*
X142000Y211500D02*
D03*
Y192200D02*
D03*
X59736Y192300D02*
D03*
X30500Y211600D02*
D03*
Y192300D02*
D03*
X88732Y268100D02*
D03*
X117968Y248800D02*
D03*
X88732D02*
D03*
X593732D02*
D03*
X622968D02*
D03*
X593732Y268100D02*
D03*
X650264Y192300D02*
D03*
X679500D02*
D03*
X650264Y211600D02*
D03*
X593732Y153100D02*
D03*
X622968Y133800D02*
D03*
X593732D02*
D03*
X537764Y211600D02*
D03*
X567000Y192300D02*
D03*
X537764D02*
D03*
X435500Y238300D02*
D03*
X464736Y219000D02*
D03*
X160732Y338600D02*
D03*
X189968Y319300D02*
D03*
X160732D02*
D03*
X520732Y338600D02*
D03*
X549968Y319300D02*
D03*
X520732D02*
D03*
X341353Y195600D02*
D03*
X370589Y176300D02*
D03*
D18*
X107500Y237000D02*
D03*
X98500D02*
D03*
X49500Y180000D02*
D03*
X40500D02*
D03*
X152000Y179500D02*
D03*
X161000D02*
D03*
X98500Y121500D02*
D03*
X107500D02*
D03*
X613000Y237000D02*
D03*
X604000D02*
D03*
X669500Y180000D02*
D03*
X660500D02*
D03*
X604000Y121500D02*
D03*
X613000D02*
D03*
X557000Y180000D02*
D03*
X548000D02*
D03*
X454500Y208000D02*
D03*
X445500D02*
D03*
X179500Y308000D02*
D03*
X170500D02*
D03*
X222500D02*
D03*
X231500D02*
D03*
X539500D02*
D03*
X530500D02*
D03*
X479000D02*
D03*
X488000D02*
D03*
X255500Y208000D02*
D03*
X264500D02*
D03*
X360500Y166000D02*
D03*
X351500D02*
D03*
D19*
X326521Y252500D02*
D03*
Y243500D02*
D03*
X319221Y252500D02*
D03*
Y243500D02*
D03*
X268621Y321000D02*
D03*
Y330000D02*
D03*
X443121Y321000D02*
D03*
Y330000D02*
D03*
D20*
X227000Y315720D02*
D03*
Y343280D02*
D03*
X268621Y311780D02*
D03*
Y284220D02*
D03*
X483500Y315720D02*
D03*
Y343280D02*
D03*
X443121Y311780D02*
D03*
Y284220D02*
D03*
M02*
